<?xml version="1.0" encoding="utf-8"?>
<!-- Generator: Adobe Illustrator 16.0.0, SVG Export Plug-In . SVG Version: 6.00 Build 0)  -->
<!DOCTYPE svg PUBLIC "-//W3C//DTD SVG 1.1//EN" "http://www.w3.org/Graphics/SVG/1.1/DTD/svg11.dtd">
<svg version="1.1" xmlns="http://www.w3.org/2000/svg" xmlns:xlink="http://www.w3.org/1999/xlink" x="0px" y="0px"
	 width="403.596px" height="159.872px" viewBox="0 0 403.596 159.872" enable-background="new 0 0 403.596 159.872"
	 xml:space="preserve">
<g id="Calque_1">
	<g id="XMLID_1_">
		<g>
			<path d="M194.969,113.388c0.066,0,0.133,0.008,0.208,0.008c-0.066,0.158-0.116,0.316-0.167,0.491
				c-0.449,1.656-0.923,3.303-1.464,4.934c-0.283,0.849-0.591,1.681-0.857,2.239c-0.142,0.316-0.308,0.616-0.482,0.907
				c-0.1,0.025-0.2,0.033-0.3,0.059c-2.139,3.52-5.06,6.432-8.479,8.961c-17.191,12.715-38.244,20.712-59.214,24.207
				c-23.591,3.936-48.389,5.658-72.237,3.586c-11.409-0.99-23.982-1.997-34.833-5.874c-3.586-1.29-6.965-3.088-9.752-5.451
				c-0.566-0.939-1.223-1.813-1.972-2.695c-1.273-1.498-2.155-2.23-2.929-3.986c-0.2-0.449-0.491-0.815-0.849-1.115
				c-0.466-1.14-0.824-2.354-1.074-3.645c-1.672-8.82,2.754-17.508,7.947-24.332c4.526-5.95,10.285-12.74,17.658-15.261
				c-0.399-2.296-0.466-4.61-0.117-6.848c1.481-9.561,9.669-15.852,17.133-21.028c0.075-0.05,0.15-0.092,0.225-0.142
				c-1.714-6.907,0.882-14.854,5.234-20.595c4.377-5.758,10.734-11.275,12.989-18.332c2.696-8.479-0.041-15.877-4.968-22.917
				c-2.696-3.853,3.586-8.729,6.541-5.042c8.795,11,24.539,12.407,36.68,17.899c7.797,3.528,14.912,8.754,21.894,13.639
				c7.156,5.009,14.57,9.719,21.61,14.878c7.447,5.45,15.461,12.44,17.841,21.785c0.648,2.563,0.89,5.143,0.773,7.672
				c12.291,0.824,23.732,10.043,29.308,20.77C193.695,102.72,195.46,108.146,194.969,113.388z M181.438,121.893
				c6.807-6.615,6.19-14.829,0.965-22.384c-4.677-6.765-13.189-14.429-22.085-14.038c-1.364,3.545-3.503,6.824-6.365,9.595
				c-14.063,13.613-34.808,19.888-53.515,23.815c-11.899,2.496-24.348,4.136-36.505,2.779c-9.17-1.032-19.805-2.663-27.435-8.28
				c-3.071-2.263-5.725-5.467-7.623-9.079c-7.789,2.655-14.337,12.066-17.824,18.848c-4.044,7.864-3.095,16.384,5.409,20.52
				c4.893,2.38,10.593,3.254,15.91,4.211c6,1.073,12.024,1.922,18.099,2.446c23.99,2.089,49.212,0.924,72.919-3.395
				c11.684-2.131,23.325-5.26,34.043-10.477C165.411,132.568,174.997,128.15,181.438,121.893z M153.421,79.92
				c2.08-10.193-5.617-18.498-13.256-24.098c-9.761-7.14-19.922-13.988-30.007-20.67c-4.942-3.279-9.994-6.815-15.544-9.004
				c-4.369-1.723-8.854-3.112-13.298-4.635c-3.553-1.223-7.156-2.538-10.584-4.152c0.416,2.13,0.591,4.293,0.416,6.474
				c-0.574,7.123-3.329,13.256-7.706,18.856c-3.811,4.893-8.729,9.428-11.217,15.203c-1.423,3.287-1.906,8.621,0.757,11.558
				c4.993,5.476,14.787,4.228,21.319,3.154c7.281-1.207,14.313-3.303,21.469-5.034c5.218-1.265,7.431,6.765,2.214,8.021
				c-7.955,1.931-15.769,4.277-23.907,5.393c-8.396,1.14-18.831,1.689-25.654-4.352c-0.35-0.3-0.666-0.624-0.982-0.949
				c-0.017,0.017-0.033,0.033-0.059,0.05c-4.851,3.362-11.466,7.772-12.898,13.946c-1.331,5.75,1.798,12.907,6.324,16.568
				c3.329,2.696,7.589,4.011,11.716,4.91c5.75,1.256,11.342,2.421,17.258,2.571c12.557,0.316,24.964-1.698,37.063-4.943
				c9.378-2.513,18.656-5.326,27.252-9.919C141.754,94.782,151.531,89.173,153.421,79.92z"/>
			<path fill="#B17F4A" d="M182.403,99.508c5.226,7.556,5.842,15.769-0.965,22.384c-6.441,6.258-16.027,10.676-24.007,14.563
				c-10.718,5.217-22.359,8.346-34.043,10.477c-23.707,4.318-48.929,5.483-72.919,3.395c-6.075-0.524-12.099-1.373-18.099-2.446
				c-5.317-0.957-11.018-1.831-15.91-4.211c-8.504-4.136-9.453-12.656-5.409-20.52c3.487-6.782,10.036-16.193,17.824-18.848
				c1.897,3.611,4.552,6.815,7.623,9.079c7.63,5.617,18.265,7.248,27.435,8.28c12.157,1.356,24.605-0.283,36.505-2.779
				c18.707-3.928,39.451-10.202,53.515-23.815c2.862-2.771,5.001-6.05,6.365-9.595C169.214,85.079,177.727,92.743,182.403,99.508z"
				/>
			<path fill="#B17F4A" d="M140.165,55.822c7.639,5.6,15.336,13.905,13.256,24.098c-1.89,9.253-11.667,14.862-19.322,18.948
				c-8.596,4.593-17.874,7.406-27.252,9.919c-12.1,3.245-24.507,5.259-37.063,4.943c-5.916-0.15-11.508-1.315-17.258-2.571
				c-4.127-0.899-8.388-2.213-11.716-4.91c-4.526-3.661-7.655-10.818-6.324-16.568c1.432-6.174,8.047-10.584,12.898-13.946
				c0.025-0.017,0.042-0.033,0.059-0.05c0.316,0.325,0.632,0.649,0.982,0.949c6.823,6.041,17.258,5.492,25.654,4.352
				c8.139-1.115,15.952-3.462,23.907-5.393c5.217-1.256,3.004-9.286-2.214-8.021c-7.156,1.731-14.188,3.828-21.469,5.034
				c-6.532,1.074-16.326,2.322-21.319-3.154c-2.663-2.937-2.18-8.271-0.757-11.558c2.488-5.775,7.406-10.31,11.217-15.203
				c4.377-5.601,7.132-11.733,7.706-18.856c0.175-2.18,0-4.343-0.416-6.474c3.428,1.614,7.031,2.929,10.584,4.152
				c4.443,1.522,8.929,2.912,13.298,4.635c5.55,2.188,10.602,5.725,15.544,9.004C120.243,41.833,130.404,48.682,140.165,55.822z"/>
		</g>
		<g>
		</g>
	</g>
</g>
<g id="Calque_2">
	<g>
		<path d="M174.24,30.136c0.027-5.469-0.126-9.882-0.282-13.941l6.97,0.035l0.314,7.324l0.177,0.001
			c3.202-5.188,8.247-8.25,15.216-8.216c10.322,0.052,18.041,8.825,17.976,21.793c-0.077,15.351-9.467,22.891-19.524,22.84
			c-5.645-0.029-10.574-2.523-13.111-6.772l-0.177,0l-0.115,23.202l-7.674-0.039L174.24,30.136z M181.858,41.556
			c-0.006,1.147,0.166,2.206,0.337,3.178c1.384,5.388,6.042,9.116,11.601,9.145c8.202,0.04,13.001-6.64,13.05-16.432
			c0.044-8.557-4.419-15.903-12.624-15.944c-5.292-0.026-10.253,3.742-11.781,9.558c-0.271,0.967-0.542,2.113-0.547,3.172
			L181.858,41.556z"/>
		<path d="M321.31,30.878c0.028-5.47-0.127-9.881-0.283-13.94l6.971,0.035l0.314,7.323l0.177,0.001
			c3.203-5.19,8.247-8.252,15.217-8.216c10.321,0.052,18.04,8.824,17.975,21.793c-0.076,15.35-9.466,22.89-19.524,22.838
			c-5.645-0.028-10.572-2.523-13.11-6.771l-0.176-0.001l-0.116,23.203l-7.675-0.039L321.31,30.878z M328.928,42.297
			c-0.006,1.147,0.166,2.207,0.337,3.178c1.385,5.389,6.042,9.118,11.601,9.146c8.203,0.041,13.002-6.64,13.05-16.432
			c0.044-8.557-4.419-15.902-12.624-15.944c-5.291-0.026-10.251,3.743-11.782,9.558c-0.267,0.968-0.538,2.114-0.543,3.173
			L328.928,42.297z"/>
	</g>
	<g>
		<path d="M254.938,78.275v12.262h11.114v5.911h-11.114v23.026c0,5.293,1.499,8.292,5.822,8.292c2.028,0,3.528-0.264,4.498-0.527
			l0.353,5.822c-1.499,0.615-3.88,1.057-6.881,1.057c-3.616,0-6.528-1.146-8.381-3.262c-2.204-2.295-3-6.088-3-11.117V96.449h-6.616
			v-5.911h6.616V80.303L254.938,78.275z"/>
		<path d="M283.433,78.54c0.089,2.646-1.852,4.764-4.939,4.764c-2.735,0-4.675-2.118-4.675-4.764c0-2.735,2.028-4.852,4.853-4.852
			C281.581,73.688,283.433,75.804,283.433,78.54z M274.788,133.237v-42.7h7.763v42.7H274.788z"/>
		<path d="M295.432,102.095c0-4.411-0.088-8.028-0.353-11.557h6.794l0.353,6.881h0.265c2.382-4.058,6.353-7.851,13.41-7.851
			c5.822,0,10.233,3.528,12.086,8.557h0.177c1.323-2.382,3-4.235,4.764-5.558c2.558-1.941,5.382-2.999,9.439-2.999
			c5.646,0,14.027,3.705,14.027,18.526v25.143h-7.587v-24.172c0-8.205-2.999-13.146-9.263-13.146c-4.412,0-7.852,3.265-9.176,7.058
			c-0.353,1.06-0.618,2.471-0.618,3.883v26.377h-7.586v-25.584c0-6.793-2.999-11.734-8.91-11.734c-4.853,0-8.382,3.882-9.616,7.765
			c-0.441,1.146-0.617,2.469-0.617,3.792v25.761h-7.589V102.095z"/>
		<path d="M373.336,113.299c0.177,10.499,6.882,14.821,14.645,14.821c5.559,0,8.911-0.971,11.822-2.206l1.324,5.557
			c-2.735,1.234-7.412,2.646-14.205,2.646c-13.145,0-20.995-8.645-20.995-21.525c0-12.881,7.586-23.025,20.024-23.025
			c13.941,0,17.645,12.263,17.645,20.113c0,1.589-0.176,2.824-0.264,3.618H373.336z M396.098,107.742
			c0.089-4.94-2.028-12.616-10.763-12.616c-7.853,0-11.293,7.233-11.91,12.616H396.098z"/>
	</g>
	<g id="XMLID_3_">
		<g>
			<path d="M251.597,53.728l0.002,0.009l-0.041,0C251.57,53.73,251.583,53.728,251.597,53.728z"/>
			<path d="M251.549,53.738c-0.057,0.014-0.111,0.027-0.169,0.041c-0.185,0.049-0.346,0.029-0.476-0.042L251.549,53.738z"/>
			<path fill="#B27C4B" d="M230.521,36.577c-0.891-1.689,0.323-4.143,1.36-5.379c1.251-1.487,2.826-2.491,4.39-3.319
				c0.052,0.122,0.108,0.243,0.176,0.36c0.528,0.952,1.403,1.587,2.358,2c0.347-0.059,0.656-0.247,0.879-0.657
				c0.045-0.089,0.086-0.174,0.123-0.266c-0.036-0.157-0.041-0.324-0.022-0.495c-0.007-0.022-0.019-0.04-0.023-0.064
				c-0.123-0.119-0.198-0.284-0.239-0.465c-0.053-0.027-0.102-0.058-0.144-0.096c-0.01-0.003-0.018-0.009-0.027-0.01
				c-0.077-0.024-0.143-0.053-0.201-0.098c-0.696-0.352-1.283-0.886-1.515-1.685c-0.289-1.006,0.787-2.285,1.316-2.876
				c0.732-0.814,1.577-1.473,2.443-2.011c1.511-0.939,3.147-1.718,4.49-3.045c1.203-1.189,1.702-2.781,1.547-4.433
				c1.717,0.958,2.949,3.746,3.793,5.55c0.711,1.521,1.218,3.266,1.132,5.109c-0.098,2.053-1.413,2.756-2.652,3.763
				c-0.947,0.772,0.028,2.435,0.97,1.67c0.973-0.791,2.009-1.521,2.662-2.658c1.958,0.326,3.818,2.14,3.86,4.77
				c0.042,2.807-2.731,4.21-4.458,4.924c-1.061,0.438-0.469,2.389,0.583,1.953c1.819-0.755,3.769-2.002,4.807-3.998
				c2.547,2.247,4.399,5.746,2.827,9.92c-0.782,2.075-2.31,4.088-3.95,5.111c-1.729,1.082-3.657,1.016-5.493,1.446l-23.408,0.105
				c-1.388-0.204-2.771-0.46-4.094-0.971c-1.327-0.513-2.853-1.323-3.275-3.121c-0.225-0.954,0.157-2.08,0.481-2.96
				c0.497-1.346,1.283-2.511,2.188-3.465c1.681-1.771,3.799-2.646,5.897-2.865c0.752,1.246,2.022,1.843,3.404,2.172
				c0.13-0.075,0.283-0.107,0.456-0.085c0.062,0.011,0.114,0.027,0.166,0.043c0.063-0.025,0.132-0.048,0.207-0.059
				c0.685-0.1,1.291-1.14,0.638-1.717c-0.048-0.046-0.092-0.091-0.127-0.139c-0.075-0.015-0.152-0.024-0.229-0.039
				C232.61,38.28,231.217,37.901,230.521,36.577z"/>
			<path fill="#010202" d="M245.715,12.413c0.121-0.459,0.449-0.856,0.927-0.832c3.022,0.175,5.014,4.489,6.301,7.38
				c0.837,1.885,1.332,4.207,1.036,6.455c2.586,0.597,5.024,3.246,4.901,6.772c-0.009,0.295-0.037,0.579-0.08,0.854
				c3.23,2.608,5.736,7.362,3.804,12.487c-0.953,2.53-2.613,4.938-4.588,6.296c-2.035,1.399-4.244,1.359-6.419,1.901
				c-0.014,0-0.026,0.002-0.039,0.009c-0.004,0.002-0.005,0.001-0.009,0.001l-0.645,0l-22.249,0.098
				c-0.116,0.06-0.249,0.078-0.393,0.057c-3.123-0.443-8.711-1.149-9.233-6.041c-0.32-2.987,1.412-6.233,3.225-8.143
				c1.834-1.933,4.082-3.073,6.38-3.431c-0.753-5.164,3.98-8.755,7.342-10.503c0.169-1.466,1.023-2.879,2.008-3.917
				c1.534-1.62,3.317-2.57,5.085-3.658c0.759-0.472,1.65-0.995,2.215-1.829c0.629-0.933,0.594-1.845,0.266-2.885
				C245.415,13.061,245.512,12.679,245.715,12.413z M260.955,45.042c1.572-4.174-0.28-7.673-2.827-9.92
				c-1.038,1.996-2.987,3.243-4.807,3.998c-1.052,0.436-1.644-1.515-0.583-1.953c1.727-0.714,4.5-2.117,4.458-4.924
				c-0.042-2.63-1.902-4.444-3.86-4.77c-0.653,1.137-1.689,1.867-2.662,2.658c-0.941,0.765-1.917-0.898-0.97-1.67
				c1.239-1.006,2.555-1.709,2.652-3.763c0.086-1.843-0.421-3.588-1.132-5.109c-0.844-1.804-2.076-4.592-3.793-5.55
				c0.155,1.652-0.344,3.244-1.547,4.433c-1.343,1.327-2.979,2.105-4.49,3.045c-0.866,0.538-1.711,1.197-2.443,2.011
				c-0.529,0.592-1.605,1.87-1.316,2.876c0.231,0.799,0.818,1.333,1.515,1.685c0.059,0.045,0.124,0.074,0.201,0.098
				c0.01,0.001,0.018,0.007,0.027,0.01c0.042,0.039,0.091,0.069,0.144,0.096c0.041,0.181,0.116,0.346,0.239,0.465
				c0.005,0.024,0.017,0.042,0.023,0.064c-0.019,0.17-0.014,0.338,0.022,0.495c-0.037,0.092-0.078,0.177-0.123,0.266
				c-0.223,0.41-0.532,0.598-0.879,0.657c-0.955-0.413-1.83-1.048-2.358-2c-0.067-0.118-0.124-0.238-0.176-0.36
				c-1.563,0.828-3.139,1.832-4.39,3.319c-1.037,1.236-2.251,3.689-1.36,5.379c0.696,1.324,2.09,1.704,3.297,1.92
				c0.076,0.015,0.153,0.024,0.229,0.039c0.035,0.048,0.079,0.093,0.127,0.139c0.653,0.578,0.047,1.617-0.638,1.717
				c-0.075,0.011-0.144,0.034-0.207,0.059c-0.052-0.016-0.104-0.032-0.166-0.043c-0.173-0.022-0.326,0.01-0.456,0.085
				c-1.382-0.329-2.652-0.926-3.404-2.172c-2.099,0.22-4.217,1.094-5.897,2.865c-0.905,0.954-1.691,2.119-2.188,3.465
				c-0.324,0.88-0.706,2.006-0.481,2.96c0.423,1.798,1.948,2.608,3.275,3.121c1.322,0.51,2.706,0.767,4.094,0.971l23.408-0.105
				c1.836-0.43,3.765-0.364,5.493-1.446C258.646,49.13,260.173,47.117,260.955,45.042z"/>
		</g>
		<g>
		</g>
	</g>
	<g id="XMLID_2_">
		<g>
			<path d="M300.523,52.543l-0.001,0.01l-0.037,0C300.5,52.548,300.512,52.545,300.523,52.543z"/>
			<path d="M300.313,52.592c-0.183,0.045-0.339,0.024-0.463-0.04l0.635,0.001C300.428,52.566,300.369,52.58,300.313,52.592z"/>
			<path fill="#B27C4B" d="M301.54,37.083c-1.029,0.401-0.442,2.226,0.581,1.826c1.765-0.693,3.655-1.848,4.652-3.708
				c2.494,2.114,4.316,5.393,2.811,9.283c-0.75,1.937-2.227,3.806-3.815,4.752c-1.679,1-3.559,0.928-5.339,1.321l-22.787-0.035
				c-1.353-0.2-2.702-0.448-3.99-0.936c-1.296-0.481-2.787-1.244-3.207-2.928c-0.223-0.893,0.14-1.944,0.452-2.763
				c0.477-1.253,1.235-2.342,2.11-3.226c1.624-1.643,3.681-2.446,5.724-2.641c0.739,1.166,1.979,1.734,3.327,2.05
				c0.126-0.071,0.275-0.103,0.441-0.079c0.061,0.008,0.113,0.026,0.164,0.042c0.062-0.026,0.128-0.047,0.199-0.055
				c0.668-0.089,1.252-1.057,0.613-1.604c-0.048-0.04-0.09-0.083-0.126-0.131c-0.073-0.01-0.146-0.021-0.222-0.033
				c-1.174-0.213-2.535-0.574-3.221-1.813c-0.878-1.583,0.291-3.866,1.296-5.019c1.209-1.382,2.734-2.309,4.25-3.074
				c0.055,0.111,0.109,0.226,0.175,0.338c0.52,0.892,1.376,1.491,2.309,1.879c0.336-0.051,0.639-0.225,0.852-0.608
				c0.043-0.081,0.084-0.162,0.118-0.246c-0.036-0.146-0.042-0.305-0.023-0.462c-0.008-0.021-0.018-0.037-0.024-0.06
				c-0.12-0.112-0.196-0.266-0.235-0.439c-0.052-0.021-0.101-0.055-0.142-0.089c-0.008-0.003-0.018-0.006-0.027-0.01
				c-0.072-0.021-0.136-0.05-0.196-0.091c-0.679-0.333-1.252-0.834-1.482-1.584c-0.288-0.94,0.752-2.13,1.266-2.678
				c0.707-0.756,1.526-1.369,2.367-1.868c1.465-0.867,3.052-1.583,4.353-2.815c1.165-1.104,1.642-2.587,1.481-4.134
				c1.676,0.907,2.893,3.518,3.725,5.202c0.702,1.427,1.203,3.062,1.13,4.785c-0.083,1.914-1.36,2.565-2.563,3.502
				c-0.916,0.714,0.042,2.273,0.956,1.564c0.94-0.735,1.946-1.409,2.575-2.469c1.907,0.313,3.729,2.024,3.785,4.479
				C305.911,35.129,303.217,36.424,301.54,37.083z"/>
			<path fill="#010202" d="M302.682,26.112c2.52,0.572,4.909,3.064,4.81,6.356c-0.01,0.275-0.032,0.541-0.073,0.798
				c3.159,2.451,5.626,6.906,3.773,11.687c-0.914,2.357-2.516,4.597-4.432,5.855c-1.973,1.296-4.118,1.242-6.236,1.735
				c-0.012,0.002-0.023,0.005-0.038,0.011l-0.635-0.001l-21.66-0.035c-0.111,0.051-0.241,0.071-0.383,0.051
				c-3.04-0.434-8.484-1.121-9.022-5.697c-0.326-2.792,1.341-5.815,3.094-7.588c1.775-1.795,3.955-2.845,6.189-3.167
				c-0.76-4.828,3.825-8.155,7.09-9.771c0.156-1.368,0.979-2.684,1.93-3.646c1.487-1.506,3.217-2.382,4.932-3.392
				c0.735-0.433,1.601-0.917,2.145-1.694c0.605-0.868,0.568-1.718,0.242-2.691c-0.133-0.398-0.04-0.755,0.156-1.004
				c0.115-0.428,0.433-0.797,0.899-0.77c2.941,0.177,4.904,4.22,6.173,6.93C302.461,21.843,302.954,24.015,302.682,26.112z
				 M302.121,38.909c-1.023,0.4-1.61-1.425-0.581-1.826c1.677-0.659,4.371-1.954,4.312-4.575c-0.056-2.455-1.878-4.166-3.785-4.479
				c-0.629,1.06-1.635,1.734-2.575,2.469c-0.914,0.709-1.872-0.85-0.956-1.564c1.202-0.937,2.479-1.588,2.563-3.502
				c0.073-1.723-0.428-3.358-1.13-4.785c-0.832-1.684-2.049-4.295-3.725-5.202c0.16,1.546-0.316,3.03-1.481,4.134
				c-1.301,1.232-2.888,1.948-4.353,2.815c-0.841,0.499-1.66,1.112-2.367,1.868c-0.514,0.547-1.554,1.737-1.266,2.678
				c0.23,0.75,0.804,1.251,1.482,1.584c0.061,0.041,0.124,0.07,0.196,0.091c0.01,0.003,0.02,0.007,0.027,0.01
				c0.041,0.034,0.09,0.067,0.142,0.089c0.039,0.173,0.115,0.328,0.235,0.439c0.007,0.023,0.017,0.039,0.024,0.06
				c-0.019,0.157-0.013,0.315,0.023,0.462c-0.034,0.084-0.075,0.165-0.118,0.246c-0.213,0.384-0.516,0.557-0.852,0.608
				c-0.933-0.389-1.789-0.987-2.309-1.879c-0.065-0.112-0.12-0.227-0.175-0.338c-1.516,0.765-3.041,1.692-4.25,3.074
				c-1.005,1.153-2.174,3.436-1.296,5.019c0.686,1.239,2.047,1.6,3.221,1.813c0.075,0.013,0.148,0.023,0.222,0.033
				c0.036,0.048,0.078,0.092,0.126,0.131c0.639,0.547,0.055,1.515-0.613,1.604c-0.071,0.008-0.138,0.029-0.199,0.055
				c-0.051-0.016-0.104-0.033-0.164-0.042c-0.166-0.024-0.315,0.008-0.441,0.079c-1.348-0.316-2.588-0.884-3.327-2.05
				c-2.043,0.195-4.1,0.999-5.724,2.641c-0.875,0.884-1.634,1.973-2.11,3.226c-0.313,0.818-0.675,1.87-0.452,2.763
				c0.42,1.684,1.911,2.447,3.207,2.928c1.288,0.488,2.638,0.736,3.99,0.936l22.787,0.035c1.78-0.394,3.66-0.321,5.339-1.321
				c1.589-0.946,3.065-2.816,3.815-4.752c1.506-3.89-0.316-7.169-2.811-9.283C305.776,37.062,303.886,38.216,302.121,38.909z"/>
		</g>
		<g>
		</g>
	</g>
</g>
</svg>
