<?xml version="1.0" encoding="utf-8"?>
<!-- Generator: Adobe Illustrator 16.0.0, SVG Export Plug-In . SVG Version: 6.00 Build 0)  -->
<!DOCTYPE svg PUBLIC "-//W3C//DTD SVG 1.1//EN" "http://www.w3.org/Graphics/SVG/1.1/DTD/svg11.dtd">
<svg version="1.1" id="Calque_1" xmlns="http://www.w3.org/2000/svg" xmlns:xlink="http://www.w3.org/1999/xlink" x="0px" y="0px"
	 width="331.72px" height="331.72px" viewBox="0 0 331.72 331.72" enable-background="new 0 0 331.72 331.72" xml:space="preserve">
<path fill="#F5D2E6" stroke="#000000" stroke-width="5" stroke-miterlimit="10" d="M329.22,165.855
	c0,64.86-37.79,120.89-92.56,147.26c-5.91,2.85-12.011,5.35-18.29,7.479c-16.48,5.59-34.141,8.62-52.51,8.62
	c-8.89,0-17.61-0.71-26.11-2.08c-17.91-2.87-34.85-8.66-50.31-16.859C37.72,282.855,2.5,228.475,2.5,165.855
	c0-90.22,73.14-163.36,163.36-163.36S329.22,75.635,329.22,165.855z"/>
<g>
	<g>
		<title>Layer 1</title>
		<g id="svg_1">
			<path fill="#FFFFFF" stroke="#010202" stroke-width="1.2919" d="M90.703,120.568c-0.643,1.758-1.201,3.526-1.663,5.325
				c-0.189,0.076-0.373,0.153-0.557,0.231c-0.002,0-0.002,0.002-0.003,0.002c0.006-0.03,0.018-0.063,0.03-0.089
				C89.184,124.179,89.92,122.36,90.703,120.568z"/>
			<path fill="#FFFFFF" stroke="#010202" stroke-width="1.1393" d="M98.825,104.611c-2.055,3.747-4.093,7.48-5.962,11.303
				c-0.011,0.021-0.021,0.042-0.03,0.061c-0.738,1.515-1.452,3.045-2.129,4.593c0.133-0.358,0.267-0.716,0.406-1.073
				c1.798-4.649,4.176-9.249,6.959-14.148L98.825,104.611z"/>
			<path fill="#010202" stroke="#010202" stroke-width="1.1393" d="M256.834,166.76c-5.772-0.79-12.067-0.037-17.912-0.317
				c-7.392-0.357-14.773-0.645-22.172-0.888c-13.27-0.442-26.541-1.275-39.813-1.039c-25.272,0.457-50.652-0.06-75.32,6.536
				c-3.765,1.008-7.104,2.22-10.697,3.739c-0.819,0.349-5.472-1.225-6.62-1.666c-5.064-1.956-10.551-6.031-11.764-11.683
				c-2.539-11.78,5.176-23.571,11.247-32.708l-0.513,0.841c1.143-1.412,3.033-2.524,5.209-3.45c0.001,0,0.001-0.002,0.003-0.002
				c0.184-0.078,0.368-0.155,0.557-0.231c0.461-1.798,1.02-3.567,1.663-5.325c0.678-1.548,1.392-3.078,2.129-4.593
				c0.009-0.019,0.019-0.04,0.03-0.061c1.87-3.823,3.907-7.556,5.962-11.303c1.668-3.038,3.352-6.083,4.971-9.193
				c5.727-11.006,15.821-19.144,26.176-25.81c7.799-5.025,16.265-11.122,25.469-13.639c-2.311-3.285-3.836-7.219-4.303-11.501
				c-0.946-8.706,3.479-16.278,10.231-20.728l2.365-3.681c2.719-2.944,5.319-4.37,8.848-5.482c3.56-1.128,6.993-2.566,10.808-2.877
				c-1.921,1.239-10.85,5.704-14.199,8.638c1.025-0.248,2.043-0.517,3.107-0.632c1.149-0.125,2.269-0.059,3.389,0
				c1.328-0.306,2.705-0.672,3.852-0.796c3.739-0.408,9.437-3.196,13.103-1.431c0.071,0.019,0.923-0.198,0.483,0.019
				c-3.036,1.457-6.084,2.909-9.118,4.367c0.475,0.233,0.968,0.431,1.428,0.698c1.702-0.203,3.707-1.071,5.363-0.713
				c3.105,0.666,6.825,0.336,9.851,0.944c-3.009,0.736-6.012,1.47-9.02,2.211c1.964,1.02,3.917,2.051,5.88,3.071
				c-1.868,0.48-3.613,0.528-5.33,0.434c2.578,3.339,4.323,7.362,4.801,11.725c0.755,6.95-1.917,14.133-6.726,18.958
				c3.041,1.022,6.04,2.204,9.011,3.514c7.663,3.387,13.944,6.691,20.822,11.453c5.819,4.025,10.331,10.356,14.557,15.933
				c4.369,5.752,6.798,13.091,9.383,19.766c1.195,3.086,2.417,6.909,3.31,10.713c2.813,1.096,5.446,1.676,6.822,4.262
				c1.358,2.54,2.387,5.198,3.387,7.898C259.445,137.871,268.415,168.35,256.834,166.76z"/>
			<path fill="#FFFFFF" stroke="#010202" stroke-width="1.1393" d="M92.833,115.975c-0.738,1.515-1.452,3.045-2.129,4.593
				c-0.643,1.758-1.201,3.526-1.663,5.325c-0.189,0.076-0.373,0.153-0.557,0.231c0.01-0.028,0.018-0.06,0.026-0.086
				c0.625-2.042,1.542-4.266,2.6-6.542C91.651,118.328,92.233,117.15,92.833,115.975z"/>
		</g>
	</g>
	<g id="XMLID_2721_">
		<path fill="#010202" d="M255.25,245.005c-2.45,9.62-7.971,18.69-13.25,27.37c-6.511,10.69-10.37,21.04-5.34,31.74
			c-5.91,2.85-12.011,5.35-18.29,7.479c-17.181-8.29-25.341-27-18.16-47.27c2.68-7.49,7.09-14.43,10.8-21.53
			c14.96-29.229,15.01-54.93-1.72-77.52c-4.15-5.63-9.36-11.061-15.63-16.311c-36.041-30.2-27.601-31.15-57.88,5.36
			c-3.24,3.899-5.94,7.939-8.14,12.08c-13.25,24.939-8.32,53.45,5.14,77.66c12.69,22.779,14.87,49.76,6.97,74.069
			c-17.91-2.87-34.85-8.66-50.31-16.859c-1.29-9.2-3.81-18.67-6.97-28.511c-6.3-19.72-4.73-44.08,0.08-64.819
			c2.6-11.351,5.9-22.58,9.66-33.69c6.16-18.23,13.55-36.16,21.1-53.84c6.23-14.67,17.5-27.52,37.06-25.78
			c1.5,0.15,3.07-0.56,4.49-1.11c27.129-11.51,40.22-10.17,59.3,11.28c17.079,19.12,30.409,39.54,38.149,61.61
			C260.75,190.485,262.529,216.535,255.25,245.005z"/>
	</g>
	<g>
		<path fill="#010202" d="M189.399,235.487c-0.96-0.318-2.38-1.822-3.88-3.408c-2.72-2.886-5.81-6.164-9.14-6.164
			c-4.4,0-6.8,2.183-7.62,3.123c-0.93-0.851-3.47-2.828-7.05-2.828c-2.8,0-6.22,3.277-9.23,6.172c-1.74,1.667-3.39,3.254-4.26,3.489
			c-0.17,0.05-0.28,0.173-0.29,0.319c-0.01,0.14,0.08,0.271,0.24,0.336c1.48,0.571,2.99,2.101,4.74,3.874
			c2.44,2.485,5.22,5.306,8.9,6.458c2.25,0.703,4.66,1.047,7.38,1.047c2.601,0,5.12-0.327,7.021-0.605
			c3.279-0.49,8.17-5.804,11.1-8.983c0.93-1.022,1.9-2.068,2.141-2.199c0.14-0.065,0.229-0.196,0.22-0.327
			S189.55,235.537,189.399,235.487z M170.279,240.009c-8.05,0.302-13.99-2.028-16.54-3.263c1.73-0.326,3.2-0.997,4.52-1.594
			c1.5-0.679,2.8-1.267,4.15-1.267c1.67,0,3.32,0.441,4.64,0.792c1.06,0.295,1.91,0.516,2.53,0.475
			c0.55-0.024,1.29-0.204,2.14-0.409c1.3-0.318,2.92-0.711,4.48-0.711c1.119,0,2.55,0.549,4.069,1.12
			c1.51,0.58,3.061,1.17,4.61,1.374C182.93,237.581,178.069,239.723,170.279,240.009z"/>
	</g>
</g>
</svg>
