<?xml version="1.0" encoding="utf-8"?>
<!-- Generator: Adobe Illustrator 16.0.0, SVG Export Plug-In . SVG Version: 6.00 Build 0)  -->
<!DOCTYPE svg PUBLIC "-//W3C//DTD SVG 1.1//EN" "http://www.w3.org/Graphics/SVG/1.1/DTD/svg11.dtd">
<svg version="1.1" id="Calque_1" xmlns="http://www.w3.org/2000/svg" xmlns:xlink="http://www.w3.org/1999/xlink" x="0px" y="0px"
	 width="331.72px" height="331.72px" viewBox="0 0 331.72 331.72" enable-background="new 0 0 331.72 331.72" xml:space="preserve">
<circle fill="#B71918" stroke="#000000" stroke-width="5" stroke-miterlimit="10" cx="165.86" cy="165.86" r="163.36"/>
<g>
	<path fill="#010202" d="M256.35,159.693c0,0,0.835-2.038-0.618-12.585l-1.165-3.256c0,0-0.438,21.513-7.999,29.224
		c0,0-2.223,1.348-3.111,6.966c0,0-3.111-0.054-4.459,7.238c0,0-4.455,1.219-6.217,8.53c0,0-2.383-1.457-6.221,6.33
		c0,0-2.798,1.542-4.909,3.288c-2.53-10.074-12.438-12.857-12.438-12.857c-5.785-6.093-17.351-8.311-17.351-8.311
		c-11.112-7.093-17.426-3.036-17.426-3.036c0.331,4.711-7.309,5.855-8.944,6.056c-1.655-0.2-9.274-1.345-8.948-6.056
		c0,0-6.292-4.057-17.421,3.036c0,0-11.565,2.236-17.349,8.311c0,0-9.894,2.783-12.439,12.857c-2.109-1.746-4.912-3.288-4.912-3.288
		c-3.836-7.787-6.219-6.33-6.219-6.33c-1.782-7.312-6.22-8.53-6.22-8.53c-1.328-7.312-4.454-7.238-4.454-7.238
		c-0.892-5.618-3.111-6.966-3.111-6.966c-7.565-7.711-8.001-29.224-8.001-29.224l-1.164,3.256
		c-1.438,10.547-0.619,12.585-0.619,12.585c-4.892,7.31,1.783,22.731,1.783,22.731c0.892,10.547,7.565,19.716,7.565,19.716
		c0.891,11.183,4.455,16.801,4.455,16.801c1.765,15.422,6.656,20.693,6.656,20.693c8.002,21.914,15.113,19.478,15.113,19.478
		c3.109,7.311,16.187,10.551,16.187,10.551c5.945,9.745,21.185,6.49,21.185,6.49c7.072,5.529,14.658,3.384,17.913,2.022
		c3.256,1.361,10.838,3.507,17.915-2.022c0,0,15.221,3.255,21.185-6.49c0,0,13.074-3.258,16.183-10.551
		c0,0,7.111,2.437,15.133-19.478c0,0,4.893-5.271,6.677-20.693c0,0,3.561-5.618,4.453-16.801c0,0,6.674-9.169,7.566-19.716
		C254.586,182.425,261.242,167.003,256.35,159.693z"/>
	<path fill="#B71A1A" d="M202.264,221.651c0,0-3.636,1.18-12.857-1.892c0,0-10.803,7.292-20.368,7.966
		c-0.072-0.184-0.126-0.293-0.126-0.293c-1.074,0.221-2.238,0.331-3.438,0.369c-1.2-0.038-2.348-0.167-3.439-0.369
		c0,0-0.052,0.109-0.126,0.293c-9.564-0.674-20.368-7.966-20.368-7.966c-9.546,4.819-12.856,1.892-12.856,1.892
		c-3.384-1.456-3.493-1.82-6.184-4.82c3.091-3.726,3.529-7.638,5.729-8.437c0,0-2.492,3.654,9.074-1.218
		c0,0,2.219,6.091,13.349-0.401c0,0,4.892,1.69,12.457-4.635c0,0,1.072-0.748,2.346-1.204c1.274,0.456,2.346,1.204,2.346,1.204
		c7.566,6.325,12.458,4.635,12.458,4.635c11.113,6.492,13.348,0.401,13.348,0.401c11.566,4.872,9.077,1.218,9.077,1.218
		c2.199,0.799,2.637,4.711,5.727,8.437C205.755,219.831,205.661,220.195,202.264,221.651z"/>
	<path fill="#010202" stroke="#010202" stroke-width="0.3134" d="M215.916,97.912c-13.893,0.088-27.282,4.19-40.919,5.83
		c-5.691,0.685-11.557,0.853-17.261,0.216c-7.58-0.847-14.918-3.095-22.494-4.103c-6.769-0.901-13.624-1.84-20.437-1.878
		c-11.904-0.066-23.419,3.455-35.09,5.355c0,3.225-0.694,7.364,1.052,9.63c1.799,2.338,4.835,4.476,5.624,7.644
		c1.867,7.514,4.52,14.878,7.909,21.94c1.649,3.431,4.757,5.822,8.23,7.47c8.362,3.969,18.259,4.551,27.434,3.304
		c13.062-1.776,20.149-11.035,25.556-21.614c2.024-4.302,2.25-9.265,4.915-13.193c1.583-2.335,5.26-1.352,7.887-1.36
		c2.628-0.01,4.854,4.119,5.669,6.866c2.888,9.724,7.698,20.04,17.258,25.135c14.28,7.608,36.779,6.185,46.043-7.536
		c3.626-5.37,4.629-11.886,6.449-17.966c1.106-3.702,2.095-8.114,6.034-10.15c1.588-0.82,0.473-4.097,0.707-6.002
		c0.259-2.075,0.749-3.911-2.374-4.319c-5.457-0.71-10.745-2.874-16.325-3.606C226.494,98.881,221.314,97.879,215.916,97.912
		L215.916,97.912z"/>
	<path fill="#B71918" stroke="#000000" stroke-width="3.5537" stroke-miterlimit="10" d="M124.064,101.368
		c3.944-0.024,7.872,0.248,11.705,1.015c22.841,4.563,23.302,13.451,13.898,31.828c-7.66,14.974-23.532,18.725-39.526,15.137
		c-7.373-1.655-12.413-6.516-14.792-13.172c-2.508-7.024-4.407-14.491-3.976-21.874c0.574-9.889,12.415-11.278,20.894-12.179
		c3.89-0.413,7.852-0.733,11.796-0.756L124.064,101.368z"/>
	<path fill="#B71918" stroke="#000000" stroke-width="3.5537" stroke-miterlimit="10" d="M207.457,101.368
		c3.944,0.024,7.904,0.343,11.797,0.755c8.479,0.901,20.319,2.29,20.895,12.178c0.429,7.386-1.47,14.85-3.977,21.874
		c-2.378,6.657-7.42,11.519-14.793,13.173c-15.991,3.589-31.862-0.162-39.525-15.137c-9.403-18.377-8.94-27.266,13.897-31.828
		C199.587,101.617,203.513,101.345,207.457,101.368L207.457,101.368z"/>
</g>
</svg>
