<?xml version="1.0" encoding="utf-8"?>
<!-- Generator: Adobe Illustrator 16.0.0, SVG Export Plug-In . SVG Version: 6.00 Build 0)  -->
<!DOCTYPE svg PUBLIC "-//W3C//DTD SVG 1.1//EN" "http://www.w3.org/Graphics/SVG/1.1/DTD/svg11.dtd">
<svg version="1.1" id="Calque_1" xmlns="http://www.w3.org/2000/svg" xmlns:xlink="http://www.w3.org/1999/xlink" x="0px" y="0px"
	 width="331.72px" height="331.72px" viewBox="0 0 331.72 331.72" enable-background="new 0 0 331.72 331.72" xml:space="preserve">
<circle fill="#43529F" stroke="#000000" stroke-width="5" stroke-miterlimit="10" cx="165.86" cy="165.86" r="163.36"/>
<path fill="#010202" stroke="#010202" stroke-width="0.3266" d="M218.563,49.668c-14.416,0.092-28.311,4.387-42.462,6.104
	c-5.906,0.717-11.994,0.893-17.91,0.226c-7.866-0.885-15.481-3.24-23.342-4.296c-7.025-0.941-14.139-1.927-21.208-1.965
	c-12.354-0.069-24.302,3.615-36.413,5.607c0,3.375-0.719,7.708,1.092,10.081c1.868,2.447,5.018,4.686,5.835,8.003
	c1.938,7.865,4.689,15.576,8.208,22.965c1.71,3.592,4.937,6.097,8.54,7.824c8.677,4.153,18.946,4.764,28.467,3.458
	c13.556-1.86,20.91-11.553,26.521-22.627c2.1-4.503,2.334-9.698,5.1-13.813c1.643-2.444,5.458-1.415,8.184-1.423
	c2.727-0.009,5.037,4.312,5.882,7.188c2.995,10.179,7.987,20.979,17.91,26.312c14.818,7.965,38.162,6.477,47.777-7.889
	c3.764-5.621,4.803-12.444,6.689-18.807c1.149-3.875,2.177-8.494,6.264-10.625c1.649-0.859,0.491-4.29,0.735-6.284
	c0.266-2.174,0.776-4.096-2.467-4.522c-5.659-0.744-11.147-3.008-16.938-3.774c-5.488-0.726-10.863-1.777-16.463-1.742H218.563z
	 M123.249,53.286c4.093-0.025,8.167,0.261,12.146,1.063c23.701,4.777,24.181,14.082,14.423,33.32
	c-7.95,15.676-24.42,19.603-41.016,15.846c-7.65-1.732-12.881-6.82-15.349-13.79c-2.604-7.354-4.573-15.167-4.127-22.898
	c0.597-10.352,12.885-11.805,21.683-12.75c4.037-0.433,8.147-0.766,12.24-0.79H123.249z M209.786,53.286
	c4.093,0.025,8.203,0.359,12.241,0.79c8.797,0.945,21.084,2.399,21.682,12.75c0.445,7.731-1.523,15.544-4.128,22.9
	c-2.468,6.968-7.698,12.058-15.349,13.789c-16.595,3.758-33.064-0.17-41.017-15.846c-9.756-19.239-9.277-28.543,14.424-33.321
	c3.977-0.801,8.053-1.086,12.145-1.063H209.786z"/>
<g transform="translate(0.000000,300.000000) scale(0.100000,-0.100000)">
	<path id="node1" fill="#010202" d="M1440.298,1660.732c-17.1-7.466-46.377-27.842-65.083-45.493
		c-107.388-99.839-161.084-130.41-226.157-130.41c-65.898,0.684-94.365,38.032-76.475,98.477
		c7.319,23.096,19.526,40.078,39.053,55.693c25.215,19.028,26.841,22.417,13.823,25.82c-29.277,7.456-105.752-31.929-127.715-66.563
		c-26.841-44.136-43.12-97.798-43.12-147.368c-0.815-61.812-13.013-87.617-79.717-160.967
		c-55.327-61.123-78.911-90.322-71.597-90.322c2.451,0,17.095,4.756,32.544,10.869c35.796,14.932,62.637,8.828,81.343-18.35
		c13.027-17.646,14.658-29.189,9.766-69.941c-4.878-46.191-29.277-120.215-44.736-135.82
		c-14.648-14.951-80.532-123.613-90.303-148.74c-4.883-14.268-7.319-30.547-4.883-36.67c4.072-8.164,12.207-2.041,34.17,25.811
		c33.359,42.783,91.929,94.395,105.752,94.395c21.973,0,0.82-53.652-61.011-156.211c-66.704-110.693-93.545-179.971-88.667-231.582
		l2.437-29.873l17.905,31.221c24.404,40.752,64.268,72.676,77.28,61.807c21.147-17.646,14.634-124.287-10.586-164.346
		c-3.242-5.439-15.449-27.852-26.841-48.906c-11.387-21.729-33.35-56.357-50.439-76.729c-16.265-21.064-27.656-40.088-24.404-42.119
		c16.27-13.574,143.184,68.594,143.184,93.037c0,3.398,4.063,6.797,8.135,6.797c4.873,0,8.13-31.924,8.13-81.504
		c0-85.557,12.207-127.002,49.624-169.102c32.539-37.344,87.046-50.947,65.903-16.299c-13.833,21.738-19.536,68.584-9.771,82.861
		c13.013,20.381,42.305,17.656,82.168-8.145c61.826-39.385,68.34-50.947,70.771-131.074c1.631-38.721,5.698-70.635,8.13-70.635
		c3.267,0,18.706,10.859,34.17,24.443c42.31,36.67,103.32,63.838,143.994,63.838c30.913,0,35.786-2.715,47.988-21.729
		c9.771-16.299,12.207-30.566,8.135-61.133c-4.063-25.127-2.437-39.395,2.441-39.395c14.658,0,67.534,42.783,91.118,73.35
		c26.841,36.006,25.22,37.363,80.537-69.941l17.085-33.955l17.896,29.873c9.766,16.309,21.963,29.209,26.03,29.209
		c4.883-0.684,14.644-11.543,22.778-24.453c8.955-13.574,18.721-24.443,21.963-24.443c3.252,0,12.207,11.553,18.711,25.811
		c26.836,55.01,49.619,96.436,54.512,96.436c2.441,0,11.387-10.879,19.512-23.779c17.1-25.801,79.727-78.105,94.375-78.105
		c5.703,0,7.314,14.961,4.063,42.783c-6.494,57.061,4.873,75.391,50.449,78.096c42.295,2.734,88.662-16.27,141.543-57.715
		l39.873-31.221v55c0,62.48,16.25,102.539,53.682,131.074c59.365,44.824,94.375,51.611,110.635,22.412
		c9.756-16.973,8.145-23.77-15.459-92.363c-7.314-21.748,16.27-12.891,54.512,20.371c52.871,46.172,65.068,79.453,65.068,179.961
		v81.514l44.746-40.752c39.863-37.354,104.13-70.635,115.517-60.449c2.441,2.061-8.945,20.381-25.225,40.752
		c-43.115,54.336-85.41,133.105-95.166,178.613c-9.775,42.119-4.902,101.875,8.955,113.418c10.557,8.838,50.43-22.412,69.941-57.051
		c20.341-35.303,30.107-27.158,23.603,19.688c-8.945,64.541-26.835,107.324-90.312,208.506
		c-45.547,74.033-60.176,103.916-60.176,124.961c0,14.941,3.232,27.178,7.305,27.178c11.396,0,78.105-63.164,99.238-93.73
		c10.596-15.605,24.414-29.883,30.927-31.914c21.143-6.787,1.621,52.295-38.232,112.07c-63.447,96.436-81.348,130.371-90.303,172.49
		c-23.584,108.662,10.566,160.273,85.42,130.4c15.439-6.113,30.098-10.869,32.529-10.869c5.713,0-19.512,31.24-70.771,88.281
		c-25.215,27.842-50.42,57.734-55.322,66.567c-19.512,31.235-33.34,80.127-33.34,120.884c0,84.224-41.494,152.129-109.814,178.608
		c-51.25,19.697-71.592,14.277-43.125-11.533c53.682-47.539,64.258-105.278,26.846-139.233
		c-17.1-14.937-28.477-18.345-57.773-18.345c-61.816,0-104.922,21.753-194.414,98.477c-90.313,77.427-116.328,91.694-170.029,91.694
		c-45.547,0-65.078-6.108-111.445-35.308l-36.611-23.784l-24.399,16.309C1568.818,1676.362,1499.678,1686.543,1440.298,1660.732z
		 M1830.771,1450.205c45.557-18.345,108.193-74.702,108.193-97.793c0-20.371-39.873-57.734-61.836-57.734
		c-26.016,0-129.336,28.516-163.496,44.829c-43.94,21.05-65.093,20.381-122.036-2.715c-26.035-10.874-69.956-25.132-97.617-31.929
		c-59.38-14.268-92.744-7.461-108.198,23.086c-13.828,28.53-2.432,50.933,41.489,85.586c60.205,46.851,73.218,49.575,231.035,50.254
		C1779.512,1463.789,1800.664,1461.748,1830.771,1450.205z"/>
</g>
</svg>
