<?xml version="1.0" encoding="utf-8"?>
<!-- Generator: Adobe Illustrator 16.0.0, SVG Export Plug-In . SVG Version: 6.00 Build 0)  -->
<!DOCTYPE svg PUBLIC "-//W3C//DTD SVG 1.1//EN" "http://www.w3.org/Graphics/SVG/1.1/DTD/svg11.dtd">
<svg version="1.1" id="Calque_1" xmlns="http://www.w3.org/2000/svg" xmlns:xlink="http://www.w3.org/1999/xlink" x="0px" y="0px"
	 width="552.235px" height="385.305px" viewBox="21.523 228.292 552.235 385.305"
	 enable-background="new 21.523 228.292 552.235 385.305" xml:space="preserve">
<g>
	<path fill="#1F1F1F" d="M291.604,483.15c0,35.959-13.124,66.404-39.371,92.127c-25.459,25.459-55.905,38.32-90.814,38.32
		c-43.045,0-77.428-16.01-102.888-47.77c-24.672-29.396-37.008-65.617-37.008-108.662c0-79.266,66.93-155.381,200.789-228.873
		l19.16,29.921c-45.407,37.533-68.242,67.717-68.242,90.814c0,7.087,9.711,14.436,28.609,21.522
		c28.871,10.236,48.294,20.21,58.53,29.922C281.105,418.058,291.604,445.617,291.604,483.15z M573.758,483.15
		c0,35.959-12.074,66.404-35.959,92.127c-25.459,25.459-56.168,38.32-92.127,38.32c-43.045,0-77.428-16.01-102.888-47.77
		c-25.459-29.396-38.32-65.617-38.32-108.662c0-79.003,66.93-155.119,200.789-228.348l21.522,29.922
		c-46.72,37.008-70.079,67.192-70.079,90.289c0,7.087,10.236,14.436,30.971,21.522c27.822,10.236,46.982,20.21,57.481,29.922
		C564.309,418.058,573.758,445.617,573.758,483.15z"/>
</g>
</svg>
