<?xml version="1.0" encoding="utf-8"?>
<!-- Generator: Adobe Illustrator 16.0.0, SVG Export Plug-In . SVG Version: 6.00 Build 0)  -->
<!DOCTYPE svg PUBLIC "-//W3C//DTD SVG 1.1//EN" "http://www.w3.org/Graphics/SVG/1.1/DTD/svg11.dtd">
<svg version="1.1" id="Calque_1" xmlns="http://www.w3.org/2000/svg" xmlns:xlink="http://www.w3.org/1999/xlink" x="0px" y="0px"
	 width="552.235px" height="385.305px" viewBox="21.523 228.292 552.235 385.305"
	 enable-background="new 21.523 228.292 552.235 385.305" xml:space="preserve">
<g>
	<path fill="#1F1F1F" d="M303.677,358.74c0-35.959,13.124-66.404,39.371-92.127c25.459-25.459,55.905-38.32,90.814-38.32
		c43.045,0,77.428,16.01,102.888,47.77c24.672,29.396,37.008,65.617,37.008,108.662c0,79.266-66.93,155.381-200.789,228.873
		l-19.16-29.922c45.407-37.533,68.242-67.717,68.242-90.814c0-7.086-9.711-14.436-28.609-21.521
		c-28.871-10.236-48.294-20.211-58.53-29.922C314.176,423.832,303.677,396.273,303.677,358.74z M21.523,358.74
		c0-35.959,12.074-66.404,35.959-92.127c25.459-25.459,56.168-38.32,92.127-38.32c43.045,0,77.428,16.01,102.888,47.77
		c25.459,29.396,38.32,65.617,38.32,108.662c0,79.003-66.93,155.119-200.789,228.348L68.505,583.15
		c46.72-37.008,70.079-67.191,70.079-90.289c0-7.086-10.236-14.436-30.971-21.521c-27.822-10.236-46.982-20.211-57.481-29.922
		C30.972,423.832,21.523,396.273,21.523,358.74z"/>
</g>
</svg>
