<?xml version="1.0" encoding="utf-8"?>
<!-- Generator: Adobe Illustrator 16.0.0, SVG Export Plug-In . SVG Version: 6.00 Build 0)  -->
<!DOCTYPE svg PUBLIC "-//W3C//DTD SVG 1.1//EN" "http://www.w3.org/Graphics/SVG/1.1/DTD/svg11.dtd">
<svg version="1.1" id="Calque_1" xmlns="http://www.w3.org/2000/svg" xmlns:xlink="http://www.w3.org/1999/xlink" x="0px" y="0px"
	 width="135px" height="253.891px" viewBox="0 0 135 253.891" enable-background="new 0 0 135 253.891" xml:space="preserve">
<path fill="#010202" stroke="#000000" stroke-miterlimit="10" d="M67.5,0.5c-37,0-67,30-67,67c0,11.42,2.86,22.17,7.9,31.58
	L67.5,252.5l59.1-153.42c5.04-9.41,7.9-20.16,7.9-31.58C134.5,30.5,104.5,0.5,67.5,0.5z M67.5,24.5c23.75,0,43,19.25,43,43
	s-19.25,43-43,43s-43-19.25-43-43S43.75,24.5,67.5,24.5z"/>
<circle fill="#FFFFFF" stroke="#000000" stroke-miterlimit="10" cx="67.5" cy="67.5" r="43"/>
<circle fill="none" stroke="#000000" stroke-miterlimit="10" cx="67.5" cy="67.5" r="43"/>
<circle fill="#3A3A3A" cx="67.5" cy="40.833" r="6"/>
<g>
	<g>
		<path fill="#3A3A3A" d="M67.5,56c3.224,0,3.224-5,0-5S64.276,56,67.5,56L67.5,56z"/>
	</g>
</g>
<g>
	<g>
		<path fill="#3A3A3A" d="M68.762,51.341c-11.095-5.004-15.751,9.744-17.672,17.828c-0.745,3.135,4.076,4.465,4.821,1.329
			c0.953-4.009,3.902-17.737,10.328-14.839C69.152,56.973,71.697,52.665,68.762,51.341L68.762,51.341z"/>
	</g>
</g>
<g>
	<g>
		<path fill="#3A3A3A" d="M65.5,55.333c3.088-0.014,7.09-0.722,9.164,2.121c2.737,3.752,4.186,9.82,4.336,14.379
			c0.105,3.216,5.106,3.226,5,0c-0.191-5.821-2.03-12.807-5.507-17.572c-3.108-4.26-8.266-3.949-12.993-3.928
			C62.276,50.348,62.275,55.348,65.5,55.333L65.5,55.333z"/>
	</g>
</g>
<g>
	<g>
		<path fill="#3A3A3A" d="M64.423,52.831c1.581,8.47-1.431,17.011-0.095,25.517c0.355,2.263,1.918,3.891,3.759,5.066
			c4.663,2.977,5.458,8.018,6.335,13.083c0.549,3.173,5.367,1.824,4.822-1.329c-0.7-4.042-1.426-7.727-3.586-11.264
			c-1.534-2.512-3.661-3.578-5.834-5.35c-2.51-2.047-0.624-10.881-0.359-13.688c0.426-4.509,0.613-8.896-0.221-13.365
			C68.653,48.335,63.834,49.68,64.423,52.831L64.423,52.831z"/>
	</g>
</g>
<g>
	<g>
		<path fill="#3A3A3A" d="M64.341,77.572c-3.525,5.985-9.062,11.118-8.675,18.595c0.166,3.208,5.167,3.224,5,0
			c-0.326-6.307,5.009-11.007,7.992-16.071C70.299,77.311,65.976,74.796,64.341,77.572L64.341,77.572z"/>
	</g>
</g>
</svg>
