<?xml version="1.0" encoding="utf-8"?>
<!-- Generator: Adobe Illustrator 16.0.0, SVG Export Plug-In . SVG Version: 6.00 Build 0)  -->
<!DOCTYPE svg PUBLIC "-//W3C//DTD SVG 1.1//EN" "http://www.w3.org/Graphics/SVG/1.1/DTD/svg11.dtd">
<svg version="1.1" id="Calque_1" xmlns="http://www.w3.org/2000/svg" xmlns:xlink="http://www.w3.org/1999/xlink" x="0px" y="0px"
	 width="135px" height="253.891px" viewBox="0 0 135 253.891" enable-background="new 0 0 135 253.891" xml:space="preserve">
<path fill="#424F9D" stroke="#000000" stroke-miterlimit="10" d="M67.5,0.5c-37,0-67,30-67,67c0,11.42,2.86,22.17,7.9,31.58
	L67.5,252.5l59.1-153.42c5.04-9.41,7.9-20.16,7.9-31.58C134.5,30.5,104.5,0.5,67.5,0.5z M67.5,24.5c23.75,0,43,19.25,43,43
	s-19.25,43-43,43s-43-19.25-43-43S43.75,24.5,67.5,24.5z"/>
<circle fill="#FFFFFF" stroke="#000000" stroke-miterlimit="10" cx="67.5" cy="67.5" r="43"/>
<circle fill="none" stroke="#000000" stroke-miterlimit="10" cx="67.5" cy="67.5" r="43"/>
<g>
	<polygon fill="#010202" stroke="#010202" stroke-width="0.4597" stroke-miterlimit="10" points="63.44,68.692 62.062,94.58 
		45.203,94.58 50.996,68.692 	"/>
	<polygon fill="#010202" stroke="#010202" stroke-width="0.4597" stroke-miterlimit="10" points="65.05,38.419 64.001,58.105 
		53.377,58.045 57.768,38.419 	"/>
	<polygon fill="#010202" stroke="#010202" stroke-width="0.4597" stroke-miterlimit="10" points="81.447,58.045 70.971,58.045 
		69.95,38.419 77.002,38.419 	"/>
	<polygon fill="#010202" stroke="#010202" stroke-width="0.4597" stroke-miterlimit="10" points="89.719,94.58 72.865,94.58 
		71.522,68.692 83.857,68.692 	"/>
	
		<line fill="none" stroke="#010202" stroke-width="0.4597" stroke-miterlimit="10" x1="83.23" y1="65.925" x2="51.612" y2="65.925"/>
	<polygon fill="#010202" stroke="#010202" stroke-width="0.4597" stroke-miterlimit="10" points="96.922,60.868 96.922,65.925 
		92.477,65.925 92.477,72.439 87.576,72.439 85.967,65.925 49.111,65.925 47.042,72.439 42.445,72.439 42.445,65.925 38.078,65.925 
		38.078,60.946 52.733,60.928 63.854,60.914 71.118,60.9 82.092,60.886 	"/>
</g>
</svg>
