<?xml version="1.0" encoding="utf-8"?>
<!-- Generator: Adobe Illustrator 16.0.0, SVG Export Plug-In . SVG Version: 6.00 Build 0)  -->
<!DOCTYPE svg PUBLIC "-//W3C//DTD SVG 1.1//EN" "http://www.w3.org/Graphics/SVG/1.1/DTD/svg11.dtd">
<svg version="1.1" id="Calque_1" xmlns="http://www.w3.org/2000/svg" xmlns:xlink="http://www.w3.org/1999/xlink" x="0px" y="0px"
	 width="135px" height="253.891px" viewBox="0 0 135 253.891" enable-background="new 0 0 135 253.891" xml:space="preserve">
<path fill="#876C91" stroke="#000000" stroke-miterlimit="10" d="M67.5,0.5c-37,0-67,30-67,67c0,11.42,2.86,22.17,7.9,31.58
	L67.5,252.5l59.1-153.42c5.04-9.41,7.9-20.16,7.9-31.58C134.5,30.5,104.5,0.5,67.5,0.5z M67.5,24.5c23.75,0,43,19.25,43,43
	s-19.25,43-43,43s-43-19.25-43-43S43.75,24.5,67.5,24.5z"/>
<circle fill="#FFFFFF" stroke="#000000" stroke-miterlimit="10" cx="67.5" cy="67.5" r="43"/>
<circle fill="none" stroke="#000000" stroke-miterlimit="10" cx="67.5" cy="67.5" r="43"/>
<g id="Calque_1_1_">
	<g id="XMLID_1_">
		<g>
			<path fill="#010202" d="M99.272,72.527c0.021,0,0.042,0.002,0.064,0.002c-0.021,0.05-0.035,0.098-0.051,0.152
				c-0.14,0.513-0.286,1.022-0.454,1.527c-0.087,0.263-0.182,0.521-0.265,0.693c-0.044,0.097-0.095,0.191-0.148,0.28
				c-0.032,0.008-0.063,0.011-0.094,0.018c-0.662,1.09-1.566,1.991-2.624,2.774c-5.32,3.935-11.836,6.41-18.325,7.491
				c-7.301,1.218-14.976,1.751-22.355,1.11c-3.531-0.306-7.422-0.618-10.78-1.818c-1.11-0.399-2.156-0.955-3.018-1.687
				c-0.175-0.29-0.378-0.561-0.61-0.833c-0.394-0.464-0.667-0.69-0.906-1.234c-0.062-0.139-0.152-0.252-0.264-0.345
				c-0.145-0.352-0.255-0.729-0.332-1.128c-0.518-2.729,0.852-5.418,2.459-7.53c1.401-1.841,3.183-3.943,5.464-4.723
				c-0.124-0.71-0.144-1.426-0.036-2.119c0.459-2.959,2.993-4.906,5.302-6.508c0.024-0.015,0.047-0.028,0.07-0.043
				c-0.53-2.138,0.272-4.597,1.62-6.374c1.354-1.782,3.322-3.489,4.02-5.673c0.834-2.624-0.012-4.914-1.538-7.093
				c-0.834-1.192,1.11-2.701,2.024-1.56c2.722,3.404,7.594,3.839,11.352,5.54c2.413,1.091,4.615,2.709,6.776,4.22
				c2.215,1.551,4.51,3.008,6.688,4.605c2.306,1.686,4.785,3.85,5.522,6.742c0.2,0.793,0.274,1.591,0.238,2.374
				c3.804,0.255,7.345,3.108,9.069,6.428C98.879,69.225,99.425,70.905,99.272,72.527z M95.085,75.159
				c2.107-2.047,1.917-4.589,0.299-6.928c-1.447-2.093-4.082-4.465-6.835-4.344c-0.422,1.098-1.083,2.112-1.97,2.97
				c-4.353,4.212-10.772,6.155-16.562,7.37c-3.682,0.773-7.535,1.281-11.297,0.86c-2.838-0.32-6.129-0.824-8.49-2.563
				c-0.951-0.7-1.773-1.692-2.359-2.81c-2.411,0.822-4.438,3.734-5.517,5.833c-1.251,2.434-0.958,5.071,1.674,6.35
				c1.514,0.737,3.278,1.007,4.924,1.303c1.857,0.333,3.721,0.595,5.601,0.757c7.425,0.646,15.23,0.286,22.567-1.05
				c3.615-0.66,7.218-1.628,10.535-3.243C90.125,78.463,93.093,77.096,95.085,75.159z M86.414,62.169
				c0.645-3.154-1.737-5.725-4.102-7.458c-3.021-2.209-6.165-4.329-9.287-6.396c-1.529-1.015-3.093-2.11-4.811-2.787
				c-1.352-0.533-2.74-0.963-4.116-1.434c-1.1-0.378-2.214-0.786-3.275-1.286c0.128,0.66,0.183,1.33,0.128,2.004
				c-0.177,2.205-1.03,4.103-2.385,5.835c-1.179,1.515-2.701,2.917-3.471,4.705c-0.44,1.018-0.59,2.668,0.234,3.577
				c1.545,1.695,4.576,1.309,6.598,0.977c2.253-0.374,4.429-1.022,6.644-1.558c1.614-0.391,2.3,2.094,0.685,2.482
				c-2.462,0.598-4.88,1.324-7.398,1.669c-2.599,0.352-5.828,0.522-7.939-1.348c-0.108-0.092-0.206-0.193-0.304-0.293
				c-0.005,0.006-0.01,0.011-0.018,0.015c-1.501,1.041-3.548,2.405-3.992,4.316c-0.412,1.78,0.557,3.995,1.958,5.127
				c1.03,0.835,2.349,1.242,3.626,1.52c1.779,0.388,3.51,0.75,5.34,0.796c3.886,0.098,7.726-0.526,11.471-1.53
				c2.901-0.777,5.774-1.647,8.434-3.069C82.805,66.769,85.83,65.033,86.414,62.169z"/>
			<path fill="#B1804A" d="M95.384,68.231c1.618,2.339,1.809,4.881-0.299,6.928c-1.992,1.937-4.96,3.304-7.43,4.507
				c-3.317,1.614-6.92,2.583-10.535,3.242c-7.336,1.336-15.142,1.697-22.567,1.05c-1.88-0.162-3.744-0.424-5.601-0.756
				c-1.646-0.296-3.41-0.567-4.924-1.303c-2.631-1.281-2.925-3.917-1.674-6.351c1.079-2.099,3.106-5.012,5.517-5.833
				c0.586,1.118,1.408,2.11,2.359,2.81c2.361,1.738,5.652,2.243,8.49,2.563c3.762,0.42,7.615-0.087,11.297-0.86
				c5.789-1.215,12.209-3.157,16.562-7.37c0.887-0.858,1.548-1.873,1.97-2.969C91.302,63.766,93.937,66.137,95.384,68.231z"/>
			<path fill="#B1804A" d="M82.313,54.711c2.364,1.733,4.746,4.304,4.102,7.458c-0.584,2.864-3.609,4.6-5.979,5.864
				c-2.659,1.422-5.531,2.292-8.433,3.069c-3.745,1.004-7.584,1.628-11.47,1.53c-1.831-0.046-3.562-0.408-5.342-0.796
				c-1.277-0.278-2.596-0.685-3.625-1.52c-1.401-1.133-2.369-3.348-1.958-5.127c0.444-1.911,2.491-3.276,3.992-4.316
				c0.008-0.004,0.013-0.009,0.019-0.015c0.098,0.101,0.195,0.201,0.304,0.293c2.111,1.87,5.34,1.7,7.939,1.348
				c2.519-0.345,4.937-1.072,7.399-1.669c1.614-0.388,0.929-2.874-0.686-2.482c-2.214,0.536-4.391,1.185-6.644,1.558
				c-2.021,0.332-5.052,0.719-6.598-0.977c-0.824-0.908-0.675-2.559-0.234-3.577c0.77-1.788,2.292-3.19,3.471-4.705
				c1.354-1.733,2.208-3.631,2.385-5.835c0.055-0.674,0-1.344-0.128-2.004c1.061,0.5,2.176,0.907,3.275,1.286
				c1.375,0.471,2.764,0.901,4.116,1.434c1.718,0.677,3.281,1.772,4.812,2.787C76.147,50.382,79.292,52.501,82.313,54.711z"/>
		</g>
	</g>
</g>
</svg>
