<?xml version="1.0" encoding="utf-8"?>
<!-- Generator: Adobe Illustrator 16.0.0, SVG Export Plug-In . SVG Version: 6.00 Build 0)  -->
<!DOCTYPE svg PUBLIC "-//W3C//DTD SVG 1.1//EN" "http://www.w3.org/Graphics/SVG/1.1/DTD/svg11.dtd">
<svg version="1.1" id="Calque_1" xmlns="http://www.w3.org/2000/svg" xmlns:xlink="http://www.w3.org/1999/xlink" x="0px" y="0px"
	 width="57.688px" height="108.492px" viewBox="0 0 57.688 108.492" enable-background="new 0 0 57.688 108.492"
	 xml:space="preserve">
<path fill="#EE7577" stroke="#000000" stroke-width="0.4273" stroke-miterlimit="10" d="M28.844,0.214
	c-15.811,0-28.63,12.819-28.63,28.63c0,4.88,1.222,9.474,3.376,13.494l25.254,65.559l25.254-65.559
	c2.154-4.021,3.376-8.614,3.376-13.494C57.474,13.033,44.654,0.214,28.844,0.214z M28.844,10.469
	c10.148,0,18.375,8.226,18.375,18.375c0,10.149-8.226,18.374-18.375,18.374s-18.375-8.226-18.375-18.374
	C10.469,18.696,18.695,10.469,28.844,10.469z"/>
<circle fill="#FFFFFF" stroke="#000000" stroke-width="0.4273" stroke-miterlimit="10" cx="28.844" cy="28.844" r="18.375"/>
<circle fill="none" stroke="#000000" stroke-width="0.4273" stroke-miterlimit="10" cx="28.844" cy="28.844" r="18.375"/>
<g id="Calque_1_1_">
	<g id="XMLID_1_">
		<g>
			<path fill="#010202" d="M40.797,30.434c0.008,0,0.016,0,0.024,0c-0.008,0.019-0.014,0.037-0.02,0.057
				c-0.053,0.191-0.107,0.381-0.17,0.57c-0.032,0.098-0.068,0.194-0.099,0.259c-0.017,0.036-0.035,0.071-0.056,0.104
				c-0.012,0.002-0.022,0.004-0.034,0.006c-0.248,0.408-0.585,0.744-0.98,1.036c-1.985,1.468-4.419,2.394-6.841,2.797
				c-2.727,0.455-5.592,0.654-8.348,0.415c-1.318-0.115-2.771-0.231-4.024-0.679c-0.415-0.149-0.805-0.356-1.126-0.63
				c-0.065-0.108-0.142-0.208-0.228-0.311c-0.147-0.174-0.249-0.258-0.338-0.46c-0.023-0.052-0.057-0.095-0.099-0.129
				c-0.054-0.132-0.095-0.272-0.123-0.421c-0.193-1.019,0.318-2.023,0.918-2.812c0.523-0.688,1.189-1.472,2.041-1.763
				c-0.046-0.265-0.054-0.533-0.014-0.792c0.171-1.104,1.117-1.832,1.979-2.43c0.01-0.006,0.018-0.011,0.026-0.016
				c-0.198-0.798,0.102-1.717,0.604-2.38c0.506-0.665,1.241-1.303,1.501-2.118c0.313-0.98-0.004-1.835-0.574-2.647
				c-0.312-0.446,0.414-1.009,0.756-0.583c1.017,1.271,2.835,1.433,4.238,2.068c0.9,0.408,1.724,1.012,2.53,1.576
				c0.827,0.579,1.684,1.123,2.497,1.719c0.86,0.63,1.786,1.438,2.062,2.517c0.075,0.296,0.103,0.594,0.088,0.887
				c1.421,0.095,2.743,1.16,3.387,2.399C40.651,29.201,40.854,29.828,40.797,30.434z M39.234,31.416
				c0.787-0.764,0.716-1.713,0.111-2.586c-0.541-0.782-1.523-1.667-2.552-1.622c-0.157,0.41-0.405,0.789-0.736,1.109
				c-1.625,1.574-4.021,2.298-6.183,2.752c-1.375,0.288-2.814,0.478-4.219,0.321c-1.06-0.12-2.289-0.308-3.17-0.957
				c-0.355-0.261-0.662-0.632-0.881-1.049c-0.9,0.307-1.657,1.394-2.06,2.178c-0.467,0.909-0.357,1.893,0.625,2.371
				c0.564,0.276,1.223,0.376,1.838,0.487c0.693,0.124,1.388,0.222,2.091,0.283c2.772,0.241,5.686,0.106,8.426-0.393
				c1.35-0.246,2.695-0.607,3.934-1.21C37.382,32.65,38.49,32.139,39.234,31.416z M35.996,26.566
				c0.241-1.178-0.649-2.138-1.532-2.784c-1.128-0.825-2.302-1.616-3.467-2.388c-0.571-0.379-1.155-0.788-1.796-1.041
				c-0.505-0.199-1.023-0.359-1.537-0.536c-0.411-0.141-0.827-0.293-1.222-0.479c0.048,0.247,0.068,0.496,0.048,0.748
				c-0.066,0.823-0.385,1.532-0.89,2.179c-0.44,0.565-1.009,1.089-1.296,1.757c-0.165,0.379-0.221,0.996,0.087,1.335
				c0.577,0.633,1.708,0.489,2.463,0.365c0.841-0.14,1.654-0.382,2.48-0.582c0.604-0.146,0.858,0.782,0.256,0.927
				c-0.918,0.223-1.821,0.494-2.762,0.623c-0.97,0.132-2.176,0.194-2.965-0.503c-0.04-0.034-0.076-0.072-0.113-0.11
				c-0.002,0.002-0.004,0.004-0.007,0.006c-0.56,0.388-1.324,0.898-1.49,1.611c-0.154,0.665,0.208,1.492,0.73,1.915
				c0.384,0.312,0.877,0.464,1.354,0.567c0.665,0.145,1.311,0.28,1.994,0.297c1.451,0.036,2.885-0.197,4.283-0.572
				c1.082-0.29,2.155-0.615,3.148-1.146C34.648,28.283,35.779,27.635,35.996,26.566z"/>
			<path fill="#B1804A" d="M39.345,28.83c0.604,0.873,0.676,1.823-0.111,2.586c-0.743,0.723-1.851,1.234-2.773,1.683
				c-1.238,0.604-2.584,0.964-3.934,1.21c-2.74,0.5-5.654,0.634-8.426,0.393c-0.702-0.061-1.398-0.159-2.091-0.283
				c-0.615-0.11-1.273-0.211-1.838-0.486c-0.982-0.478-1.092-1.462-0.625-2.371c0.403-0.784,1.159-1.871,2.06-2.178
				c0.219,0.417,0.525,0.788,0.881,1.049c0.881,0.648,2.111,0.837,3.17,0.957c1.404,0.157,2.843-0.033,4.218-0.321
				c2.161-0.454,4.559-1.179,6.184-2.752c0.331-0.32,0.577-0.699,0.735-1.108C37.822,27.163,38.804,28.048,39.345,28.83z"/>
			<path fill="#B1804A" d="M34.464,23.782c0.883,0.647,1.772,1.606,1.532,2.784c-0.218,1.069-1.348,1.717-2.232,2.189
				c-0.993,0.531-2.065,0.856-3.148,1.146c-1.398,0.375-2.833,0.608-4.283,0.572c-0.683-0.017-1.33-0.152-1.994-0.297
				c-0.477-0.104-0.969-0.256-1.354-0.567c-0.523-0.423-0.884-1.25-0.731-1.915c0.166-0.713,0.931-1.223,1.49-1.611
				c0.002-0.002,0.004-0.003,0.006-0.006c0.038,0.038,0.073,0.075,0.114,0.11c0.789,0.698,1.995,0.634,2.965,0.503
				c0.94-0.129,1.843-0.4,2.762-0.623c0.603-0.145,0.347-1.073-0.256-0.927c-0.827,0.2-1.639,0.442-2.48,0.582
				c-0.755,0.123-1.887,0.268-2.463-0.365c-0.309-0.34-0.252-0.956-0.087-1.335c0.287-0.668,0.855-1.192,1.296-1.757
				c0.505-0.647,0.824-1.356,0.891-2.179c0.021-0.252,0-0.501-0.048-0.748c0.396,0.187,0.813,0.338,1.222,0.479
				c0.514,0.176,1.033,0.336,1.537,0.536c0.642,0.252,1.225,0.661,1.796,1.041C32.162,22.166,33.336,22.957,34.464,23.782z"/>
		</g>
	</g>
</g>
</svg>
