<?xml version="1.0" encoding="utf-8"?>
<!-- Generator: Adobe Illustrator 16.0.0, SVG Export Plug-In . SVG Version: 6.00 Build 0)  -->
<!DOCTYPE svg PUBLIC "-//W3C//DTD SVG 1.1//EN" "http://www.w3.org/Graphics/SVG/1.1/DTD/svg11.dtd">
<svg version="1.1" id="Calque_1" xmlns="http://www.w3.org/2000/svg" xmlns:xlink="http://www.w3.org/1999/xlink" x="0px" y="0px"
	 width="135px" height="253.891px" viewBox="0 0 135 253.891" enable-background="new 0 0 135 253.891" xml:space="preserve">
<path fill="#EE7577" stroke="#000000" stroke-miterlimit="10" d="M67.5,0.5c-37,0-67,30-67,67c0,11.42,2.86,22.17,7.9,31.58
	L67.5,252.5l59.1-153.42c5.04-9.41,7.9-20.16,7.9-31.58C134.5,30.5,104.5,0.5,67.5,0.5z M67.5,24.5c23.75,0,43,19.25,43,43
	s-19.25,43-43,43s-43-19.25-43-43S43.75,24.5,67.5,24.5z"/>
<circle fill="#FFFFFF" stroke="#000000" stroke-miterlimit="10" cx="67.5" cy="67.5" r="43"/>
<circle fill="none" stroke="#000000" stroke-miterlimit="10" cx="67.5" cy="67.5" r="43"/>
<g id="Calque_1_1_">
	<g id="XMLID_1_">
		<g>
			<path fill="#010202" d="M109.146,75.922c0.028,0,0.056,0.002,0.086,0.002c-0.027,0.066-0.047,0.13-0.067,0.202
				c-0.186,0.681-0.381,1.357-0.604,2.027c-0.115,0.35-0.241,0.691-0.352,0.921c-0.059,0.129-0.126,0.253-0.197,0.373
				c-0.043,0.011-0.083,0.014-0.124,0.023c-0.88,1.447-2.08,2.644-3.484,3.683c-7.065,5.226-15.718,8.513-24.335,9.948
				c-9.696,1.618-19.887,2.326-29.688,1.474c-4.689-0.407-9.856-0.82-14.315-2.414c-1.474-0.53-2.863-1.269-4.008-2.24
				c-0.232-0.386-0.503-0.745-0.81-1.107c-0.523-0.616-0.886-0.917-1.204-1.639c-0.082-0.185-0.202-0.335-0.35-0.458
				c-0.191-0.468-0.338-0.967-0.441-1.498c-0.687-3.625,1.132-7.195,3.266-10c1.86-2.445,4.227-5.236,7.257-6.272
				c-0.164-0.943-0.191-1.894-0.048-2.813c0.609-3.929,3.974-6.515,7.041-8.643c0.031-0.02,0.062-0.037,0.093-0.058
				c-0.705-2.839,0.362-6.104,2.151-8.464c1.798-2.367,4.412-4.634,5.338-7.534c1.108-3.484-0.016-6.525-2.042-9.418
				c-1.108-1.583,1.474-3.587,2.688-2.072c3.615,4.521,10.085,5.098,15.075,7.356c3.204,1.45,6.128,3.598,8.998,5.604
				c2.941,2.059,5.988,3.995,8.881,6.115c3.062,2.239,6.354,5.112,7.333,8.953c0.267,1.053,0.364,2.113,0.316,3.153
				c5.052,0.338,9.754,4.127,12.044,8.536C108.623,71.538,109.348,73.768,109.146,75.922z M103.585,79.417
				c2.798-2.718,2.546-6.094,0.396-9.2c-1.922-2.779-5.421-5.929-9.076-5.769c-0.561,1.458-1.438,2.805-2.616,3.944
				c-5.779,5.594-14.305,8.173-21.993,9.787c-4.89,1.027-10.006,1.701-15.002,1.143c-3.77-0.425-8.139-1.095-11.275-3.403
				c-1.263-0.93-2.354-2.247-3.133-3.731c-3.201,1.091-5.893,4.959-7.325,7.746c-1.662,3.232-1.272,6.734,2.223,8.433
				c2.011,0.979,4.354,1.338,6.539,1.731c2.466,0.442,4.941,0.79,7.438,1.005c9.86,0.858,20.226,0.38,29.968-1.395
				c4.801-0.877,9.585-2.162,13.99-4.306C96.998,83.805,100.938,81.989,103.585,79.417z M92.07,62.167
				c0.855-4.189-2.308-7.602-5.447-9.904c-4.011-2.935-8.187-5.749-12.332-8.494c-2.03-1.348-4.107-2.801-6.388-3.701
				c-1.795-0.708-3.639-1.279-5.465-1.905c-1.46-0.502-2.94-1.043-4.349-1.707c0.17,0.876,0.243,1.765,0.17,2.661
				c-0.235,2.928-1.368,5.448-3.167,7.749c-1.566,2.011-3.587,3.875-4.61,6.248c-0.585,1.351-0.783,3.543,0.311,4.75
				c2.052,2.251,6.077,1.738,8.762,1.296c2.992-0.496,5.882-1.357,8.823-2.069c2.144-0.52,3.054,2.781,0.91,3.296
				c-3.269,0.793-6.48,1.758-9.825,2.217c-3.451,0.468-7.739,0.694-10.543-1.79c-0.144-0.122-0.274-0.256-0.404-0.39
				c-0.007,0.008-0.014,0.014-0.024,0.021c-1.994,1.382-4.712,3.194-5.301,5.732c-0.547,2.363,0.74,5.304,2.6,6.809
				c1.367,1.109,3.119,1.649,4.815,2.018c2.363,0.516,4.661,0.995,7.092,1.057c5.161,0.129,10.26-0.699,15.232-2.032
				c3.854-1.032,7.668-2.188,11.199-4.076C87.276,68.275,91.295,65.97,92.07,62.167z"/>
			<path fill="#B1804A" d="M103.981,70.217c2.149,3.106,2.401,6.482-0.396,9.2c-2.646,2.572-6.587,4.388-9.866,5.985
				c-4.405,2.144-9.189,3.43-13.99,4.305c-9.743,1.775-20.108,2.253-29.968,1.395c-2.497-0.215-4.972-0.563-7.438-1.004
				c-2.185-0.394-4.528-0.753-6.539-1.73c-3.495-1.701-3.884-5.202-2.223-8.434c1.433-2.787,4.125-6.655,7.325-7.746
				c0.779,1.484,1.871,2.801,3.133,3.731c3.136,2.309,7.505,2.979,11.275,3.403c4.996,0.558,10.112-0.116,15.002-1.143
				c7.688-1.613,16.213-4.192,21.993-9.787c1.178-1.139,2.056-2.486,2.616-3.942C98.561,64.288,102.06,67.437,103.981,70.217z"/>
			<path fill="#B1804A" d="M86.623,52.264c3.14,2.302,6.303,5.715,5.447,9.904c-0.775,3.803-4.794,6.108-7.94,7.787
				c-3.532,1.888-7.346,3.044-11.199,4.076c-4.973,1.333-10.072,2.162-15.231,2.032c-2.432-0.062-4.73-0.542-7.093-1.057
				c-1.696-0.369-3.447-0.909-4.815-2.018c-1.86-1.504-3.146-4.445-2.6-6.809c0.589-2.538,3.309-4.35,5.301-5.732
				c0.011-0.006,0.018-0.013,0.025-0.021c0.129,0.134,0.26,0.268,0.404,0.39c2.803,2.483,7.092,2.257,10.543,1.79
				c3.345-0.458,6.556-1.423,9.825-2.217c2.144-0.516,1.234-3.816-0.91-3.296c-2.941,0.712-5.831,1.573-8.823,2.069
				c-2.685,0.441-6.709,0.955-8.761-1.296c-1.095-1.207-0.896-3.399-0.311-4.75c1.022-2.374,3.043-4.237,4.609-6.248
				c1.798-2.302,2.932-4.821,3.167-7.749c0.072-0.896,0-1.785-0.171-2.661c1.409,0.664,2.89,1.205,4.349,1.707
				c1.827,0.625,3.671,1.197,5.466,1.905c2.281,0.899,4.357,2.353,6.389,3.701C78.437,46.515,82.612,49.329,86.623,52.264z"/>
		</g>
	</g>
</g>
</svg>
