<?xml version="1.0" encoding="utf-8"?>
<!-- Generator: Adobe Illustrator 16.0.0, SVG Export Plug-In . SVG Version: 6.00 Build 0)  -->
<!DOCTYPE svg PUBLIC "-//W3C//DTD SVG 1.1//EN" "http://www.w3.org/Graphics/SVG/1.1/DTD/svg11.dtd">
<svg version="1.1" id="Calque_1" xmlns="http://www.w3.org/2000/svg" xmlns:xlink="http://www.w3.org/1999/xlink" x="0px" y="0px"
	 width="298.278px" height="418.074px" viewBox="0 0 298.278 418.074" enable-background="new 0 0 298.278 418.074"
	 xml:space="preserve">
<g>
	<g>
		<g>
			<path fill="none" stroke="#000000" stroke-width="1.7117" stroke-miterlimit="10" d="M130.311,249.936
				c-53.73-10.819-104.75-68.04-129.23-172.06h65.11c0.93,5.56,1.89,10.99,2.86,16.28H28.44c16.43,69.82,47.51,113.74,82.43,132
				C117.17,236.766,123.69,244.696,130.311,249.936z"/>
			<path fill="none" stroke="#000000" stroke-width="1.7117" stroke-miterlimit="10" d="M297.2,77.876
				c-23.81,102.46-73.96,159.85-127.19,171.64c6.69-5.399,13.26-13.59,19.581-24.51c34.159-18.939,64.34-62.63,80.189-130.85h-39.3
				c0.99-5.29,1.93-10.72,2.84-16.28H297.2z"/>
		</g>
		<g>
			<path fill="#FFD700" d="M130.311,249.936c-53.73-10.819-104.75-68.04-129.23-172.06h65.11c0.93,5.56,1.89,10.99,2.86,16.28H28.44
				c16.43,69.82,47.51,113.74,82.43,132C117.17,236.766,123.69,244.696,130.311,249.936z"/>
			<path fill="#FFD700" d="M297.2,77.876c-23.81,102.46-73.96,159.85-127.19,171.64c6.69-5.399,13.26-13.59,19.581-24.51
				c34.159-18.939,64.34-62.63,80.189-130.85h-39.3c0.99-5.29,1.93-10.72,2.84-16.28H297.2z"/>
		</g>
		<g>
			<path fill="none" stroke="#F39200" d="M130.311,249.936c-53.73-10.819-104.75-68.04-129.23-172.06h65.11
				c0.93,5.56,1.89,10.99,2.86,16.28H28.44c16.43,69.82,47.51,113.74,82.43,132C117.17,236.766,123.69,244.696,130.311,249.936z"/>
			<path fill="none" stroke="#F39200" d="M297.2,77.876c-23.81,102.46-73.96,159.85-127.19,171.64
				c6.69-5.399,13.26-13.59,19.581-24.51c34.159-18.939,64.34-62.63,80.189-130.85h-39.3c0.99-5.29,1.93-10.72,2.84-16.28H297.2z"/>
		</g>
	</g>
	<g>
		<g>
			<path fill="none" stroke="#000000" stroke-width="1.7117" stroke-miterlimit="10" d="M243.521,0.856
				c-2.89,27.95-6.31,53.62-10.2,77.02c-0.91,5.56-1.85,10.99-2.84,16.28c-11.04,60.32-25.25,103.93-40.89,130.85
				c-6.32,10.92-12.891,19.11-19.581,24.51c-3.79,3.09-7.62,5.29-11.45,6.61c-5.71,1.94-11.44,1.97-17.12,0.05
				c-3.73-1.25-7.45-3.34-11.13-6.24c-6.62-5.239-13.14-13.17-19.44-23.779c-15.95-26.82-30.49-70.83-41.82-132
				c-0.97-5.29-1.93-10.72-2.86-16.28c-3.93-23.4-7.39-49.07-10.33-77.02H243.521z"/>
		</g>
		<g>
			<path fill="#FFD700" d="M243.521,0.856c-2.89,27.95-6.31,53.62-10.2,77.02c-0.91,5.56-1.85,10.99-2.84,16.28
				c-11.04,60.32-25.25,103.93-40.89,130.85c-6.32,10.92-12.891,19.11-19.581,24.51c-3.79,3.09-7.62,5.29-11.45,6.61
				c-5.71,1.94-11.44,1.97-17.12,0.05c-3.73-1.25-7.45-3.34-11.13-6.24c-6.62-5.239-13.14-13.17-19.44-23.779
				c-15.95-26.82-30.49-70.83-41.82-132c-0.97-5.29-1.93-10.72-2.86-16.28c-3.93-23.4-7.39-49.07-10.33-77.02H243.521z"/>
		</g>
		<g>
			<path fill="none" stroke="#F39200" d="M243.521,0.856c-2.89,27.95-6.31,53.62-10.2,77.02c-0.91,5.56-1.85,10.99-2.84,16.28
				c-11.04,60.32-25.25,103.93-40.89,130.85c-6.32,10.92-12.891,19.11-19.581,24.51c-3.79,3.09-7.62,5.29-11.45,6.61
				c-5.71,1.94-11.44,1.97-17.12,0.05c-3.73-1.25-7.45-3.34-11.13-6.24c-6.62-5.239-13.14-13.17-19.44-23.779
				c-15.95-26.82-30.49-70.83-41.82-132c-0.97-5.29-1.93-10.72-2.86-16.28c-3.93-23.4-7.39-49.07-10.33-77.02H243.521z"/>
		</g>
	</g>
	<g>
		<g>
			<path fill="none" stroke="#000000" stroke-width="1.7117" stroke-miterlimit="10" d="M225.293,348.112H74.701
				c0.052-2.756,1.251-5.255,3.167-7.053c1.986-1.865,4.69-3.012,7.703-3.012c49.073-0.29,55.868-34.233,55.868-34.233v-47.636
				c5.683,1.917,11.417,1.883,17.117-0.052v47.688c0,0,6.795,33.943,55.868,34.233C220.362,338.048,225.19,342.532,225.293,348.112z
				"/>
			<path fill="none" stroke="#000000" stroke-width="1.7117" stroke-miterlimit="10" d="M85.57,338.048c-0.205,0-0.41,0-0.616,0"/>
			
				<line fill="none" stroke="#000000" stroke-width="1.7117" stroke-miterlimit="10" x1="141.438" y1="256.179" x2="141.438" y2="255.889"/>
		</g>
		<g>
			<path fill="#FFD700" d="M225.293,348.112H74.701c0.052-2.756,1.251-5.255,3.167-7.053c1.986-1.865,4.69-3.012,7.703-3.012
				c49.073-0.29,55.868-34.233,55.868-34.233v-47.636c5.683,1.917,11.417,1.883,17.117-0.052v47.688c0,0,6.795,33.943,55.868,34.233
				C220.362,338.048,225.19,342.532,225.293,348.112z"/>
			<path fill="#FFD700" d="M85.57,338.048c-0.205,0-0.41,0-0.616,0"/>
			<line fill="#FFD700" x1="141.438" y1="256.179" x2="141.438" y2="255.889"/>
		</g>
		<g>
			<path fill="none" stroke="#F39200" d="M225.293,348.112H74.701c0.052-2.756,1.251-5.255,3.167-7.053
				c1.986-1.865,4.69-3.012,7.703-3.012c49.073-0.29,55.868-34.233,55.868-34.233v-47.636c5.683,1.917,11.417,1.883,17.117-0.052
				v47.688c0,0,6.795,33.943,55.868,34.233C220.362,338.048,225.19,342.532,225.293,348.112z"/>
			<path fill="none" stroke="#F39200" d="M85.57,338.048c-0.205,0-0.41,0-0.616,0"/>
			<line fill="none" stroke="#F39200" x1="141.438" y1="256.179" x2="141.438" y2="255.889"/>
		</g>
	</g>
	
		<rect x="65.701" y="348.116" fill="#683C11" stroke="#432918" stroke-width="1.9758" stroke-miterlimit="10" width="167.89" height="68.97"/>
</g>
<g>
	<polygon fill="#FFD700" stroke="#F39200" stroke-width="1.148" points="160.209,40.281 160.209,150.348 139.827,150.348 
		139.827,81.889 126.238,81.889 139.827,40.281 	"/>
	<g transform="translate(91.881 -228.75)">
		<g transform="matrix(-1 0 0 1 755.44 -.88158)">
			<g>
				<path fill="#010202" stroke="#0E7E35" stroke-width="0.2447" d="M692.614,402.262c-7.79-5.364-14.257-0.654-20.178,4.672
					C680.081,409.01,688.177,409.954,692.614,402.262z"/>
				<path fill="#010202" stroke="#0E7E35" stroke-width="0.2447" d="M690.741,397.646c-0.346-9.452-7.983-11.829-15.791-13.402
					C677.845,391.618,681.923,398.676,690.741,397.646z"/>
				<path fill="#010202" stroke="#0E7E35" stroke-width="0.2447" d="M678.722,398.003c-7.308-6.002-14.149-1.856-20.501,2.95
					C665.664,403.669,673.652,405.292,678.722,398.003z"/>
				<path fill="#010202" stroke="#0E7E35" stroke-width="0.2447" d="M671.946,393.522c4.554-8.29-0.782-14.25-6.676-19.608
					C663.971,381.729,663.848,389.88,671.946,393.522z"/>
				<path fill="#010202" stroke="#0E7E35" stroke-width="0.2447" d="M666.03,393.337c-5.374-7.781-13.095-5.674-20.522-2.798
					C651.919,395.196,659.152,398.951,666.03,393.337z"/>
				<path fill="#010202" stroke="#0E7E35" stroke-width="0.2447" d="M658.437,386.397c6.957-6.406,3.797-13.756-0.082-20.712
					C654.633,372.679,651.921,380.365,658.437,386.397L658.437,386.397z"/>
				<path fill="#010202" stroke="#0E7E35" stroke-width="0.2447" d="M654.742,385.615c-3.801-8.662-11.778-8.062-19.616-6.651
					C640.531,384.755,646.921,389.819,654.742,385.615z"/>
				<path fill="#010202" stroke="#0E7E35" stroke-width="0.2447" d="M648.403,377.241c8.024-5.005,6.282-12.813,3.76-20.369
					C647.21,363.056,643.118,370.105,648.403,377.241z"/>
				<path fill="#010202" stroke="#0E7E35" stroke-width="0.2447" d="M645.602,376.07c-2.094-9.223-10.041-10.143-18.005-10.24
					C631.812,372.538,637.127,378.718,645.602,376.07z"/>
				<path fill="#010202" stroke="#0E7E35" stroke-width="0.2447" d="M643.216,362.516c8.547-4.053,7.711-12.01,6.069-19.803
					C643.658,348.288,638.784,354.822,643.216,362.516z"/>
				<path fill="#010202" stroke="#0E7E35" stroke-width="0.2447" d="M641.793,365.154c-0.981-9.407-8.765-11.264-16.66-12.306
					C628.519,360.01,633.063,366.776,641.793,365.154z"/>
				<path fill="#010202" stroke="#0E7E35" stroke-width="0.2447" d="M639.626,347.097c9.234-2.041,10.198-9.983,10.34-17.946
					C643.234,333.328,637.024,338.608,639.626,347.097z"/>
				<path fill="#010202" stroke="#0E7E35" stroke-width="0.2447" d="M637.819,354.034c2.671-9.073-3.817-13.752-10.724-17.722
					C627.504,344.224,629.128,352.211,637.819,354.034z"/>
				<path fill="#010202" stroke="#0E7E35" stroke-width="0.2447" d="M643.258,329.277c9.445,0.473,12.475-6.932,14.718-14.574
					C650.38,316.95,642.994,320.401,643.258,329.277z"/>
				<path fill="#010202" stroke="#0E7E35" stroke-width="0.2447" d="M637.175,339.457c5.679-7.564,1.234-14.218-3.846-20.351
					C630.943,326.66,629.673,334.71,637.175,339.457z"/>
				<path fill="#010202" stroke="#0E7E35" stroke-width="0.2447" d="M647.389,315.82c9.442-0.545,11.658-8.232,13.066-16.071
					C653.145,302.801,646.174,307.025,647.389,315.82z"/>
				<path fill="#010202" stroke="#0E7E35" stroke-width="0.2447" d="M641.364,323.981c7.093-6.254,4.095-13.671,0.365-20.709
					C637.857,310.184,634.98,317.809,641.364,323.981z"/>
			</g>
			<g>
				<path fill="#FFD700" d="M692.614,402.262c-7.79-5.364-14.257-0.654-20.178,4.672
					C680.081,409.01,688.177,409.954,692.614,402.262z"/>
				<path fill="#FFD700" d="M690.741,397.646c-0.346-9.452-7.983-11.829-15.791-13.402
					C677.845,391.618,681.923,398.676,690.741,397.646z"/>
				<path fill="#FFD700" d="M678.722,398.003c-7.308-6.002-14.149-1.856-20.501,2.95
					C665.664,403.669,673.652,405.292,678.722,398.003z"/>
				<path fill="#FFD700" d="M671.946,393.522c4.554-8.29-0.782-14.25-6.676-19.608C663.971,381.729,663.848,389.88,671.946,393.522z
					"/>
				<path fill="#FFD700" d="M666.03,393.337c-5.374-7.781-13.095-5.674-20.522-2.798
					C651.919,395.196,659.152,398.951,666.03,393.337z"/>
				<path fill="#FFD700" d="M658.437,386.397c6.957-6.406,3.797-13.756-0.082-20.712
					C654.633,372.679,651.921,380.365,658.437,386.397L658.437,386.397z"/>
				<path fill="#FFD700" d="M654.742,385.615c-3.801-8.662-11.778-8.062-19.616-6.651
					C640.531,384.755,646.921,389.819,654.742,385.615z"/>
				<path fill="#FFD700" d="M648.403,377.241c8.024-5.005,6.282-12.813,3.76-20.369C647.21,363.056,643.118,370.105,648.403,377.241
					z"/>
				<path fill="#FFD700" d="M645.602,376.07c-2.094-9.223-10.041-10.143-18.005-10.24
					C631.812,372.538,637.127,378.718,645.602,376.07z"/>
				<path fill="#FFD700" d="M643.216,362.516c8.547-4.053,7.711-12.01,6.069-19.803
					C643.658,348.288,638.784,354.822,643.216,362.516z"/>
				<path fill="#FFD700" d="M641.793,365.154c-0.981-9.407-8.765-11.264-16.66-12.306
					C628.519,360.01,633.063,366.776,641.793,365.154z"/>
				<path fill="#FFD700" d="M639.626,347.097c9.234-2.041,10.198-9.983,10.34-17.946
					C643.234,333.328,637.024,338.608,639.626,347.097z"/>
				<path fill="#FFD700" d="M637.819,354.034c2.671-9.073-3.817-13.752-10.724-17.722
					C627.504,344.224,629.128,352.211,637.819,354.034z"/>
				<path fill="#FFD700" d="M643.258,329.277c9.445,0.473,12.475-6.932,14.718-14.574
					C650.38,316.95,642.994,320.401,643.258,329.277z"/>
				<path fill="#FFD700" d="M637.175,339.457c5.679-7.564,1.234-14.218-3.846-20.351C630.943,326.66,629.673,334.71,637.175,339.457
					z"/>
				<path fill="#FFD700" d="M647.389,315.82c9.442-0.545,11.658-8.232,13.066-16.071
					C653.145,302.801,646.174,307.025,647.389,315.82z"/>
				<path fill="#FFD700" d="M641.364,323.981c7.093-6.254,4.095-13.671,0.365-20.709
					C637.857,310.184,634.98,317.809,641.364,323.981z"/>
			</g>
			<g>
				<path fill="none" stroke="#F39200" stroke-width="1.148" d="M692.614,402.262c-7.79-5.364-14.257-0.654-20.178,4.672
					C680.081,409.01,688.177,409.954,692.614,402.262z"/>
				<path fill="none" stroke="#F39200" stroke-width="1.148" d="M690.741,397.646c-0.346-9.452-7.983-11.829-15.791-13.402
					C677.845,391.618,681.923,398.676,690.741,397.646z"/>
				<path fill="none" stroke="#F39200" stroke-width="1.148" d="M678.722,398.003c-7.308-6.002-14.149-1.856-20.501,2.95
					C665.664,403.669,673.652,405.292,678.722,398.003z"/>
				<path fill="none" stroke="#F39200" stroke-width="1.148" d="M671.946,393.522c4.554-8.29-0.782-14.25-6.676-19.608
					C663.971,381.729,663.848,389.88,671.946,393.522z"/>
				<path fill="none" stroke="#F39200" stroke-width="1.148" d="M666.03,393.337c-5.374-7.781-13.095-5.674-20.522-2.798
					C651.919,395.196,659.152,398.951,666.03,393.337z"/>
				<path fill="none" stroke="#F39200" stroke-width="1.148" d="M658.437,386.397c6.957-6.406,3.797-13.756-0.082-20.712
					C654.633,372.679,651.921,380.365,658.437,386.397L658.437,386.397z"/>
				<path fill="none" stroke="#F39200" stroke-width="1.148" d="M654.742,385.615c-3.801-8.662-11.778-8.062-19.616-6.651
					C640.531,384.755,646.921,389.819,654.742,385.615z"/>
				<path fill="none" stroke="#F39200" stroke-width="1.148" d="M648.403,377.241c8.024-5.005,6.282-12.813,3.76-20.369
					C647.21,363.056,643.118,370.105,648.403,377.241z"/>
				<path fill="none" stroke="#F39200" stroke-width="1.148" d="M645.602,376.07c-2.094-9.223-10.041-10.143-18.005-10.24
					C631.812,372.538,637.127,378.718,645.602,376.07z"/>
				<path fill="none" stroke="#F39200" stroke-width="1.148" d="M643.216,362.516c8.547-4.053,7.711-12.01,6.069-19.803
					C643.658,348.288,638.784,354.822,643.216,362.516z"/>
				<path fill="none" stroke="#F39200" stroke-width="1.148" d="M641.793,365.154c-0.981-9.407-8.765-11.264-16.66-12.306
					C628.519,360.01,633.063,366.776,641.793,365.154z"/>
				<path fill="none" stroke="#F39200" stroke-width="1.148" d="M639.626,347.097c9.234-2.041,10.198-9.983,10.34-17.946
					C643.234,333.328,637.024,338.608,639.626,347.097z"/>
				<path fill="none" stroke="#F39200" stroke-width="1.148" d="M637.819,354.034c2.671-9.073-3.817-13.752-10.724-17.722
					C627.504,344.224,629.128,352.211,637.819,354.034z"/>
				<path fill="none" stroke="#F39200" stroke-width="1.148" d="M643.258,329.277c9.445,0.473,12.475-6.932,14.718-14.574
					C650.38,316.95,642.994,320.401,643.258,329.277z"/>
				<path fill="none" stroke="#F39200" stroke-width="1.148" d="M637.175,339.457c5.679-7.564,1.234-14.218-3.846-20.351
					C630.943,326.66,629.673,334.71,637.175,339.457z"/>
				<path fill="none" stroke="#F39200" stroke-width="1.148" d="M647.389,315.82c9.442-0.545,11.658-8.232,13.066-16.071
					C653.145,302.801,646.174,307.025,647.389,315.82z"/>
				<path fill="none" stroke="#F39200" stroke-width="1.148" d="M641.364,323.981c7.093-6.254,4.095-13.671,0.365-20.709
					C637.857,310.184,634.98,317.809,641.364,323.981z"/>
			</g>
		</g>
		<g>
			<g>
				<path fill="#010202" stroke="#0E7E35" stroke-width="0.2447" d="M53.334,401.518c-7.79-5.365-14.257-0.654-20.178,4.672
					C40.8,408.266,48.896,409.208,53.334,401.518z"/>
				<path fill="#010202" stroke="#0E7E35" stroke-width="0.2447" d="M51.462,396.9c-0.348-9.451-7.985-11.829-15.792-13.401
					C38.565,390.873,42.641,397.931,51.462,396.9z"/>
				<path fill="#010202" stroke="#0E7E35" stroke-width="0.2447" d="M39.442,397.258c-7.308-6.002-14.15-1.856-20.501,2.951
					C26.383,402.924,34.371,404.547,39.442,397.258z"/>
				<path fill="#010202" stroke="#0E7E35" stroke-width="0.2447" d="M32.664,392.777c4.554-8.289-0.781-14.25-6.675-19.608
					C24.691,380.984,24.568,389.134,32.664,392.777z"/>
				<path fill="#010202" stroke="#0E7E35" stroke-width="0.2447" d="M26.749,392.592c-5.377-7.781-13.095-5.675-20.521-2.798
					C12.637,394.451,19.871,398.207,26.749,392.592z"/>
				<path fill="#010202" stroke="#0E7E35" stroke-width="0.2447" d="M19.156,385.652c6.958-6.405,3.798-13.756-0.082-20.713
					C15.354,371.934,12.64,379.62,19.156,385.652L19.156,385.652z"/>
				<path fill="#010202" stroke="#0E7E35" stroke-width="0.2447" d="M15.46,384.87c-3.799-8.662-11.776-8.061-19.616-6.651
					C1.25,384.01,7.639,389.073,15.46,384.87z"/>
				<path fill="#010202" stroke="#0E7E35" stroke-width="0.2447" d="M9.121,376.496c8.025-5.005,6.285-12.813,3.761-20.368
					C7.93,362.311,3.837,369.36,9.121,376.496z"/>
				<path fill="#010202" stroke="#0E7E35" stroke-width="0.2447" d="M6.319,375.325c-2.091-9.224-10.038-10.143-18.002-10.241
					C-7.47,371.793-2.154,377.973,6.319,375.325z"/>
				<path fill="#010202" stroke="#0E7E35" stroke-width="0.2447" d="M3.936,361.771c8.545-4.053,7.709-12.009,6.069-19.803
					C4.377,347.543-0.496,354.077,3.936,361.771z"/>
				<path fill="#010202" stroke="#0E7E35" stroke-width="0.2447" d="M2.513,364.409c-0.982-9.406-8.765-11.264-16.662-12.306
					C-10.761,359.264-6.219,366.031,2.513,364.409z"/>
				<path fill="#010202" stroke="#0E7E35" stroke-width="0.2447" d="M0.345,346.352c9.233-2.041,10.198-9.983,10.339-17.946
					C3.953,332.583-2.256,337.863,0.345,346.352z"/>
				<path fill="#010202" stroke="#0E7E35" stroke-width="0.2447" d="M-1.463,353.289c2.673-9.072-3.816-13.751-10.722-17.721
					C-11.778,343.479-10.154,351.466-1.463,353.289z"/>
				<path fill="#010202" stroke="#0E7E35" stroke-width="0.2447" d="M3.977,328.532c9.447,0.473,12.476-6.932,14.717-14.574
					C11.099,316.206,3.712,319.656,3.977,328.532z"/>
				<path fill="#010202" stroke="#0E7E35" stroke-width="0.2447" d="M-2.105,338.711c5.677-7.564,1.234-14.217-3.847-20.351
					C-8.338,325.915-9.609,333.965-2.105,338.711z"/>
				<path fill="#010202" stroke="#0E7E35" stroke-width="0.2447" d="M8.109,315.075c9.442-0.545,11.658-8.232,13.066-16.071
					C13.864,302.056,6.894,306.28,8.109,315.075z"/>
				<path fill="#010202" stroke="#0E7E35" stroke-width="0.2447" d="M2.082,323.236c7.094-6.254,4.094-13.671,0.365-20.709
					C-1.422,309.439-4.301,317.064,2.082,323.236z"/>
			</g>
			<g>
				<path fill="#FFD700" d="M53.334,401.518c-7.79-5.365-14.257-0.654-20.178,4.672C40.8,408.266,48.896,409.208,53.334,401.518z"/>
				<path fill="#FFD700" d="M51.462,396.9c-0.348-9.451-7.985-11.829-15.792-13.401C38.565,390.873,42.641,397.931,51.462,396.9z"/>
				<path fill="#FFD700" d="M39.442,397.258c-7.308-6.002-14.15-1.856-20.501,2.951C26.383,402.924,34.371,404.547,39.442,397.258z"
					/>
				<path fill="#FFD700" d="M32.664,392.777c4.554-8.289-0.781-14.25-6.675-19.608C24.691,380.984,24.568,389.134,32.664,392.777z"
					/>
				<path fill="#FFD700" d="M26.749,392.592c-5.377-7.781-13.095-5.675-20.521-2.798C12.637,394.451,19.871,398.207,26.749,392.592z
					"/>
				<path fill="#FFD700" d="M19.156,385.652c6.958-6.405,3.798-13.756-0.082-20.713C15.354,371.934,12.64,379.62,19.156,385.652
					L19.156,385.652z"/>
				<path fill="#FFD700" d="M15.46,384.87c-3.799-8.662-11.776-8.061-19.616-6.651C1.25,384.01,7.639,389.073,15.46,384.87z"/>
				<path fill="#FFD700" d="M9.121,376.496c8.025-5.005,6.285-12.813,3.761-20.368C7.93,362.311,3.837,369.36,9.121,376.496z"/>
				<path fill="#FFD700" d="M6.319,375.325c-2.091-9.224-10.038-10.143-18.002-10.241C-7.47,371.793-2.154,377.973,6.319,375.325z"
					/>
				<path fill="#FFD700" d="M3.936,361.771c8.545-4.053,7.709-12.009,6.069-19.803C4.377,347.543-0.496,354.077,3.936,361.771z"/>
				<path fill="#FFD700" d="M2.513,364.409c-0.982-9.406-8.765-11.264-16.662-12.306C-10.761,359.264-6.219,366.031,2.513,364.409z"
					/>
				<path fill="#FFD700" d="M0.345,346.352c9.233-2.041,10.198-9.983,10.339-17.946C3.953,332.583-2.256,337.863,0.345,346.352z"/>
				<path fill="#FFD700" d="M-1.463,353.289c2.673-9.072-3.816-13.751-10.722-17.721C-11.778,343.479-10.154,351.466-1.463,353.289z
					"/>
				<path fill="#FFD700" d="M3.977,328.532c9.447,0.473,12.476-6.932,14.717-14.574C11.099,316.206,3.712,319.656,3.977,328.532z"/>
				<path fill="#FFD700" d="M-2.105,338.711c5.677-7.564,1.234-14.217-3.847-20.351C-8.338,325.915-9.609,333.965-2.105,338.711z"/>
				<path fill="#FFD700" d="M8.109,315.075c9.442-0.545,11.658-8.232,13.066-16.071C13.864,302.056,6.894,306.28,8.109,315.075z"/>
				<path fill="#FFD700" d="M2.082,323.236c7.094-6.254,4.094-13.671,0.365-20.709C-1.422,309.439-4.301,317.064,2.082,323.236z"/>
			</g>
			<g>
				<path fill="none" stroke="#F39200" stroke-width="1.148" d="M53.334,401.518c-7.79-5.365-14.257-0.654-20.178,4.672
					C40.8,408.266,48.896,409.208,53.334,401.518z"/>
				<path fill="none" stroke="#F39200" stroke-width="1.148" d="M51.462,396.9c-0.348-9.451-7.985-11.829-15.792-13.401
					C38.565,390.873,42.641,397.931,51.462,396.9z"/>
				<path fill="none" stroke="#F39200" stroke-width="1.148" d="M39.442,397.258c-7.308-6.002-14.15-1.856-20.501,2.951
					C26.383,402.924,34.371,404.547,39.442,397.258z"/>
				<path fill="none" stroke="#F39200" stroke-width="1.148" d="M32.664,392.777c4.554-8.289-0.781-14.25-6.675-19.608
					C24.691,380.984,24.568,389.134,32.664,392.777z"/>
				<path fill="none" stroke="#F39200" stroke-width="1.148" d="M26.749,392.592c-5.377-7.781-13.095-5.675-20.521-2.798
					C12.637,394.451,19.871,398.207,26.749,392.592z"/>
				<path fill="none" stroke="#F39200" stroke-width="1.148" d="M19.156,385.652c6.958-6.405,3.798-13.756-0.082-20.713
					C15.354,371.934,12.64,379.62,19.156,385.652L19.156,385.652z"/>
				<path fill="none" stroke="#F39200" stroke-width="1.148" d="M15.46,384.87c-3.799-8.662-11.776-8.061-19.616-6.651
					C1.25,384.01,7.639,389.073,15.46,384.87z"/>
				<path fill="none" stroke="#F39200" stroke-width="1.148" d="M9.121,376.496c8.025-5.005,6.285-12.813,3.761-20.368
					C7.93,362.311,3.837,369.36,9.121,376.496z"/>
				<path fill="none" stroke="#F39200" stroke-width="1.148" d="M6.319,375.325c-2.091-9.224-10.038-10.143-18.002-10.241
					C-7.47,371.793-2.154,377.973,6.319,375.325z"/>
				<path fill="none" stroke="#F39200" stroke-width="1.148" d="M3.936,361.771c8.545-4.053,7.709-12.009,6.069-19.803
					C4.377,347.543-0.496,354.077,3.936,361.771z"/>
				<path fill="none" stroke="#F39200" stroke-width="1.148" d="M2.513,364.409c-0.982-9.406-8.765-11.264-16.662-12.306
					C-10.761,359.264-6.219,366.031,2.513,364.409z"/>
				<path fill="none" stroke="#F39200" stroke-width="1.148" d="M0.345,346.352c9.233-2.041,10.198-9.983,10.339-17.946
					C3.953,332.583-2.256,337.863,0.345,346.352z"/>
				<path fill="none" stroke="#F39200" stroke-width="1.148" d="M-1.463,353.289c2.673-9.072-3.816-13.751-10.722-17.721
					C-11.778,343.479-10.154,351.466-1.463,353.289z"/>
				<path fill="none" stroke="#F39200" stroke-width="1.148" d="M3.977,328.532c9.447,0.473,12.476-6.932,14.717-14.574
					C11.099,316.206,3.712,319.656,3.977,328.532z"/>
				<path fill="none" stroke="#F39200" stroke-width="1.148" d="M-2.105,338.711c5.677-7.564,1.234-14.217-3.847-20.351
					C-8.338,325.915-9.609,333.965-2.105,338.711z"/>
				<path fill="none" stroke="#F39200" stroke-width="1.148" d="M8.109,315.075c9.442-0.545,11.658-8.232,13.066-16.071
					C13.864,302.056,6.894,306.28,8.109,315.075z"/>
				<path fill="none" stroke="#F39200" stroke-width="1.148" d="M2.082,323.236c7.094-6.254,4.094-13.671,0.365-20.709
					C-1.422,309.439-4.301,317.064,2.082,323.236z"/>
			</g>
		</g>
		<path fill="#FFD700" stroke="#F39200" stroke-width="1.148" d="M60.793,399.611c0,1.513-1.227,2.739-2.739,2.739
			c-1.514,0-2.74-1.227-2.74-2.739c0-1.513,1.227-2.74,2.74-2.74C59.566,396.871,60.793,398.098,60.793,399.611L60.793,399.611z"/>
	</g>
</g>
<rect x="90.501" y="358.935" fill="#FFD700" stroke="#F39200" stroke-width="2.3088" stroke-miterlimit="10" width="118.29" height="47.333"/>
<path fill="none" stroke="#F39200" stroke-width="2.3088" stroke-miterlimit="10" d="M100.23,383.086
	c4.128-4.864,13.863,1.469,18.651,2.683c6.58,1.668,9.991-2.278,15.481-3.219c4.455-0.764,5.081,2.156,8.484,2.734
	c4.064,0.69,5.617-0.97,9.417-1.383c7.387-0.804,11.893,3.228,18.547-2.611c0.877,6.823,24.143,2.003,28.752,2.463"/>
<path fill="none" stroke="#F39200" stroke-width="2.3088" stroke-miterlimit="10" d="M99.564,395.753
	c2.674-0.571,5.232-0.408,8-0.667c0.908-0.085,3.882-0.678,4.519-0.517c0.595,0.151,3.596,1.836,3.466,1.828
	c4.876,0.296,13.733-1.075,20.682-0.793c5.75,0.233,12.11,0.203,17.738,0.814c6.838,0.743,12.154,1.687,14.28-7.812
	c-0.271,3.243,1.49,5.591,2.083,8.378c2.016,0.211,4.083-1.422,5.184-1.282c2.564,0.324,5.219,1.682,7.367,1.917
	c4.878,0.534,9.708-0.518,14.683-0.534"/>
<path fill="none" stroke="#F39200" stroke-width="2.3088" stroke-miterlimit="10" d="M101.564,369.753c3.911,0,8.117-0.468,12,0
	c5.246,0.632,6.192,3.293,9.886,4.563c1.524-7.255,9.43-3.385,14.079-3.331c6.546,0.074,12.343-2.068,19.22-1.934
	c12.309,0.24,26.114,6.226,38.148,1.367"/>
</svg>
