<?xml version="1.0" encoding="utf-8"?>
<!-- Generator: Adobe Illustrator 16.0.0, SVG Export Plug-In . SVG Version: 6.00 Build 0)  -->
<!DOCTYPE svg PUBLIC "-//W3C//DTD SVG 1.1//EN" "http://www.w3.org/Graphics/SVG/1.1/DTD/svg11.dtd">
<svg version="1.1" id="Calque_1" xmlns="http://www.w3.org/2000/svg" xmlns:xlink="http://www.w3.org/1999/xlink" x="0px" y="0px"
	 width="316.427px" height="274.042px" viewBox="0 0 316.427 274.042" enable-background="new 0 0 316.427 274.042"
	 xml:space="preserve">
<g id="XMLID_1_">
	<g>
		<path fill="#CA9E67" d="M152.729,233.3c21.33,0,38.62-12.85,38.62-28.7H114.12C114.12,220.45,131.399,233.3,152.729,233.3z
			 M161.2,244.11c-30.74,7.26-61.31,16.069-92.91,18.609c-19.16,1.561-53.2,4.141-57.77-20.79c-1.94-10.62,2.04-22.97,6.42-32.479
			c4.27-9.271,10.98-19.44,20.77-23.561c4.32,2.65,9.26,4.36,14.13,5.58c6.94,1.78,14.22,2.761,21.59,3.19
			c-0.93-3.45-1.84-6.88-2.77-10.32c-4.36-0.38-8.66-0.96-12.87-1.78c-5.08-0.97-10.46-2.399-14.91-5.199
			c-0.63-1.04-1.61-1.841-2.86-2.12c-0.53-0.471-1.04-0.95-1.53-1.48c-5.6-6.06-2.88-16.35-0.33-23.06
			c5.6-14.72,17.08-26.46,24.34-40.3c0.54,0.38,1.11,0.75,1.72,1.1c7.8,4.45,17.61,4.85,27.11,3.82c0.54-0.72,1.06-1.43,1.58-2.16
			c0.16-1.95,0.76-3.69,1.64-5.5c0.41-0.84,1.08-1.44,1.87-1.85c0.12-0.46,0.23-0.92,0.36-1.36c-6.99,1.14-14.21,1.65-21.06,0.46
			c-4.13-0.71-7.14-2.21-9.01-4.48c0.76-2.51-0.41-4.42-2.18-5.38c-0.2-1.79-0.05-3.82,0.46-6.08c3.1-13.71,13.49-24.83,20.5-36.64
			c7.76-13.07,9.34-27.06,5.69-41.58c20.53,4.45,40.95,13.15,59.72,22.34c8.791,4.31,17.51,9.25,24.84,15.8
			c4.76,4.26,11.3,11.6,10.109,18.67c-1.08,6.35-9,10.45-14.05,13.17c-8.12,4.4-16.97,7.43-25.74,10.26
			c-4.87,1.57-9.78,3.15-14.72,4.69c0.47,1.43,0.86,2.9,1.22,4.37c1.76,1.15,3.3,2.57,4.5,4.3c3.9-1.24,7.8-2.49,11.66-3.72
			c13.87-4.41,29.15-9.49,40.08-19.52c4.42-4.06,6.44-8.76,6.73-13.6c19.91,5.5,36.479,23.25,41.33,43.18
			c2.479,10.15,0.47,21.22-6.42,29.21c-1.271,1.47-2.631,2.82-4.04,4.14c0.51,4.08,0.619,8.22,0.6,12.36
			c6.85-5.16,12.64-11.301,16.36-18.61c19.62,8.83,37.729,29,39.18,50.979c0.29,4.37-0.19,8.351-1.28,11.961
			c-0.54,0.63-0.89,1.39-1.069,2.189c-1.631,1.04-2.33,3.04-2.101,4.92c-7.729,12.771-24.08,19.75-39,23.101
			c-11.3,2.529-22.87,3.6-34.37,4.819C190.049,237.31,175.54,240.71,161.2,244.11z"/>
		<path d="M42.109,123.63c4.67-7.02,10.2-14.16,13.54-22.04c-3.6-10.23,1.86-23.59,7.31-32.8c5.12-8.64,11.67-16.51,16.09-25.55
			c5.05-10.3,5.08-20.8,2-31.73c-0.8-2.83,0.77-4.92,2.88-5.77c0.01-2.92,2.49-6.11,6.27-5.38c19.33,3.71,38.05,11.6,56.01,19.56
			c14.47,6.43,30.7,14.03,41.05,26.46c2.79,3.35,5.09,7.09,6.561,10.97c0.71-0.18,1.51-0.19,2.38,0.01
			c25.899,6.03,49.34,31.22,51.479,58.09c0.37,4.65,0.011,8.98-0.93,13.03c23.72,10.96,47.91,38.37,46.13,65.32
			c-0.35,0.74-0.689,1.49-1.01,2.24c15.33,6.79,25.34,22.4,24.22,39.46c-1.24,19.08-14.1,33.95-33.29,36.62
			c-11.62,1.6-23.16,0.83-34.819,0.3c-12.7-0.58-25.051-1.05-37.601-3.38c-13.25-2.45-26.55-5.86-40.09-6.09
			c-14.82-0.26-29.6,1.17-44.42,1.229c-0.99,0-1.83-0.229-2.51-0.63c-0.68,0.4-1.51,0.63-2.49,0.63c-1.24,0-2.24-0.38-3-0.97
			c-0.18,0.05-0.35,0.09-0.52,0.14c-5.86,1.48-11.66,3.24-17.39,5.181c-0.01-0.011-0.03-0.021-0.04-0.03
			c-4.52,0.81-9.05,1.56-13.61,2.21c-20.95,2.91-46.09,6.14-66.23-2.5c-8.41-3.6-15.67-10.17-18.22-19.229
			c-2.55-9.07-1.83-18.811,0.45-27.881c3.97-15.729,12.74-33.909,27.47-42.39c-5.28-7.34-5.37-17.61-2.85-26
			C30.089,142.15,36.04,132.73,42.109,123.63z M288.54,209.44c-0.01,0.09-0.021,0.18-0.021,0.27c-0.989,1.95-2.13,3.88-3.479,5.79
			c-10.78,15.22-28.271,22.18-46.04,25.66c-20.07,3.93-40.46,4.92-60.49,9.26c-3.68,0.79-7.35,1.63-11.02,2.5
			c11.42,0.16,22.569,2,33.77,4.2c21.49,4.229,43.021,5.93,64.931,6.05c9.619,0.04,21-0.07,29.02-6.189
			c5.56-4.25,9.18-10.69,10.42-17.53c2.34-13-3.43-26.79-15.06-33.021C290.29,207.63,289.62,208.75,288.54,209.44z M175.74,48.89
			c-7.33-6.55-16.05-11.49-24.84-15.8c-18.77-9.19-39.19-17.89-59.72-22.34c3.65,14.52,2.07,28.51-5.69,41.58
			c-7.01,11.81-17.4,22.93-20.5,36.64c-0.51,2.26-0.66,4.29-0.46,6.08c1.77,0.96,2.94,2.87,2.18,5.38c1.87,2.27,4.88,3.77,9.01,4.48
			c6.85,1.19,14.07,0.68,21.06-0.46c-0.13,0.44-0.24,0.9-0.36,1.36c-0.79,0.41-1.46,1.01-1.87,1.85c-0.88,1.81-1.48,3.55-1.64,5.5
			c-0.52,0.73-1.04,1.44-1.58,2.16c-9.5,1.03-19.31,0.63-27.11-3.82c-0.61-0.35-1.18-0.72-1.72-1.1
			c-7.26,13.84-18.74,25.58-24.34,40.3c-2.55,6.71-5.27,17,0.33,23.06c0.49,0.53,1,1.01,1.53,1.48c1.25,0.279,2.23,1.08,2.86,2.12
			c4.45,2.8,9.83,4.229,14.91,5.199c4.21,0.82,8.51,1.4,12.87,1.78c0.93,3.44,1.84,6.87,2.77,10.32
			c-7.37-0.43-14.65-1.41-21.59-3.19c-4.87-1.22-9.81-2.93-14.13-5.58c-9.79,4.12-16.5,14.29-20.77,23.561
			c-4.38,9.51-8.36,21.859-6.42,32.479c4.57,24.931,38.61,22.351,57.77,20.79c31.6-2.54,62.17-11.35,92.91-18.609
			c14.34-3.4,28.85-6.801,43.52-8.351c11.5-1.22,23.07-2.29,34.37-4.819c14.92-3.351,31.271-10.33,39-23.101
			c1.33-2.2,2.4-4.55,3.17-7.109c1.09-3.61,1.57-7.591,1.28-11.961c-1.45-21.979-19.56-42.149-39.18-50.979
			c-3.721,7.31-9.511,13.45-16.36,18.61c0.02-4.141-0.09-8.28-0.6-12.36c1.409-1.32,2.77-2.67,4.04-4.14
			c6.89-7.99,8.899-19.06,6.42-29.21c-4.851-19.93-21.42-37.68-41.33-43.18c-0.29,4.84-2.311,9.54-6.73,13.6
			c-10.93,10.03-26.21,15.11-40.08,19.52c-3.86,1.23-7.76,2.48-11.66,3.72c-1.2-1.73-2.74-3.15-4.5-4.3
			c-0.36-1.47-0.75-2.94-1.22-4.37c4.94-1.54,9.85-3.12,14.72-4.69c8.77-2.83,17.62-5.86,25.74-10.26
			c5.05-2.72,12.97-6.82,14.05-13.17C187.04,60.49,180.5,53.15,175.74,48.89z"/>
		<path fill="#010202" d="M280.19,202.92c0.18-0.8,0.529-1.56,1.069-2.189c-0.77,2.56-1.84,4.909-3.17,7.109
			C277.86,205.96,278.559,203.96,280.19,202.92z"/>
		<path fill="#CA9E67" d="M178.509,250.42c20.03-4.34,40.42-5.33,60.49-9.26c17.77-3.48,35.26-10.44,46.04-25.66
			c1.35-1.91,2.49-3.84,3.479-5.79c0-0.09,0.011-0.18,0.021-0.27c1.08-0.69,1.75-1.811,2.03-3.011
			c11.63,6.23,17.399,20.021,15.06,33.021c-1.24,6.84-4.86,13.28-10.42,17.53c-8.02,6.119-19.4,6.229-29.02,6.189
			c-21.91-0.12-43.44-1.82-64.931-6.05c-11.2-2.2-22.35-4.04-33.77-4.2C171.16,252.05,174.83,251.21,178.509,250.42z"/>
		<path d="M152.729,233.3c-21.33,0-38.61-12.85-38.61-28.7h77.229C191.349,220.45,174.059,233.3,152.729,233.3z"/>
	</g>
	<g>
	</g>
</g>
<path fill="none" stroke="#000000" stroke-width="5" stroke-miterlimit="10" d="M96,166c6.155-7.487,11.165-12.067,21.052-13.052
	c12.114-1.206,13.836,2.584,18.948,12.052"/>
<path fill="none" stroke="#000000" stroke-width="5" stroke-miterlimit="10" d="M167.493,166
	c6.155-7.487,11.164-12.067,21.052-13.052c12.114-1.206,13.837,2.584,18.948,12.052"/>
<path fill="#5894CF" stroke="#2A5068" stroke-width="0.4913" stroke-miterlimit="10" d="M217.405,179.838
	c0-1.313-0.329-2.55-0.908-3.632L209.703,166l-6.793,10.206c-0.58,1.082-0.909,2.318-0.909,3.632c0,4.252,3.45,7.7,7.702,7.7
	C213.957,187.538,217.405,184.09,217.405,179.838z"/>
</svg>
