<?xml version="1.0" encoding="utf-8"?>
<!-- Generator: Adobe Illustrator 16.0.0, SVG Export Plug-In . SVG Version: 6.00 Build 0)  -->
<!DOCTYPE svg PUBLIC "-//W3C//DTD SVG 1.1//EN" "http://www.w3.org/Graphics/SVG/1.1/DTD/svg11.dtd">
<svg version="1.1" id="Calque_1" xmlns="http://www.w3.org/2000/svg" xmlns:xlink="http://www.w3.org/1999/xlink" x="0px" y="0px"
	 width="316.427px" height="274.042px" viewBox="0 0 316.427 274.042" enable-background="new 0 0 316.427 274.042"
	 xml:space="preserve">
<g id="XMLID_1_">
	<g>
		<path d="M291.873,196.045c15.33,6.78,25.34,22.39,24.22,39.45c-1.239,19.08-14.1,33.949-33.29,36.62
			c-11.62,1.609-23.16,0.829-34.819,0.3c-12.7-0.58-25.051-1.05-37.601-3.37c-13.25-2.46-26.55-5.87-40.09-6.101
			c-14.82-0.26-29.6,1.171-44.42,1.23c-0.99,0-1.83-0.23-2.51-0.62c-0.68,0.39-1.51,0.62-2.49,0.62c-1.24,0-2.24-0.37-3-0.96
			c-0.18,0.04-0.35,0.09-0.52,0.13c-5.86,1.48-11.66,3.24-17.39,5.18c-0.01-0.01-0.03-0.02-0.04-0.029
			c-4.52,0.819-9.05,1.569-13.61,2.21c-20.95,2.91-46.09,6.14-66.23-2.49c-8.41-3.61-15.67-10.18-18.22-19.23
			c-2.55-9.079-1.83-18.819,0.45-27.89c3.97-15.729,12.74-33.91,27.47-42.38c-5.28-7.35-5.37-17.62-2.85-26.01
			c3.16-10.56,9.11-19.98,15.18-29.08c4.67-7.02,10.2-14.16,13.54-22.04c-3.6-10.23,1.86-23.59,7.31-32.8
			c5.12-8.64,11.67-16.51,16.09-25.55c5.05-10.3,5.08-20.8,2-31.73c-0.8-2.83,0.77-4.92,2.88-5.77c0.01-2.92,2.49-6.11,6.27-5.38
			c19.33,3.71,38.05,11.6,56.01,19.56c14.47,6.43,30.7,14.03,41.05,26.46c2.79,3.35,5.09,7.09,6.56,10.97
			c0.71-0.18,1.51-0.19,2.38,0.01c25.9,6.03,49.34,31.22,51.479,58.09c0.37,4.65,0.011,8.98-0.93,13.03
			c23.72,10.96,47.91,38.37,46.13,65.33C292.533,194.545,292.193,195.295,291.873,196.045z M305.632,239.445
			c2.34-13-3.43-26.789-15.06-33.02c-0.28,1.21-0.95,2.32-2.03,3.01c-0.01,0.09-0.02,0.181-0.02,0.271
			c-0.99,1.95-2.131,3.88-3.48,5.79c-10.78,15.229-28.27,22.18-46.04,25.66c-20.07,3.93-40.46,4.92-60.49,9.26
			c-3.68,0.8-7.35,1.64-11.02,2.5c11.42,0.16,22.57,2,33.77,4.21c21.49,4.22,43.021,5.93,64.931,6.04c9.62,0.05,21-0.07,29.02-6.181
			C300.773,252.735,304.392,246.286,305.632,239.445z M281.262,200.735c1.091-3.609,1.57-7.59,1.28-11.97
			c-1.45-21.98-19.56-42.15-39.18-50.98c-3.721,7.31-9.51,13.45-16.36,18.61c0.021-4.14-0.09-8.27-0.6-12.35
			c1.41-1.32,2.77-2.68,4.04-4.15c6.89-7.99,8.899-19.06,6.42-29.21c-4.851-19.93-21.42-37.68-41.33-43.18
			c-0.29,4.84-2.311,9.54-6.73,13.6c-10.93,10.03-26.21,15.11-40.08,19.52c-3.86,1.23-7.76,2.48-11.66,3.72
			c-0.15-0.22-0.31-0.43-0.47-0.63c-1.12-1.45-2.49-2.66-4.03-3.67c-0.36-1.47-0.75-2.94-1.22-4.37c4.94-1.54,9.85-3.12,14.72-4.69
			c8.77-2.83,17.62-5.86,25.74-10.26c5.05-2.72,12.97-6.82,14.05-13.17c1.19-7.07-5.35-14.41-10.11-18.67
			c-7.33-6.55-16.05-11.49-24.84-15.8c-18.77-9.19-39.19-17.89-59.72-22.34c3.65,14.52,2.07,28.51-5.69,41.58
			c-7.01,11.81-17.4,22.93-20.5,36.64c-0.51,2.26-0.66,4.29-0.46,6.08c1.77,0.96,2.94,2.87,2.18,5.38c1.87,2.27,4.88,3.77,9.01,4.48
			c6.85,1.19,14.07,0.68,21.06-0.46c-0.13,0.44-0.24,0.9-0.36,1.36c-0.79,0.41-1.46,1.01-1.87,1.85c-0.77,1.58-1.33,3.11-1.56,4.78
			c-0.03,0.24-0.06,0.48-0.08,0.72c-0.52,0.73-1.04,1.44-1.58,2.16c-9.5,1.03-19.31,0.63-27.11-3.82c-0.61-0.35-1.18-0.72-1.72-1.1
			c-7.26,13.84-18.74,25.58-24.34,40.3c-2.55,6.71-5.27,17,0.33,23.06c0.49,0.53,1,1.01,1.53,1.48c1.25,0.28,2.23,1.08,2.86,2.12
			c4.45,2.8,9.83,4.23,14.91,5.209c4.21,0.811,8.51,1.391,12.87,1.771c0.93,3.439,1.84,6.88,2.77,10.32
			c-7.37-0.421-14.65-1.41-21.59-3.181c-4.87-1.229-9.81-2.939-14.13-5.58c-9.79,4.11-16.5,14.28-20.77,23.55
			c-4.38,9.511-8.36,21.87-6.42,32.48c4.57,24.93,38.61,22.35,57.77,20.8c31.6-2.55,62.17-11.359,92.91-18.62
			c14.34-3.39,28.85-6.79,43.52-8.35c11.5-1.21,23.07-2.28,34.37-4.82c14.92-3.35,31.271-10.33,39-23.1
			C279.422,205.645,280.493,203.286,281.262,200.735z"/>
		<path fill="#CA9E67" d="M290.573,206.425c11.63,6.23,17.399,20.02,15.06,33.02c-1.24,6.841-4.859,13.29-10.42,17.54
			c-8.02,6.11-19.399,6.23-29.02,6.181c-21.91-0.11-43.44-1.82-64.931-6.04c-11.2-2.21-22.35-4.05-33.77-4.21
			c3.67-0.86,7.34-1.7,11.02-2.5c20.03-4.34,40.419-5.33,60.49-9.26c17.771-3.48,35.26-10.431,46.04-25.66
			c1.35-1.91,2.49-3.84,3.48-5.79c0-0.09,0.01-0.181,0.02-0.271C289.623,208.746,290.292,207.635,290.573,206.425z"/>
		<path fill="#CA9E67" d="M282.542,188.765c0.29,4.38-0.189,8.36-1.28,11.97c-0.54,0.62-0.89,1.381-1.069,2.181
			c-1.63,1.05-2.33,3.05-2.101,4.92c-7.729,12.77-24.08,19.75-39,23.1c-11.3,2.54-22.87,3.61-34.37,4.82
			c-14.669,1.56-29.18,4.96-43.52,8.35c-30.74,7.261-61.31,16.07-92.91,18.62c-19.16,1.55-53.2,4.13-57.77-20.8
			c-1.94-10.61,2.04-22.97,6.42-32.48c4.27-9.27,10.98-19.439,20.77-23.55c4.32,2.641,9.26,4.351,14.13,5.58
			c6.94,1.771,14.22,2.76,21.59,3.181c-0.93-3.44-1.84-6.881-2.77-10.32c-4.36-0.38-8.66-0.96-12.87-1.771
			c-5.08-0.979-10.46-2.41-14.91-5.209c-0.63-1.04-1.61-1.84-2.86-2.12c-0.53-0.47-1.04-0.95-1.53-1.48
			c-5.6-6.06-2.88-16.35-0.33-23.06c5.6-14.72,17.08-26.46,24.34-40.3c0.54,0.38,1.11,0.75,1.72,1.1c7.8,4.45,17.61,4.85,27.11,3.82
			c0.54-0.72,1.06-1.43,1.58-2.16c0.02-0.24,0.05-0.48,0.08-0.72l9.11,0.44c-3.71,7.24-6,17.24-6,28.28c0,22.09,9.17,40,20.5,40
			c11.32,0,20.5-17.91,20.5-40c0-16.22-4.95-30.19-12.06-36.46l11.55-0.98c0.16,0.2,0.32,0.41,0.47,0.63
			c3.9-1.24,7.8-2.49,11.66-3.72c13.87-4.41,29.15-9.49,40.08-19.52c4.419-4.06,6.44-8.76,6.73-13.6
			c19.91,5.5,36.479,23.25,41.33,43.18c2.479,10.15,0.47,21.22-6.42,29.21c-1.271,1.47-2.63,2.83-4.04,4.15
			c0.51,4.08,0.62,8.21,0.6,12.35c6.851-5.16,12.64-11.3,16.36-18.61C262.983,146.615,281.092,166.785,282.542,188.765z
			 M205.922,139.815c0-22.09-9.18-40-20.5-40c-11.33,0-20.5,17.91-20.5,40c0,22.09,9.17,40,20.5,40
			C196.743,179.815,205.922,161.905,205.922,139.815z M191.353,204.595h-77.23c0,15.85,17.28,28.71,38.61,28.71
			S191.353,220.445,191.353,204.595z"/>
		<path fill="#010202" d="M280.193,202.916c0.18-0.8,0.529-1.561,1.069-2.181c-0.77,2.551-1.84,4.91-3.17,7.101
			C277.863,205.965,278.563,203.965,280.193,202.916z"/>
		<path d="M185.422,122.175c4.64,0,8.41,9.14,8.41,20.42c0,11.27-3.77,20.41-8.41,20.41c-4.65,0-8.41-9.14-8.41-20.41
			C177.013,131.315,180.772,122.175,185.422,122.175z"/>
		<path d="M114.123,204.595h77.23c0,15.85-17.29,28.71-38.62,28.71S114.123,220.445,114.123,204.595z"/>
		<path fill="#CA9E67" d="M175.743,48.885c4.76,4.26,11.3,11.6,10.11,18.67c-1.08,6.35-9,10.45-14.05,13.17
			c-8.12,4.4-16.97,7.43-25.74,10.26c-4.87,1.57-9.78,3.15-14.72,4.69c0.47,1.43,0.86,2.9,1.22,4.37c1.54,1.01,2.91,2.22,4.03,3.67
			l-11.55,0.98c-2.58-2.28-5.43-3.54-8.44-3.54c-5.67,0-10.79,4.48-14.5,11.72l-9.11-0.44c0.23-1.67,0.79-3.2,1.56-4.78
			c0.41-0.84,1.08-1.44,1.87-1.85c0.12-0.46,0.23-0.92,0.36-1.36c-6.99,1.14-14.21,1.65-21.06,0.46c-4.13-0.71-7.14-2.21-9.01-4.48
			c0.76-2.51-0.41-4.42-2.18-5.38c-0.2-1.79-0.05-3.82,0.46-6.08c3.1-13.71,13.49-24.83,20.5-36.64
			c7.76-13.07,9.34-27.06,5.69-41.58c20.53,4.45,40.95,13.15,59.72,22.34C159.692,37.396,168.413,42.335,175.743,48.885z"/>
		<path d="M116.603,123.175c4.64,0,8.41,9.14,8.41,20.42c0,11.27-3.77,20.41-8.41,20.41c-4.65,0-8.41-9.14-8.41-20.41
			C108.192,132.315,111.953,123.175,116.603,123.175z"/>
	</g>
	<g>
		<path fill="none" stroke="#000000" stroke-miterlimit="10" d="M125.042,104.695c7.11,6.27,12.06,20.24,12.06,36.46
			c0,22.09-9.18,40-20.5,40c-11.33,0-20.5-17.91-20.5-40c0-11.04,2.29-21.04,6-28.28c3.71-7.24,8.83-11.72,14.5-11.72
			C119.613,101.155,122.462,102.416,125.042,104.695z"/>
		<path fill="none" stroke="#000000" stroke-miterlimit="10" d="M205.922,139.815c0,22.09-9.18,40-20.5,40
			c-11.33,0-20.5-17.91-20.5-40c0-22.09,9.17-40,20.5-40C196.743,99.815,205.922,117.725,205.922,139.815z"/>
	</g>
</g>
</svg>
