<?xml version="1.0" encoding="utf-8"?>
<!-- Generator: Adobe Illustrator 16.0.0, SVG Export Plug-In . SVG Version: 6.00 Build 0)  -->
<!DOCTYPE svg PUBLIC "-//W3C//DTD SVG 1.1//EN" "http://www.w3.org/Graphics/SVG/1.1/DTD/svg11.dtd">
<svg version="1.1" id="Calque_1" xmlns="http://www.w3.org/2000/svg" xmlns:xlink="http://www.w3.org/1999/xlink" x="0px" y="0px"
	 width="326.062px" height="437.163px" viewBox="0 0 326.062 437.163" enable-background="new 0 0 326.062 437.163"
	 xml:space="preserve">
<g>
	<path fill="#2D2C2B" d="M289.547,253.038c-5.266-0.626-7.336,6.291-8.547,10.063c-1.869,5.828-2.961,11.926-5.275,17.607
		c-2.434,5.975,7.244,8.548,9.643,2.658c1.605-3.942,2.607-8.116,3.725-12.215c0.582-2.132,1.188-4.255,1.861-6.359
		c0.209-0.646,0.424-1.31,0.691-1.937C295.827,261.438,295.079,253.696,289.547,253.038z"/>
	<path fill="#2D2C2B" d="M60.176,279.965c-0.028-0.105-0.054-0.209-0.07-0.297c-0.173-0.91-0.336-1.821-0.509-2.73
		c-0.334-1.76-0.7-3.517-1.229-5.229c-1.369-4.433-6.612-4.601-9.139-1.194c-4.247,5.725-4.677,12.642-4.683,19.523
		c-0.005,6.449,9.995,6.448,10,0c0.001-1.022,0.005-2.029,0.033-3.02c0.779,0.145,1.578,0.132,2.285-0.063
		c2.336-0.643,3.404-2.574,3.67-4.821l0.012-0.097C60.634,281.302,60.483,280.601,60.176,279.965z"/>
	<path fill="#2D2C2B" d="M46.491,252.14c-0.857-0.01-1.705,0.209-2.462,0.639c-0.914-0.478-1.969-0.67-3.005-0.57
		c-0.093-3.066-0.152-6.137-0.477-9.171c-0.408-3.813-5.44-7.29-8.536-3.535c-10.152,12.316-4.468,26.674,4.218,38.059
		c2.624,3.439,9.884,3.037,9.317-2.523c-0.159-1.558-0.503-2.982-0.94-4.367c0.74-0.567,1.364-1.332,1.762-2.304
		c0.55-1.346,1.247-2.594,1.961-3.831c0.666-0.099,1.317-0.289,1.893-0.562c1.319-0.626,1.987-1.78,2.49-3.079
		c0.219-0.567,0.997-1.849,0.37-1.322C57.869,255.556,51.361,248.836,46.491,252.14z"/>
	<path fill="#2D2C2B" d="M74.218,64.216C67.863,66.179,61.95,72,58.491,78.899c-0.55,0.344-1.092,0.688-1.619,1.023
		c-5.674,3.615-10.973,7.993-15.607,12.866c-6.609,6.949-15.602,21.367-5.438,29.519c0.838,0.672,1.706,1.193,2.596,1.583
		c-2.062,6.469-4.082,12.95-5.696,19.548c-0.697,2.85-1.193,5.796-1.614,8.784c-5.827,10.082-9.16,21.193-7.565,33.815
		c0.561,4.44,6.785,7.438,9.317,2.523c1.658-3.219,2.877-6.596,3.831-10.063c0.125-0.049,0.25-0.087,0.375-0.144
		c7.623-3.435,12.319-12.299,15.307-19.654c3.04-7.482,5.807-17.025,2.991-24.992c-1.19-3.369-5.633-5.142-8.357-2.207
		c-0.364,0.393-0.726,0.788-1.087,1.183c0.173-0.569,0.353-1.136,0.529-1.705c1.32-0.17,2.576-0.915,3.411-2.419
		c1.255-2.261,2.265-4.634,3.137-7.069c4.131-2.514,7.84-6.013,10.342-8.903c0.498-0.575,0.983-1.173,1.455-1.789
		c2.33,0.647,4.903-0.253,5.57-3.434c0.15-0.719,0.322-1.432,0.484-2.148c2.695-1.412,5.076-3.94,6.628-6.788
		c1.91-3.505,1.697-7.525,0.786-11.271c-0.458-1.881-1.086-3.523-1.369-5.144c0.537-2.205,1.043-4.417,1.471-6.649
		c0.15-0.782,0.113-1.517-0.041-2.199C82.513,70.311,79.838,62.48,74.218,64.216z"/>
	<path fill="#2D2C2B" d="M295.368,131.708c-1.078-2.678-1.883-5.424-2.531-8.208c1.018-2.083,0.602-4.919-1.246-6.425
		c-0.453-2.78-0.83-5.577-1.223-8.367c-0.455-3.243-3.182-4.124-5.629-3.377c0.365-5.064-1.303-10.511-4.656-13.83
		c-1.873-1.852-5.559-1.826-7.357,0.104c-1.008-5.127-2.852-9.973-6.643-14.104c-1.637-1.783-3.65-1.903-5.299-1.107
		c-1.994-3.269-4.465-6.346-7.656-9.216c-8.184-7.36-19.305-9.603-25.619-19.15c-5.91-8.938-11.104-17.563-22.961-17.991
		c-6.451-0.233-6.43,9.768,0,10c5.914,0.213,8.973,4.621,11.906,9.212c3.07,4.809,5.994,9.571,10.57,13.105
		c5.275,4.075,11.369,6.663,16.92,10.296c6.027,3.946,10.602,10.899,12.633,17.716c2.15,7.216,3.311,21.628,11.117,25.977
		c-0.371,1.825,0.227,3.803,2.33,5.012c3.477,2,7.111,3.257,10.896,3.962c1.848,2.844,3.584,5.761,4.805,9.05
		C288.084,140.226,297.637,137.82,295.368,131.708z"/>
	<g id="XMLID_1_">
		<g>
			<path fill="#CA9E67" d="M321.195,205.375c0.18,4.97,0.3,9.95,0.239,14.91c-1.29,4.939-2.55,9.89-3.489,14.899
				c-1.511,2.101-3.311,3.99-5.38,5.57c-8.021,6.12-19.4,6.23-29.021,6.19c-21.91-0.12-43.44-1.82-64.93-6.051
				c-11.2-2.199-22.351-4.04-33.771-4.199c3.67-0.87,7.34-1.71,11.021-2.5c20.029-4.341,40.42-5.33,60.489-9.261
				c17.771-3.479,35.261-10.439,46.04-25.66c1.351-1.909,2.49-3.84,3.48-5.789c0-0.091,0.01-0.181,0.02-0.271
				c1.08-0.69,1.75-1.81,2.03-3.01c6.21,3.319,10.74,8.8,13.271,15.16V205.375z"/>
			<path d="M320.594,187.315c0.11,5.959,0.391,12,0.601,18.05c-2.53-6.36-7.061-11.841-13.271-15.16c-0.28,1.2-0.95,2.319-2.03,3.01
				c-0.01,0.09-0.02,0.18-0.02,0.271c-0.99,1.949-2.13,3.88-3.48,5.789c-10.779,15.221-28.27,22.181-46.04,25.66
				c-20.069,3.931-40.46,4.92-60.489,9.261c-3.681,0.79-7.351,1.63-11.021,2.5c11.42,0.159,22.57,2,33.771,4.199
				c21.489,4.23,43.02,5.931,64.93,6.051c9.62,0.04,21-0.07,29.021-6.19c2.069-1.58,3.869-3.47,5.38-5.57
				c-0.67,3.58-1.17,7.19-1.4,10.851c-0.08,1.239,0.31,2.27,0.99,3.06c-4.9,3.5-10.76,5.88-17.38,6.8
				c-11.62,1.601-23.16,0.83-34.82,0.301c-12.7-0.58-25.05-1.051-37.6-3.381c-13.25-2.449-26.551-5.859-40.091-6.09
				c-14.819-0.26-29.6,1.17-44.419,1.23c-0.99,0-1.83-0.23-2.51-0.63c-0.68,0.399-1.51,0.63-2.49,0.63c-1.24,0-2.24-0.38-3-0.97
				c-0.18,0.05-0.35,0.09-0.52,0.14c-5.86,1.479-11.66,3.24-17.39,5.18c-0.01-0.01-0.03-0.02-0.04-0.03
				c-4.52,0.811-9.05,1.561-13.61,2.211c-20.95,2.909-46.09,6.14-66.23-2.5c-8.41-3.601-15.67-10.171-18.22-19.23
				c-2.55-9.07-1.83-18.81,0.45-27.88c3.97-15.73,12.74-33.91,27.47-42.39c-5.28-7.34-5.37-17.61-2.85-26
				c3.16-10.56,9.11-19.98,15.18-29.08c4.67-7.02,10.2-14.16,13.54-22.04c-3.6-10.23,1.86-23.59,7.31-32.8
				c5.12-8.64,11.67-16.51,16.09-25.55c0.3-0.61,0.57-1.21,0.83-1.82c3.74-0.53,7.48-1.18,11.19-1.92
				c-1.24,4.37-3.1,8.64-5.58,12.83c-7.01,11.81-17.4,22.93-20.5,36.64c-0.51,2.26-0.66,4.29-0.46,6.08
				c1.77,0.96,2.94,2.87,2.18,5.38c1.87,2.27,4.88,3.77,9.01,4.48c6.85,1.19,14.07,0.68,21.06-0.46c-0.13,0.44-0.24,0.9-0.36,1.36
				c-0.79,0.41-1.46,1.01-1.87,1.85c-0.77,1.58-1.33,3.11-1.56,4.78c-0.03,0.24-0.06,0.48-0.08,0.72c-0.52,0.73-1.04,1.44-1.58,2.16
				c-9.5,1.03-19.31,0.63-27.11-3.82c-0.61-0.35-1.18-0.72-1.72-1.1c-7.26,13.84-18.74,25.58-24.34,40.3
				c-2.55,6.71-5.27,17,0.33,23.06c0.49,0.53,1,1.01,1.53,1.48c1.25,0.28,2.23,1.08,2.86,2.12c4.45,2.8,9.83,4.23,14.91,5.2
				c4.21,0.82,8.51,1.4,12.87,1.78c0.93,3.44,1.84,6.87,2.77,10.32c-7.37-0.43-14.65-1.41-21.59-3.19
				c-4.87-1.22-9.81-2.93-14.13-5.58c-9.79,4.12-16.5,14.29-20.77,23.56c-4.38,9.511-8.36,21.86-6.42,32.48
				c4.57,24.93,38.61,22.35,57.77,20.79c27.36-2.2,53.95-9.101,80.55-15.62c0.51,0,1.02,0.01,1.54,0.01
				c12.229,0,23.54-2.939,32.71-7.92c7.17-1.45,14.37-2.66,21.63-3.43c11.5-1.221,23.069-2.29,34.37-4.82
				c14.92-3.35,31.27-10.33,39-23.1c1.33-2.2,2.399-4.55,3.17-7.11c1.09-3.61,1.569-7.59,1.279-11.96
				c-1.449-21.98-19.56-42.15-39.18-50.98c-3.72,7.31-9.51,13.45-16.36,18.61c0.021-4.14-0.09-8.28-0.6-12.36
				c1.41-1.32,2.771-2.67,4.04-4.14c6.89-7.99,8.9-19.06,6.42-29.21c-4.85-19.93-21.42-37.68-41.33-43.18
				c-0.29,4.84-2.31,9.54-6.729,13.6c-10.931,10.03-26.21,15.11-40.08,19.52c-3.86,1.23-7.76,2.48-11.66,3.72
				c-1.2-1.73-2.74-3.15-4.5-4.3c-0.36-1.47-0.75-2.94-1.22-4.37c4.94-1.54,9.85-3.12,14.72-4.69c8.77-2.83,17.62-5.86,25.74-10.26
				c5.05-2.72,12.97-6.82,14.05-13.17c1.189-7.07-5.351-14.41-10.11-18.67c-7.33-6.55-16.05-11.49-24.84-15.8
				c-5.02-2.46-10.14-4.88-15.36-7.19c6.891-0.03,13.78-0.06,20.65-0.64c0.41-0.03,0.79-0.1,1.15-0.2
				c11.13,5.43,22.17,12.02,29.92,21.32c2.79,3.35,5.09,7.09,6.56,10.97c0.71-0.18,1.51-0.19,2.38,0.01
				c25.9,6.03,49.34,31.22,51.48,58.09c0.37,4.65,0.01,8.98-0.931,13.03c23.721,10.96,47.91,38.37,46.131,65.32
				c-0.351,0.74-0.69,1.49-1.011,2.24C313.464,181.695,317.285,184.246,320.594,187.315z"/>
			<path fill="#CA9E67" d="M299.894,172.545c0.29,4.37-0.189,8.35-1.279,11.96c-0.54,0.63-0.891,1.39-1.07,2.19
				c-1.63,1.04-2.33,3.041-2.1,4.92c-7.73,12.77-24.08,19.75-39,23.1c-11.301,2.53-22.87,3.6-34.37,4.82
				c-7.26,0.77-14.46,1.979-21.63,3.43c13.84-7.51,22.83-19.66,22.83-33.36h-111.07c0,22.41,24.02,40.66,53.99,41.271
				c-26.6,6.52-53.19,13.42-80.55,15.62c-19.16,1.56-53.2,4.14-57.77-20.79c-1.94-10.62,2.04-22.97,6.42-32.48
				c4.27-9.27,10.98-19.44,20.77-23.56c4.32,2.65,9.26,4.36,14.13,5.58c6.94,1.78,14.22,2.76,21.59,3.19
				c-0.93-3.45-1.84-6.88-2.77-10.32c-4.36-0.38-8.66-0.96-12.87-1.78c-5.08-0.97-10.46-2.4-14.91-5.2
				c-0.63-1.04-1.61-1.84-2.86-2.12c-0.53-0.47-1.04-0.95-1.53-1.48c-5.6-6.06-2.88-16.35-0.33-23.06
				c5.6-14.72,17.08-26.46,24.34-40.3c0.54,0.38,1.11,0.75,1.72,1.1c7.8,4.45,17.61,4.85,27.11,3.82c0.54-0.72,1.06-1.43,1.58-2.16
				c0.02-0.24,0.05-0.48,0.08-0.72l9.11,0.44c-3.71,7.24-6,17.24-6,28.28c0,22.09,9.17,40,20.5,40c11.32,0,20.5-17.91,20.5-40
				c0-15.88-4.74-29.59-11.61-36.05l11.57-0.76c3.9-1.24,7.8-2.49,11.66-3.72c13.87-4.41,29.149-9.49,40.08-19.52
				c4.42-4.06,6.439-8.76,6.729-13.6c19.91,5.5,36.48,23.25,41.33,43.18c2.48,10.15,0.47,21.22-6.42,29.21
				c-1.27,1.47-2.63,2.82-4.04,4.14c0.51,4.08,0.62,8.22,0.6,12.36c6.851-5.16,12.641-11.3,16.36-18.61
				C280.334,130.396,298.445,150.565,299.894,172.545z M223.275,123.595c0-22.09-9.181-40-20.5-40c-11.33,0-20.5,17.91-20.5,40
				c0,22.09,9.17,40,20.5,40C214.094,163.595,223.275,145.686,223.275,123.595z"/>
			<path fill="#010202" d="M297.544,186.695c0.18-0.8,0.53-1.56,1.07-2.19c-0.771,2.56-1.84,4.91-3.17,7.11
				C295.214,189.736,295.915,187.735,297.544,186.695z"/>
			<path d="M112.205,189.605h111.07c0,13.7-8.99,25.851-22.83,33.36c-7.341,1.48-14.641,3.2-21.891,4.92
				c-4.12,0.97-8.239,1.98-12.359,2.99C136.225,230.265,112.205,212.015,112.205,189.605z"/>
			<path d="M202.775,105.956c4.64,0,8.409,9.14,8.409,20.42c0,11.27-3.77,20.41-8.409,20.41c-4.65,0-8.41-9.14-8.41-20.41
				C194.365,115.095,198.125,105.956,202.775,105.956z"/>
			<path fill="#CA9E67" d="M193.094,32.666c4.76,4.26,11.3,11.6,10.11,18.67c-1.08,6.35-9,10.45-14.05,13.17
				c-8.12,4.4-16.971,7.43-25.74,10.26c-4.87,1.57-9.78,3.15-14.72,4.69c0.47,1.43,0.86,2.9,1.22,4.37c1.76,1.15,3.3,2.57,4.5,4.3
				l-11.57,0.76c-2.69-2.53-5.71-3.95-8.89-3.95c-5.66,0-10.79,4.48-14.5,11.72l-9.11-0.44c0.23-1.67,0.79-3.2,1.56-4.78
				c0.41-0.84,1.08-1.44,1.87-1.85c0.12-0.46,0.23-0.92,0.36-1.36c-6.99,1.14-14.21,1.65-21.06,0.46c-4.13-0.71-7.14-2.21-9.01-4.48
				c0.76-2.51-0.41-4.42-2.18-5.38c-0.2-1.79-0.05-3.82,0.46-6.08c3.1-13.71,13.49-24.83,20.5-36.64c2.48-4.19,4.34-8.46,5.58-12.83
				c5.13-1.01,10.23-2.2,15.27-3.51c7.67-1.99,17.84-4.34,24.22-10.06c1.66-0.01,3.31-0.02,4.97-0.03h0.01
				c5.221,2.31,10.341,4.73,15.36,7.19C177.044,21.175,185.764,26.115,193.094,32.666z"/>
			<path d="M178.554,227.885c7.25-1.72,14.55-3.439,21.891-4.92c-9.17,4.98-20.48,7.92-32.71,7.92c-0.521,0-1.03-0.01-1.54-0.01
				C170.315,229.866,174.434,228.855,178.554,227.885z"/>
			<path d="M133.955,106.956c4.64,0,8.41,9.14,8.41,20.42c0,11.27-3.77,20.41-8.41,20.41c-4.65,0-8.41-9.14-8.41-20.41
				C125.544,116.095,129.305,106.956,133.955,106.956z"/>
		</g>
		<g>
			<path fill="none" stroke="#000000" stroke-miterlimit="10" d="M142.845,88.885c6.87,6.46,11.61,20.17,11.61,36.05
				c0,22.09-9.18,40-20.5,40c-11.33,0-20.5-17.91-20.5-40c0-11.04,2.29-21.04,6-28.28c3.71-7.24,8.84-11.72,14.5-11.72
				C137.134,84.936,140.154,86.355,142.845,88.885z"/>
			<path fill="none" stroke="#000000" stroke-miterlimit="10" d="M223.275,123.595c0,22.09-9.181,40-20.5,40
				c-11.33,0-20.5-17.91-20.5-40c0-22.09,9.17-40,20.5-40C214.094,83.595,223.275,101.505,223.275,123.595z"/>
		</g>
	</g>
	<g id="XMLID_2_">
		<g>
			<path fill="#BFBFB6" d="M163.031,1.201c89.38,0,161.83,93.62,161.83,209.11c0,115.479-72.45,209.1-161.83,209.1
				c-89.37,0-161.83-93.62-161.83-209.1C1.201,94.821,73.661,1.201,163.031,1.201z M301.901,197.981
				c0-93.84-61.83-169.91-138.1-169.91c-76.271,0-138.101,76.07-138.101,169.91c0,93.84,61.83,169.909,138.101,169.909
				C240.071,367.89,301.901,291.821,301.901,197.981z"/>
		</g>
		<g>
			
				<ellipse fill="none" stroke="#A3A39B" stroke-width="2" stroke-miterlimit="10" cx="163.801" cy="197.981" rx="138.1" ry="169.909"/>
			<path fill="none" stroke="#3F3F3D" stroke-width="2.4018" stroke-miterlimit="10" d="M324.861,210.311
				c0,115.479-72.45,209.1-161.83,209.1c-89.37,0-161.83-93.62-161.83-209.1c0-115.49,72.46-209.11,161.83-209.11
				C252.411,1.201,324.861,94.821,324.861,210.311z"/>
		</g>
	</g>
	<g transform="translate(0.000000,300.000000) scale(0.100000,-0.100000)">
		<path id="node1" fill="#EAEADF" stroke="#010202" stroke-miterlimit="10" d="M1356.04,1379.263
			c-26.699-11.66-72.422-43.477-101.641-71.055c-167.7-155.898-251.538-203.652-353.159-203.652
			c-102.91,1.074-147.363,59.414-119.434,153.789c11.426,36.094,30.488,62.578,60.996,86.992c39.365,29.707,41.904,35,21.582,40.313
			c-45.723,11.641-165.156-49.863-199.453-103.945c-41.914-68.926-67.344-152.734-67.344-230.137
			c-1.27-96.523-20.313-136.836-124.478-251.367c-86.401-95.469-123.232-141.055-111.807-141.055c3.828,0,26.694,7.422,50.82,16.973
			c55.893,23.32,97.807,13.77,127.026-28.652c20.352-27.559,22.891-45.586,15.254-109.219
			c-7.617-72.148-45.723-187.754-69.863-212.109C461.66,302.778,358.774,133.091,343.525,93.853
			c-7.637-22.285-11.44-47.695-7.637-57.266c6.362-12.734,19.063-3.184,53.359,40.313c52.1,66.816,143.555,147.402,165.156,147.402
			c34.307,0,1.279-83.789-95.283-243.945c-104.17-172.871-146.084-281.035-138.467-361.641l3.809-46.66l27.959,48.77
			c38.115,63.633,100.356,113.496,120.688,96.504c33.022-27.539,22.856-194.082-16.533-256.641
			c-5.068-8.496-24.121-43.496-41.919-76.367c-17.783-33.945-52.08-88.008-78.77-119.824
			c-25.396-32.891-43.184-62.598-38.105-65.762c25.405-21.211,223.594,107.109,223.594,145.273c0,5.313,6.348,10.625,12.715,10.625
			c7.598,0,12.695-49.863,12.695-127.285c0-133.613,19.063-198.34,77.49-264.082c50.811-58.32,135.928-79.551,102.91-25.469
			c-21.592,33.965-30.498,107.129-15.244,129.414c20.313,31.836,66.055,27.578,128.301-12.734
			c96.563-61.484,106.738-79.531,110.527-204.668c2.549-60.469,8.906-110.313,12.695-110.313c5.098,0,29.219,16.953,53.359,38.164
			c66.084,57.285,161.357,99.688,224.873,99.688c48.267,0,55.884-4.219,74.946-33.926c15.254-25.449,19.043-47.715,12.695-95.469
			c-6.348-39.238-3.809-61.504,3.809-61.504c22.891,0,105.469,66.797,142.285,114.551c41.934,56.211,39.395,58.34,125.781-109.238
			l26.68-53.027l27.949,46.66c15.254,25.469,34.297,45.605,40.664,45.605c7.617-1.074,22.852-18.008,35.547-38.184
			c14.004-21.211,29.238-38.164,34.297-38.164c5.078,0,19.063,18.027,29.238,40.293c41.895,85.918,77.461,150.605,85.098,150.605
			c3.828,0,17.793-16.992,30.469-37.148c26.719-40.273,124.512-121.953,147.402-121.953c8.887,0,11.426,23.359,6.328,66.797
			c-10.137,89.121,7.617,117.754,78.789,121.973c66.055,4.258,138.457-25.41,221.035-90.137l62.265-48.75v85.879
			c0,97.578,25.391,160.137,83.848,204.688c92.695,70.02,147.363,80.605,172.754,35c15.254-26.504,12.734-37.109-24.121-144.219
			c-11.445-33.965,25.391-20.137,85.117,31.797c82.559,72.109,101.621,124.082,101.621,281.035v127.305l69.863-63.652
			c62.246-58.34,162.617-110.293,180.391-94.395c3.828,3.223-13.965,31.836-39.395,63.633
			c-67.305,84.863-133.379,207.871-148.594,278.945c-15.273,65.781-7.676,159.082,13.984,177.129
			c16.484,13.789,78.75-35.02,109.219-89.121c31.777-55.137,47.012-42.383,36.855,30.762
			c-13.965,100.781-41.895,167.598-141.035,325.605c-71.133,115.625-93.965,162.266-93.965,195.156
			c0,23.32,5.039,42.422,11.406,42.422c17.813,0,121.973-98.652,154.98-146.367c16.543-24.375,38.125-46.66,48.301-49.844
			c33.008-10.605,2.52,81.68-59.727,175.039c-99.082,150.586-127.031,203.555-141.016,269.355
			c-36.836,169.707,16.504,250.273,133.398,203.633c24.102-9.551,46.992-16.973,50.801-16.973
			c8.926,0-30.469,48.789-110.508,137.852c-39.375,43.496-78.73,90.176-86.426,103.984c-30.449,48.75-52.051,125.098-52.051,188.75
			c0,131.523-64.805,237.578-171.484,278.945c-80.039,30.742-111.816,22.285-67.344-18.047
			c83.828-74.238,100.352-164.395,41.934-217.402c-26.719-23.32-44.473-28.672-90.234-28.672
			c-96.543,0-163.847,33.984-303.593,153.789c-141.055,120.918-181.68,143.203-265.527,143.203
			c-71.133,0-101.641-9.531-174.023-55.137l-57.188-37.148l-38.105,25.469C1556.743,1403.696,1448.774,1419.575,1356.04,1379.263z"
			/>
	</g>
</g>
<path fill="#010202" stroke="#010202" stroke-miterlimit="10" d="M126.95,198.961c0,0-4.525,4.816,6.479,13.365
	s18.949,8.122,36.082,7.85s22.65,0.092,26.932-2.123s16.299-9.861,16.895-15.27s-9.656-9.018-9.656-9.018
	s-18.248,3.359-25.533,7.002c-4.961,2.203-6.895,5.295-19.055-0.424s-18.478-5.858-15.245-4.986S130.217,191.047,126.95,198.961z"/>
</svg>
