<?xml version="1.0" encoding="utf-8"?>
<!-- Generator: Adobe Illustrator 16.0.0, SVG Export Plug-In . SVG Version: 6.00 Build 0)  -->
<!DOCTYPE svg PUBLIC "-//W3C//DTD SVG 1.1//EN" "http://www.w3.org/Graphics/SVG/1.1/DTD/svg11.dtd">
<svg version="1.1" id="Calque_1" xmlns="http://www.w3.org/2000/svg" xmlns:xlink="http://www.w3.org/1999/xlink" x="0px" y="0px"
	 width="313.72px" height="313.72px" viewBox="0 0 313.72 313.72" enable-background="new 0 0 313.72 313.72" xml:space="preserve">
<text transform="matrix(0.9061 -0.4232 0.4232 0.9061 86.2339 192.5723)" font-family="'MyriadPro-Regular'" font-size="31">m</text>
<path fill="#936037" d="M244.72,169.42c-0.007,2.291-4.965,3.415-6.728,3.903c-3.319,0.919-6.834,1.317-10.272,1.097
	c-6.442-0.413-6.402,9.589,0,10c9.533,0.611,26.965-2.69,27-15C254.739,162.971,244.739,162.973,244.72,169.42z"/>
<path fill="#009FE3" d="M299.39,133.12c0.632-15.822-2.597-31.726-11.035-45.051c-1.669-6.546-4.926-13.199-11.806-14.47
	c-2.098-0.388-3.756,0.197-4.942,1.532c-1.273-2.311-2.567-4.609-3.902-6.883c-5.783-9.844-12.642-19.286-21.334-26.762
	c-2.254-1.938-4.672-3.716-7.194-5.375c-0.046-0.071-0.093-0.144-0.139-0.215c-0.943-1.456-2.39-2.162-3.868-2.273
	c-6.974-4.098-14.521-7.457-21.658-10.71c-11.331-5.166-22.196-8.394-34.7-8.837c-13.159-0.468-27.074,0.476-40.047,2.706
	c-13.297,2.285-25.9,7.571-38.699,11.65c-11.782,3.755-23.326,8.241-32.38,16.952c-1.182,1.137-1.604,2.44-1.505,3.68
	c-2.897,1.717-5.465,3.812-7.87,6.454c-2.646,2.908-4.911,6.072-7.746,8.684c-1.24,0.973-2.511,1.951-3.867,2.901
	c-1.019,0.714-1.658,1.606-1.992,2.553c-1.832,1.514-3.547,3.184-5.099,5.06c-2.505,3.029-4.533,6.424-6.175,10.032
	c-0.816,1.674-1.55,3.404-2.234,5.15c-0.718,1.833-1.398,3.679-2.075,5.525c-4.765,1.104-9.265,2.763-13.027,6.079
	c-2.961,2.61-5.069,7.834-5.468,12.931c-2.026,2.21-3.951,4.516-5.724,6.964c-1.836,2.536,0.012,6.733,2.988,7.345
	c2.945,0.605,5.6,0.577,8.013,0.069c-4.36,9.568-5.389,20.533-5.421,31.229c-0.214,1.557-0.216,3.108,0.042,4.63
	c0.044,2.279,0.115,4.537,0.196,6.751c0.141,3.867,3.814,5.412,6.669,4.629c-1.598,18.238,7.028,35.281,8.831,53.371
	c0.526,5.28,8.475,7.204,9.821,1.329c0.097-0.425,0.176-0.85,0.266-1.274c2.16,5.383,4.385,10.745,6.167,16.265
	c0.29,1.007,0.594,2.012,0.925,3.01c1.16,3.504,4.783,4.154,7.3,2.884c4.533,7.389,10.869,13.938,18.88,16.983
	c0.377,0.144,0.748,0.269,1.111,0.376c11.284,11.684,26.719,20.745,42.702,23.749c1.209,0.228,2.334,0.062,3.291-0.372
	c9.303,3.616,19.415,5.951,29.039,6.551c1.293,0.08,2.37-0.363,3.188-1.094c7.448,2.254,15.639,2.091,23.313,2.094
	c0.853,0,1.595-0.225,2.242-0.578c5.865,0.732,8.182-8.365,2.087-9.743c-3.396-0.769-6.757-1.669-10.104-2.616
	c1.942-2.431,1.583-6.535-2.396-7.884c-0.26-0.088-0.523-0.165-0.784-0.25c-2.198-0.978-4.416-4.243-5.142-7.218
	c1.95-2.235,3.766-4.56,5.165-7.23c0.108-0.131,0.209-0.269,0.318-0.398c3.13-3.705,7.307-4.951,11.267-7.469
	c3.39-2.154,5.242-5.339,5.848-9.254c0.777-5.03-1.626-9.984-0.344-14.932c1.08-4.169,5.48-7.549,7.626-11.218
	c2.648-4.53,0.508-9.581,1.981-14.3c1.289-4.13,3.956-7.34,4.164-11.867c0.035-0.75-0.315-2.567-0.689-4.465
	c0.804-0.588,1.403-1.479,1.582-2.749c0.063-0.454,0.101-0.894,0.14-1.334c0.014,0.001,0.026,0.003,0.039,0.005
	c0.003-3.439,3.447-5.057,5.883-6.965c3.146-2.464,4.598-5.662,5.117-9.535c0.3-2.234-1.761-4.2-3.671-4.821
	c-11.615-3.777-24.716,0.307-35.658,4.5c-6.978,2.674-18.63,5.823-21.988,13.298c-1.751,3.897-1.438,8.04,2.301,10.628
	c0.972,0.673,4.693,1.658,6.572,2.72c-4.912,3.596-10.131,8.031-12.883,13.435c-1.564,0.835-3.152,1.624-4.741,2.381
	c-1.997,0.95-4.053,1.771-6.145,2.507c-1.448-0.054-2.996,0.438-4.132,1.327c-6.406,1.881-13.058,3.114-19.49,4.525
	c-5.218,1.145-11.911,2.779-17.057,0.523c-4.755-2.084-8.181-6.605-11.074-10.729c-6.782-9.67-12.92-19.448-20.445-28.615
	c-4.283-5.216-8.426-10.484-11.792-16.351c-1.78-3.102-5.698-8.525-1.76-11.193c7.868-5.33,18.737-8.102,27.918-9.938
	c5.966-1.193,14.947-1.292,19.832-5.473c4.303-3.683,0.682-11.057-0.385-15.304c-0.485-1.933-0.732-4.063-0.509-6.105
	c1.561-0.592,3.107-1.243,4.632-1.996c2.86-1.413,3.01-4.646,1.569-6.919c6.17-4.022,14.922-5.323,21.475-6.905
	c9.922-2.395,20.776-4.782,28.469-11.958c1.842-1.719,2.068-5.393,0-7.071c-2.366-1.92-4.942-3.272-7.598-4.737
	c-0.815-0.449-1.542-0.923-2.221-1.516c0.003-0.002,0.007-0.004,0.01-0.007c0.508,0.323,0.39-0.457,1.505-1.139
	c2.123-1.299,4.937-1.548,7.36-1.592c0.579-0.011,1.207,0.006,1.827,0.083c-1.749,2.505-1.716,6.22,0.152,9.928
	c3.442,6.831,9.52,12.534,13.746,18.003c8.092,10.473,15.811,21.192,24.049,31.549c8.091,10.172,12.835,22.471,21.1,32.499
	c2.371,2.878,7.59,1.268,8.356-2.206c0.854-3.867,0.265-7.389-1.333-10.979c-0.893-2.005-2.964-4.547-3.628-6.857
	c0.808-0.215,1.698-0.129,2.518-0.113c2.055,0.041,4.097,0.566,6.086,1.031c3.924,0.916,7.747,2.24,11.59,3.436
	c10.261,3.194,20.37,10.116,29.057,16.341c4.032,2.891,7.356,6.304,10.767,9.87c0.925,0.967,2.117,1.985,3.313,3.067
	c-0.27,0.915-0.31,1.883-0.011,2.703c1.69,4.641,4.442,8.101,9.821,7.671c0.92-0.073,1.756-0.342,2.474-0.756
	c0.003,0.007,0.007,0.013,0.01,0.02c0.368,1.376,0.98,2.665,1.981,3.771c3.221,3.564,10.23-0.156,8.356-4.864
	c-0.231-0.581-0.48-1.156-0.743-1.723c-0.07-0.79-0.049-1.593-0.038-2.384c0.03-2.472,0.319-4.946,0.581-7.401
	c0.541-5.088,1.33-10.163,1.506-15.282c0.005-0.143,0.002-0.283,0.005-0.425c1.564,0.181,3.269-0.411,4.403-1.421
	C310.427,151.691,305.825,141.923,299.39,133.12z"/>
<path fill="#010202" d="M149.89,74.92c0,0.96-0.2,1.87-0.58,2.7c-0.99,2.25-3.19,3.84-5.78,3.96c-0.1,0.01-0.21,0.01-0.31,0.01
	c-3.68,0-6.67-2.99-6.67-6.67s2.99-6.67,6.67-6.67S149.89,71.24,149.89,74.92z"/>
<path fill="#936037" d="M284.538,194.396c-2.045-3.405-6.516-3.036-8.635,0c-0.994,1.425-2.033,2.792-3.101,4.125
	c0.494-2.892-0.055-5.957-1.212-8.925c1.036-5.777-2.956-9.205-8.028-12.381c0.116-1.381-0.265-2.789-1.307-3.831
	c-0.666-0.667-1.333-1.334-2-2c-1.428-1.428-3.227-1.679-4.81-1.193c-1.602-0.681-3.194-1.38-4.778-2.099
	c0.232-3.595-1.478-6.787-6.154-7.55c-2.132-0.348-4.365-0.038-6.464-0.444c-3.616-0.7-5.637-4.542-8.294-6.714
	c-2.298-1.879-6.334-2.132-7.853,1.012c-1.288,2.668-1.694,5.009-1.592,7.97c0.107,3.13-2.528,3.954-4.484,5.973
	c-3.267,3.37-2.506,9.298,0.829,12.321c0.571,0.518,1.176,0.929,1.801,1.26c-0.414,0.926-0.495,2.049-0.058,3.329
	c0.011,0.032,0.025,0.061,0.036,0.093c-0.981,0.38-1.972,0.718-2.969,0.992c0.071-1.738-0.041-3.448-0.425-5.243
	c-0.825-3.867-5.742-4.59-8.356-2.206c-3.717,3.387-5.572,7.563-5.965,12.535c-0.173,2.188,1.652,4.272,3.671,4.821
	c0.237,0.064,0.473,0.11,0.709,0.167c0.382,2.649,1.756,4.817,5.519,5.761c0.881,0.221,1.759,0.369,2.635,0.466
	c-1.056,0.523-2.075,1.112-3.042,1.759c-4.033-2.084-9.36-0.968-13.515,1.709c-2.309,1.487-3.187,4.395-1.794,6.841
	c0.874,1.535-3.117,7.667-3.504,9.647c-0.341,1.745,0.1,3.566,1.242,4.805c-5.287,0.548-9.298,4.861-10.45,10.175
	c-1.496,6.903,2.388,12.612,8.322,15.694c3.189,1.656,6.551,2.781,9.592,4.741c1.026,0.661,1.954,1.506,2.844,2.419
	c-0.237-0.013-0.473-0.028-0.729-0.005c-1.906,0.178-3.902,0.371-5.919,0.634c0.215-3.144-3.008-6.622-6.41-5.455
	c-4.651,1.595-9.688,0.892-14.51,1.686c-5.267,0.868-9.13,4.971-11.829,9.268c-5.942,9.462,3.229,16.216,10.645,20.186
	c1.41,0.755,2.781,0.79,3.959,0.37c1.124,0.645,2.272,1.236,3.402,1.783c1.951,1.354,4.127,2.355,6.333,2.851
	c1.704,0.382,3.266-0.191,4.426-1.215c1.614,1.285,3.57,1.957,6.032,1.51c1.423-0.258,2.538-1.085,3.42-2.21
	c1.85,1.35,4.257,2.187,7.213,2.32c8.639,0.392,17.817-7.188,24.951-11.369c7.043-4.128,16.346-9.187,20.104-16.834
	c1.689-3.437-0.362-7.371-4.317-7.523c-9.378-0.362-18.561,2.32-27.89,1.901c-1.655-0.074-3.358-0.171-5.044-0.176
	c1.162-0.418,2.211-1.214,2.84-2.237c0.031,0.002,0.063,0.011,0.094,0.012c9.379,0.373,20.054-0.702,29.314-4.093
	c1.333-0.192,2.664-0.441,3.995-0.763c9.312-2.249,16.636-9.061,23.226-15.609c1.95-1.938,1.901-4.162,0.83-5.821
	C286.048,219.48,293.004,208.492,284.538,194.396z M200.188,231.382c-0.099-0.61-0.341-1.151-0.679-1.627
	c0.758,0.148,1.516,0.301,2.278,0.432C201.217,230.432,200.674,230.819,200.188,231.382z M232.123,179.159
	c0.287,0.101,0.564,0.217,0.859,0.308c-0.684,0.165-1.363,0.345-2.039,0.547C231.345,179.742,231.739,179.457,232.123,179.159z
	 M242.255,188.955c0.431-0.387,0.75-0.851,0.984-1.352c0.993-0.151,1.984-0.304,2.971-0.474c-1.438,1.913-2.542,4.078-3.349,6.373
	c-1.113,0.068-2.178,0.507-3.177,1.382c-2.874,2.514-6.116,3.985-7.661,7.098c-1.501-1.071-3.334-1.713-5.347-1.981
	C232.511,197.26,237.855,192.908,242.255,188.955z"/>
<g>
	<path fill="#010202" d="M156.86,0C70.37,0,0,70.37,0,156.86c0,86.5,70.37,156.86,156.86,156.86
		c86.49,0,156.86-70.359,156.86-156.86C313.72,70.37,243.35,0,156.86,0z M205.541,287.979c-11.95,1.08-25.95,1.051-34.88-8.109
		c-3.4-3.48-3.841-8.42-1.58-12.58c2.659-4.89,8.31-6.84,13.47-7.55c1.6-0.221,2.63-0.99,3.17-2.021c3.73,2.03,7.86,3.45,11.6,4.521
		c17.131,4.91,35.92,3.949,53.091-1.5C237.42,272.45,222.23,281.77,205.541,287.979z M288.21,204.92
		c-4.88,13.32-11.74,25.69-20.23,36.77c-18.149,11.32-40,15.95-61.24,12.421c-7.229-1.2-15.59-3.351-20.899-8.71
		c-5.08-5.141,1.27-11.631,6.1-15.681c5.4,3.32,12.431,2.851,19.34,2.33c12.141-0.91,24.301-0.899,36.141-4.09
		c11.56-3.13,21.1-10.41,28.03-20.06c2.649-3.711,4.199-7.49,4.819-11.25c3.73,1.5,6.49,4.489,7.94,8.26
		C288.21,204.91,288.21,204.91,288.21,204.92z M239.68,187.38c-6.57,5.65-16.74,9.19-25.229,10.18
		c-7.061,0.83-15.341-1.85-10.62-9.779c1.859-3.12,4.14-5.931,6.529-8.681l3.58,5.221c0.13-0.03,0.261-0.03,0.41-0.021
		c0.311,0.03,0.61,0.03,0.89-0.02l-0.909,0.62l-0.391-0.58c-1.84,0.43-1.689,5.159,0.41,5.38c2.2,0.229,4.39-0.811,5.87-3.38
		c1.57-2.721,1.82-6.301,1.46-9.75c-0.15-1.46-1.32-2.25-2.16-1.891c-1,0.42-1.38,1.87-1.229,3.32c0.01,0.11,0.02,0.21,0.029,0.31
		l-3.189-4.63c2.229-2.58,4.35-5.24,6.1-8.17c2.13-3.56,3.08-7.109,2.94-10.47c8.97,3.399,17.72,7.35,25.979,12.25
		c9.28,5.51,23.011,15.17,20.34,27.76c-1.6,7.54-8.369,14.14-14.479,18.29c-8.61,5.84-19.65,7.09-29.75,7.86
		c-8.48,0.64-17.39,1.68-25.89,1.31c-8.73-0.38-6.46-12.689-0.631-16.27c0.381-0.23,0.7-0.49,0.98-0.771
		c5.09,2.32,11.61,2.431,17.06,1.66c10.11-1.43,21.19-5.99,28.98-12.67C251.661,190.25,244.55,183.21,239.68,187.38z M279.74,186.14
		c-1.97-7.55-7.149-14.54-13.8-19.989c-13.859-11.36-31.29-18.3-48.12-23.98c-1.08-0.36-2.18-0.72-3.27-1.07
		c-5.61-1.81-8.44,6.15-3.85,9.14c6.3,4.11,2.789,10.13-1.29,15.09l-54.17-79.07c-0.01-0.02-0.02-0.04-0.04-0.07l-0.54-0.77
		c-0.01-0.01-0.02-0.02-0.03-0.04l-5.32-7.76c-0.99,2.25-3.19,3.84-5.78,3.96l2.99,4.36c-6.45,3.64-14.27,5-21.33,6.75
		c-9.08,2.25-18.35,4.55-26.57,9.18c-7.36,4.14-12.72,10.95-13.3,19.53c-0.38,5.8,3.03,9.53,5.75,13.97
		c-0.92,0.54-2.15,0.98-3.03,1.33c-5.39,2.16-11,3.66-16.73,4.59c-9.9,1.61-22.94,1.6-28.44,11.58
		c-5.42,9.819,3.67,20.89,9.55,28.02c7.52,9.141,14.59,18.681,22.26,27.69c5.46,6.399,12.58,13.42,21.07,15.359
		c7.32,1.66,15.19,0.5,22.43-0.979c14.41-2.95,32.92-9.59,41.36-22.521c1.8-2.76-0.011-6.47-2.99-7.34
		c-2.75-0.81-5.92-1.68-8.14-3.569c-0.4-0.341-0.68-0.78-0.78-0.91c0.06-0.11,0.14-0.72,0.19-0.87c1.09-3.19,8.32-7,11.98-8.9
		c10.729-5.569,25.09-11.029,37.42-9.93c2.31,0.2,3.78-0.95,4.42-2.55l3.021,4.41c-6,6.84-13.95,14.62-12.08,24.409
		c0.22,1.16,0.55,2.221,0.96,3.181c-7.24,5.16-11.521,15.21-7.95,23.729c-7.37,6.28-14.5,15.21-10.28,25.21
		c0.5,1.181,1.141,2.28,1.87,3.301c-14.1,3.35-24.03,17.199-17.11,31.47c3.28,6.77,9.21,10.899,16.131,13.3
		c-6.32,0.89-12.78,1.34-19.34,1.34C79.74,296.72,17,233.979,17,156.86C17,79.75,79.74,17,156.86,17
		c77.12,0,139.86,62.75,139.86,139.86c0,12.4-1.62,24.43-4.67,35.88C288.92,189.33,284.81,186.9,279.74,186.14z M146.7,200.09
		c-5.29,4.54-12.66,7.46-18.69,9.66c-8.77,3.21-19.28,6.12-28.71,4.71c-10.77-1.61-19.05-14.47-25.08-22.41
		c-6.9-9.11-15.66-17.49-21.24-27.47c-6.74-12.03,12.14-12.33,19.61-13.44c8.5-1.26,20.4-3.34,26.76-9.68
		c4.74-4.74,1.08-9.9-1.91-14.17c-3.89-5.52-1.45-11.39,3.73-15.19c14.81-10.87,35.61-8.39,51.04-17.87l44.29,64.64
		c-7.45-0.5-15.261,1.55-22.311,3.63c-8.609,2.54-17.21,6.01-24.84,10.78c-5.43,3.399-11.67,8.43-11.76,15.43
		C137.51,194.26,141.86,197.79,146.7,200.09z"/>
	<path d="M215.24,184.28l-0.909,0.62l-0.391-0.58c0.13-0.03,0.261-0.03,0.41-0.021C214.661,184.33,214.96,184.33,215.24,184.28z"/>
	<path d="M215.24,184.28l-0.909,0.62l-0.391-0.58c0.13-0.03,0.261-0.03,0.41-0.021C214.661,184.33,214.96,184.33,215.24,184.28z"/>
	<text transform="matrix(0.8512 -0.5248 0.5248 0.8512 111.8579 179.5742)" font-family="'MyriadPro-Regular'" font-size="31">e</text>
	<text transform="matrix(0.8163 -0.5776 0.5776 0.8163 127.9063 166.6758)" font-family="'MyriadPro-Regular'" font-size="31">r</text>
	<text transform="matrix(0.8346 -0.5508 0.5508 0.8346 136.5537 155.4067)" font-family="'MyriadPro-Regular'" font-size="31">c</text>
	<text transform="matrix(0.9041 -0.4274 0.4274 0.9041 151.2915 147.4321)" font-family="'MyriadPro-Regular'" font-size="31">i</text>
</g>
</svg>
