<?xml version="1.0" encoding="utf-8"?>
<!-- Generator: Adobe Illustrator 16.0.0, SVG Export Plug-In . SVG Version: 6.00 Build 0)  -->
<!DOCTYPE svg PUBLIC "-//W3C//DTD SVG 1.1//EN" "http://www.w3.org/Graphics/SVG/1.1/DTD/svg11.dtd">
<svg version="1.1" id="Calque_1" xmlns="http://www.w3.org/2000/svg" xmlns:xlink="http://www.w3.org/1999/xlink" x="0px" y="0px"
	 width="595.28px" height="841.89px" viewBox="0 0 595.28 841.89" enable-background="new 0 0 595.28 841.89" xml:space="preserve">
<g id="XMLID_1_">
	<g>
		<path fill="#B27C4B" d="M313.538,375.188c15.685,10.571,27.646,26.995,19.623,46.526c-3.995,9.707-12.395,19.109-21.76,23.87
			c-9.868,5.025-21.265,4.691-31.941,6.675l-137.951,0.071c-8.241-0.988-16.475-2.217-24.421-4.63
			c-7.976-2.417-17.21-6.237-20.237-14.668c-1.61-4.474,0.306-9.749,1.956-13.857c2.525-6.292,6.816-11.738,11.867-16.19
			c9.375-8.263,21.6-12.323,33.903-13.314c4.804,5.837,12.471,8.671,20.716,10.233c0.745-0.347,1.639-0.506,2.662-0.388
			c0.358,0.041,0.681,0.119,0.993,0.205c0.367-0.129,0.761-0.225,1.199-0.274c4.008-0.456,7.265-5.315,3.25-8.042
			c-0.298-0.206-0.565-0.427-0.791-0.655c-0.456-0.063-0.903-0.114-1.358-0.176c-7.178-1.047-15.507-2.84-20.007-9.055
			c-5.751-7.929,0.681-19.399,6.428-25.17c6.93-6.954,15.901-11.62,24.87-15.47c0.348,0.563,0.716,1.129,1.144,1.691
			c3.402,4.468,8.746,7.458,14.501,9.398c2.023-0.261,3.804-1.133,4.982-3.061c0.238-0.405,0.456-0.813,0.645-1.234
			c-0.258-0.734-0.337-1.528-0.267-2.315c-0.058-0.107-0.119-0.195-0.167-0.301c-0.761-0.561-1.255-1.342-1.548-2.201
			c-0.319-0.117-0.613-0.272-0.875-0.443c-0.058-0.017-0.107-0.033-0.165-0.049c-0.452-0.102-0.857-0.25-1.216-0.452
			c-4.208-1.662-7.825-4.171-9.425-7.939c-2.006-4.7,3.944-10.669,6.899-13.43c4.071-3.8,8.854-6.883,13.803-9.385
			c8.625-4.363,18.03-7.982,25.556-14.173c6.748-5.545,9.205-12.993,7.8-20.734c10.402,4.518,18.501,17.599,24.011,26.053
			c4.645,7.138,8.153,15.322,8.196,23.963c0.034,9.597-7.51,12.876-14.523,17.576c-5.356,3.602,0.903,11.408,6.225,7.842
			c5.498-3.696,11.384-7.086,14.895-12.41c11.638,1.56,23.148,10.101,24.177,22.419c1.096,13.141-14.843,19.663-24.807,22.976
			c-6.123,2.034-2.05,11.179,4.02,9.159C296.898,390.337,308.015,384.528,313.538,375.188z"/>
		<path d="M280.589,462.225l0.005,0.04l-0.232,0.004C280.436,462.247,280.519,462.227,280.589,462.225z"/>
		<path d="M279.323,462.471c-1.083,0.229-2.028,0.13-2.815-0.202h3.855C280.013,462.329,279.673,462.4,279.323,462.471z"/>
		<path fill="#010202" d="M343.021,424.036c-4.863,11.832-13.928,23.08-25.164,29.408c-11.581,6.52-24.599,6.28-37.268,8.78
			c-0.07,0.002-0.153,0.022-0.227,0.044h-3.855l-131.105,0.063c-0.675,0.265-1.45,0.356-2.314,0.258
			c-18.527-2.141-51.676-5.54-56.227-28.46c-2.769-13.998,6.476-29.181,16.59-38.094c10.237-9.02,23.146-14.309,36.581-15.945
			c-5.974-24.201,20.853-40.936,40.149-49.075c0.557-6.851,5.172-13.467,10.651-18.303c8.571-7.57,18.802-11.98,28.898-17.06
			c4.328-2.18,9.429-4.613,12.505-8.518c3.43-4.356,2.954-8.619,0.707-13.498c-0.917-1.998-0.46-3.787,0.66-5.038
			c0.579-2.148,2.393-4.003,5.216-3.869c17.869,0.857,30.891,21.107,39.336,34.681c5.496,8.846,9.105,19.729,8.037,30.246
			c15.417,2.84,30.572,15.303,30.908,31.819c0.032,1.383-0.051,2.712-0.219,4.001C336.699,377.731,352.885,400.056,343.021,424.036z
			 M311.401,445.585c9.365-4.761,17.765-14.163,21.76-23.87c8.023-19.531-3.938-35.956-19.623-46.526
			c-5.523,9.34-16.64,15.148-27.138,18.642c-6.07,2.02-10.143-7.125-4.02-9.159c9.964-3.313,25.903-9.835,24.807-22.976
			c-1.029-12.318-12.539-20.859-24.177-22.419c-3.511,5.324-9.397,8.713-14.895,12.41c-5.322,3.565-11.582-4.241-6.225-7.842
			c7.013-4.7,14.557-7.979,14.523-17.576c-0.043-8.642-3.551-16.826-8.196-23.963c-5.51-8.455-13.609-21.536-24.011-26.053
			c1.405,7.741-1.052,15.189-7.8,20.734c-7.526,6.191-16.931,9.81-25.556,14.173c-4.948,2.501-9.732,5.585-13.803,9.385
			c-2.955,2.761-8.905,8.73-6.899,13.43c1.6,3.768,5.217,6.277,9.425,7.939c0.359,0.202,0.765,0.35,1.216,0.452
			c0.058,0.017,0.107,0.032,0.165,0.049c0.262,0.171,0.557,0.326,0.875,0.443c0.293,0.859,0.788,1.641,1.548,2.201
			c0.048,0.106,0.109,0.194,0.167,0.301c-0.07,0.787,0.009,1.581,0.267,2.315c-0.189,0.421-0.407,0.829-0.645,1.234
			c-1.178,1.928-2.959,2.8-4.982,3.061c-5.756-1.94-11.1-4.93-14.501-9.398c-0.428-0.563-0.796-1.128-1.144-1.691
			c-8.969,3.851-17.94,8.516-24.87,15.47c-5.747,5.771-12.179,17.241-6.428,25.17c4.5,6.214,12.829,8.008,20.007,9.055
			c0.456,0.063,0.903,0.114,1.358,0.176c0.226,0.228,0.492,0.449,0.791,0.655c4.015,2.727,0.758,7.586-3.25,8.042
			c-0.438,0.05-0.832,0.146-1.199,0.274c-0.312-0.086-0.635-0.164-0.993-0.205c-1.023-0.118-1.917,0.041-2.662,0.388
			c-8.246-1.562-15.912-4.396-20.716-10.233c-12.304,0.991-24.528,5.051-33.903,13.314c-5.051,4.452-9.342,9.898-11.867,16.19
			c-1.65,4.108-3.565,9.384-1.956,13.857c3.026,8.431,12.261,12.251,20.237,14.668c7.946,2.413,16.18,3.642,24.421,4.63
			l137.951-0.071C290.136,450.276,301.533,450.61,311.401,445.585z"/>
	</g>
	<g>
	</g>
</g>
</svg>
