<?xml version="1.0" encoding="utf-8"?>
<!-- Generator: Adobe Illustrator 16.0.0, SVG Export Plug-In . SVG Version: 6.00 Build 0)  -->
<!DOCTYPE svg PUBLIC "-//W3C//DTD SVG 1.1//EN" "http://www.w3.org/Graphics/SVG/1.1/DTD/svg11.dtd">
<svg version="1.1" id="Calque_1" xmlns="http://www.w3.org/2000/svg" xmlns:xlink="http://www.w3.org/1999/xlink" x="0px" y="0px"
	 width="179px" height="300px" viewBox="0 0 179 300" enable-background="new 0 0 179 300" xml:space="preserve">
<g>
	<path fill="#C6C6C6" d="M179,12v288H0V12C0,5.37,5.37,0,12,0h155C173.63,0,179,5.37,179,12z"/>
	<g>
		<rect x="17" y="110" fill="#36A9E1" width="20" height="32"/>
		<polygon fill="#C3E5F0" points="37,114.74 37,120.19 17.09,130.84 17,130.67 17,125.31 36.95,114.65 		"/>
		<polygon fill="#C3E5F0" points="37,123.48 37,125.84 17,136.61 17,134.24 		"/>
	</g>
	<g>
		<rect x="47.5" y="110" fill="#36A9E1" width="20" height="32"/>
		<polygon fill="#C3E5F0" points="67.5,114.74 67.5,120.19 47.59,130.84 47.5,130.67 47.5,125.31 67.45,114.65 		"/>
		<polygon fill="#C3E5F0" points="67.5,123.48 67.5,125.84 47.5,136.61 47.5,134.24 		"/>
	</g>
	<g>
		<rect x="78" y="110" fill="#36A9E1" width="20" height="32"/>
		<polygon fill="#C3E5F0" points="98,114.74 98,120.19 78.09,130.84 78,130.67 78,125.31 97.95,114.65 		"/>
		<polygon fill="#C3E5F0" points="98,123.48 98,125.84 78,136.61 78,134.24 		"/>
	</g>
	<g>
		<rect x="108.5" y="110" fill="#36A9E1" width="20" height="32"/>
		<polygon fill="#C3E5F0" points="128.5,114.74 128.5,120.19 108.59,130.84 108.5,130.67 108.5,125.31 128.45,114.65 		"/>
		<polygon fill="#C3E5F0" points="128.5,123.48 128.5,125.84 108.5,136.61 108.5,134.24 		"/>
	</g>
	<g>
		<rect x="139" y="110" fill="#36A9E1" width="20" height="32"/>
		<polygon fill="#C3E5F0" points="159,114.74 159,120.19 139.09,130.84 139,130.67 139,125.31 158.95,114.65 		"/>
		<polygon fill="#C3E5F0" points="159,123.48 159,125.84 139,136.61 139,134.24 		"/>
	</g>
	<g>
		<rect x="17" y="70.25" fill="#36A9E1" width="20" height="32"/>
		<polygon fill="#C3E5F0" points="37,74.99 37,80.44 17.09,91.09 17,90.92 17,85.56 36.95,74.9 		"/>
		<polygon fill="#C3E5F0" points="37,83.73 37,86.09 17,96.86 17,94.49 		"/>
	</g>
	<g>
		<rect x="47.5" y="70.25" fill="#36A9E1" width="20" height="32"/>
		<polygon fill="#C3E5F0" points="67.5,74.99 67.5,80.44 47.59,91.09 47.5,90.92 47.5,85.56 67.45,74.9 		"/>
		<polygon fill="#C3E5F0" points="67.5,83.73 67.5,86.09 47.5,96.86 47.5,94.49 		"/>
	</g>
	<g>
		<rect x="78" y="70.25" fill="#36A9E1" width="20" height="32"/>
		<polygon fill="#C3E5F0" points="98,74.99 98,80.44 78.09,91.09 78,90.92 78,85.56 97.95,74.9 		"/>
		<polygon fill="#C3E5F0" points="98,83.73 98,86.09 78,96.86 78,94.49 		"/>
	</g>
	<g>
		<rect x="108.5" y="70.25" fill="#36A9E1" width="20" height="32"/>
		<polygon fill="#C3E5F0" points="128.5,74.99 128.5,80.44 108.59,91.09 108.5,90.92 108.5,85.56 128.45,74.9 		"/>
		<polygon fill="#C3E5F0" points="128.5,83.73 128.5,86.09 108.5,96.86 108.5,94.49 		"/>
	</g>
	<g>
		<rect x="139" y="70.25" fill="#36A9E1" width="20" height="32"/>
		<polygon fill="#C3E5F0" points="159,74.99 159,80.44 139.09,91.09 139,90.92 139,85.56 158.95,74.9 		"/>
		<polygon fill="#C3E5F0" points="159,83.73 159,86.09 139,96.86 139,94.49 		"/>
	</g>
	<g>
		<rect x="17" y="30.25" fill="#36A9E1" width="20" height="32"/>
		<polygon fill="#C3E5F0" points="37,34.99 37,40.44 17.09,51.09 17,50.92 17,45.56 36.95,34.9 		"/>
		<polygon fill="#C3E5F0" points="37,43.73 37,46.09 17,56.86 17,54.49 		"/>
	</g>
	<g>
		<rect x="47.5" y="30.25" fill="#36A9E1" width="20" height="32"/>
		<polygon fill="#C3E5F0" points="67.5,34.99 67.5,40.44 47.59,51.09 47.5,50.92 47.5,45.56 67.45,34.9 		"/>
		<polygon fill="#C3E5F0" points="67.5,43.73 67.5,46.09 47.5,56.86 47.5,54.49 		"/>
	</g>
	<g>
		<rect x="78" y="30.25" fill="#36A9E1" width="20" height="32"/>
		<polygon fill="#C3E5F0" points="98,34.99 98,40.44 78.09,51.09 78,50.92 78,45.56 97.95,34.9 		"/>
		<polygon fill="#C3E5F0" points="98,43.73 98,46.09 78,56.86 78,54.49 		"/>
	</g>
	<g>
		<rect x="108.5" y="30.25" fill="#36A9E1" width="20" height="32"/>
		<polygon fill="#C3E5F0" points="128.5,34.99 128.5,40.44 108.59,51.09 108.5,50.92 108.5,45.56 128.45,34.9 		"/>
		<polygon fill="#C3E5F0" points="128.5,43.73 128.5,46.09 108.5,56.86 108.5,54.49 		"/>
	</g>
	<g>
		<rect x="139" y="30.25" fill="#36A9E1" width="20" height="32"/>
		<polygon fill="#C3E5F0" points="159,34.99 159,40.44 139.09,51.09 139,50.92 139,45.56 158.95,34.9 		"/>
		<polygon fill="#C3E5F0" points="159,43.73 159,46.09 139,56.86 139,54.49 		"/>
	</g>
	<g>
		<rect x="17" y="151.61" fill="#36A9E1" width="20" height="32"/>
		<polygon fill="#C3E5F0" points="37,156.35 37,161.8 17.09,172.45 17,172.28 17,166.92 36.95,156.26 		"/>
		<polygon fill="#C3E5F0" points="37,165.09 37,167.45 17,178.22 17,175.85 		"/>
	</g>
	<g>
		<rect x="47.5" y="151.61" fill="#36A9E1" width="20" height="32"/>
		<polygon fill="#C3E5F0" points="67.5,156.35 67.5,161.8 47.59,172.45 47.5,172.28 47.5,166.92 67.45,156.26 		"/>
		<polygon fill="#C3E5F0" points="67.5,165.09 67.5,167.45 47.5,178.22 47.5,175.85 		"/>
	</g>
	<g>
		<rect x="78" y="151.61" fill="#36A9E1" width="20" height="32"/>
		<polygon fill="#C3E5F0" points="98,156.35 98,161.8 78.09,172.45 78,172.28 78,166.92 97.95,156.26 		"/>
		<polygon fill="#C3E5F0" points="98,165.09 98,167.45 78,178.22 78,175.85 		"/>
	</g>
	<g>
		<rect x="108.5" y="151.61" fill="#36A9E1" width="20" height="32"/>
		<polygon fill="#C3E5F0" points="128.5,156.35 128.5,161.8 108.59,172.45 108.5,172.28 108.5,166.92 128.45,156.26 		"/>
		<polygon fill="#C3E5F0" points="128.5,165.09 128.5,167.45 108.5,178.22 108.5,175.85 		"/>
	</g>
	<g>
		<rect x="139" y="151.61" fill="#36A9E1" width="20" height="32"/>
		<polygon fill="#C3E5F0" points="159,156.35 159,161.8 139.09,172.45 139,172.28 139,166.92 158.95,156.26 		"/>
		<polygon fill="#C3E5F0" points="159,165.09 159,167.45 139,178.22 139,175.85 		"/>
	</g>
	<g>
		<rect x="17" y="191" fill="#36A9E1" width="20" height="32"/>
		<polygon fill="#C3E5F0" points="37,195.74 37,201.19 17.09,211.84 17,211.67 17,206.31 36.95,195.65 		"/>
		<polygon fill="#C3E5F0" points="37,204.48 37,206.84 17,217.609 17,215.24 		"/>
	</g>
	<g>
		<rect x="47.5" y="191" fill="#36A9E1" width="20" height="32"/>
		<polygon fill="#C3E5F0" points="67.5,195.74 67.5,201.19 47.59,211.84 47.5,211.67 47.5,206.31 67.45,195.65 		"/>
		<polygon fill="#C3E5F0" points="67.5,204.48 67.5,206.84 47.5,217.609 47.5,215.24 		"/>
	</g>
	<g>
		<rect x="78" y="191" fill="#36A9E1" width="20" height="32"/>
		<polygon fill="#C3E5F0" points="98,195.74 98,201.19 78.09,211.84 78,211.67 78,206.31 97.95,195.65 		"/>
		<polygon fill="#C3E5F0" points="98,204.48 98,206.84 78,217.609 78,215.24 		"/>
	</g>
	<g>
		<rect x="108.5" y="191" fill="#36A9E1" width="20" height="32"/>
		<polygon fill="#C3E5F0" points="128.5,195.74 128.5,201.19 108.59,211.84 108.5,211.67 108.5,206.31 128.45,195.65 		"/>
		<polygon fill="#C3E5F0" points="128.5,204.48 128.5,206.84 108.5,217.609 108.5,215.24 		"/>
	</g>
	<g>
		<rect x="139" y="191" fill="#36A9E1" width="20" height="32"/>
		<polygon fill="#C3E5F0" points="159,195.74 159,201.19 139.09,211.84 139,211.67 139,206.31 158.95,195.65 		"/>
		<polygon fill="#C3E5F0" points="159,204.48 159,206.84 139,217.609 139,215.24 		"/>
	</g>
	<g>
		<rect x="139" y="232" fill="#36A9E1" width="20" height="32"/>
		<polygon fill="#C3E5F0" points="159,236.74 159,242.189 139.09,252.84 139,252.67 139,247.311 158.95,236.65 		"/>
		<polygon fill="#C3E5F0" points="159,245.48 159,247.84 139,258.609 139,256.24 		"/>
	</g>
	<g>
		<rect x="17" y="232" fill="#36A9E1" width="20" height="32"/>
		<polygon fill="#C3E5F0" points="37,236.74 37,242.189 17.09,252.84 17,252.67 17,247.311 36.95,236.65 		"/>
		<polygon fill="#C3E5F0" points="37,245.48 37,247.84 17,258.609 17,256.24 		"/>
	</g>
	<g>
		<rect x="57.5" y="232" fill="#36A9E1" width="61" height="68"/>
		<polygon fill="#C3E5F0" points="88.079,260.783 88.079,269.114 57.637,285.398 57.5,285.139 57.5,276.943 88.002,260.645 		"/>
		<polygon fill="#C3E5F0" points="88.079,274.146 88.079,277.754 57.5,294.22 57.5,290.598 		"/>
		<polygon fill="#C3E5F0" points="118.579,245.619 118.579,253.95 88.137,270.234 88,269.975 88,261.779 118.502,245.48 		"/>
		<polygon fill="#C3E5F0" points="118.579,258.981 118.579,262.59 88,279.056 88,275.434 		"/>
	</g>
</g>
</svg>
