<?xml version="1.0" encoding="utf-8"?>
<!-- Generator: Adobe Illustrator 16.0.0, SVG Export Plug-In . SVG Version: 6.00 Build 0)  -->
<!DOCTYPE svg PUBLIC "-//W3C//DTD SVG 1.1//EN" "http://www.w3.org/Graphics/SVG/1.1/DTD/svg11.dtd">
<svg version="1.1" id="Calque_1" xmlns="http://www.w3.org/2000/svg" xmlns:xlink="http://www.w3.org/1999/xlink" x="0px" y="0px"
	 width="351.67px" height="518.849px" viewBox="0 0 351.67 518.849" enable-background="new 0 0 351.67 518.849"
	 xml:space="preserve">
<rect x="151.835" y="222.833" fill="#936037" stroke="#936037" stroke-width="1.3631" stroke-miterlimit="10" width="48" height="295.334"/>
<path fill="#006633" stroke="#006633" stroke-miterlimit="10" d="M328.42,201.32c5.061,6.28,8.08,14.26,8.08,22.96
	c0,13.13-6.9,24.65-17.281,31.13c2.971,7.33,4.611,15.351,4.611,23.75c0,34.979-28.35,63.34-63.33,63.34
	c-16.461,0-31.441-6.28-42.701-16.56c0.461,2.33,0.701,4.75,0.701,7.22c0,20.62-16.711,37.34-37.33,37.34
	c-19.49,0-35.5-14.939-37.189-34c-1.531,0.43-3.141,0.66-4.811,0.66c-8.51,0-15.65-5.9-17.51-13.85
	c-9.68-2.101-17.061-10.4-17.76-20.53h-0.01c-4.852,1.55-10.031,2.38-15.391,2.38c-26.5,0-48.26-20.351-50.48-46.28
	c-7.99-8.96-12.85-20.77-12.85-33.72c0-10.601,3.25-20.431,8.82-28.56c-20-11.33-33.49-32.811-33.49-57.44c0-36.45,29.549-66,66-66
	c7.74,0,15.16,1.33,22.061,3.79c1.51-42.48,36.42-76.45,79.27-76.45c41.459,0,75.49,31.8,79.029,72.33
	c8.221-2.95,17.08-4.55,26.311-4.55c43.08,0,78,34.92,78,78C351.17,167.761,342.481,187.22,328.42,201.32z"/>
<path fill="#008D36" stroke="#008D36" stroke-miterlimit="10" d="M313.136,197.827c0,58.18-47.16,105.34-105.329,105.34
	c-20,0-38.701-5.57-54.631-15.26c-7.279,19.06-25.73,32.59-47.34,32.59c-27.99,0-50.67-22.68-50.67-50.67
	c0-13.46,5.25-25.7,13.82-34.771c-3.68-5.51-5.82-12.119-5.82-19.229c0-7.431,2.34-14.32,6.32-19.96
	c-18.08-9.99-30.32-29.25-30.32-51.37c0-26.42,17.471-48.77,41.49-56.11c3.55-10.22,13.15-17.6,24.51-17.88v-0.01
	c0-24.3,19.7-44,44-44c23.93,0,43.4,19.11,43.99,42.89c2.24-1,4.73-1.56,7.34-1.56c5.15,0,9.8,2.16,13.07,5.63
	c5.14-10.82,16.159-18.29,28.93-18.29c17.68,0,32,14.32,32,32c0,8.72-3.5,16.64-9.16,22.42
	C294.117,128.387,313.136,160.887,313.136,197.827z"/>
<path fill="#3AAA35" stroke="#3AAA35" stroke-miterlimit="10" d="M233.792,91.031c23.238,17.063,28.843,49.204,13.267,73.037
	c11.011,16.634,11.133,39.042-1.368,56.065c-3.84,5.231-8.524,9.483-13.735,12.692c6.237,9.889,6.165,22.999-1.181,33.002
	c-9.594,13.066-27.962,15.88-41.028,6.286c-4.715-3.462-8.096-8.065-10.028-13.157c-6.845,2.43-14.751,1.538-21.054-3.09
	c-3.796-2.788-6.473-6.527-7.948-10.65c-24.942,14.674-57.264,14.054-82.075-4.163c-33.241-24.408-40.403-71.139-15.995-104.381
	c14.524-19.78,36.958-30.329,59.748-30.48c7.977-9.377,19.163-14.711,30.737-15.555c-0.987-5.972,0.343-12.328,4.208-17.592
	c7.628-10.39,22.229-12.634,32.619-5.005c4.829,3.545,7.908,8.61,9.023,14.069C203.964,78.447,220.395,81.194,233.792,91.031z"/>
</svg>
