<?xml version="1.0" encoding="utf-8"?>
<!-- Generator: Adobe Illustrator 16.0.0, SVG Export Plug-In . SVG Version: 6.00 Build 0)  -->
<!DOCTYPE svg PUBLIC "-//W3C//DTD SVG 1.1//EN" "http://www.w3.org/Graphics/SVG/1.1/DTD/svg11.dtd">
<svg version="1.1" id="Calque_1" xmlns="http://www.w3.org/2000/svg" xmlns:xlink="http://www.w3.org/1999/xlink" x="0px" y="0px"
	 width="494.228px" height="241.083px" viewBox="0 0 494.228 241.083" enable-background="new 0 0 494.228 241.083"
	 xml:space="preserve">
<g>
	<path fill="#C6C6C6" d="M265.095,9.643v231.439H105.118V9.643c0-5.328,4.8-9.643,10.725-9.643H254.37
		C260.296,0,265.095,4.315,265.095,9.643z"/>
	<g>
		<rect x="120.312" y="88.397" fill="#36A9E1" width="17.875" height="25.715"/>
		<polygon fill="#C3E5F0" points="138.186,92.207 138.186,96.586 120.392,105.145 120.312,105.008 120.312,100.7 138.142,92.133 		
			"/>
		<polygon fill="#C3E5F0" points="138.186,99.23 138.186,101.126 120.312,109.781 120.312,107.877 		"/>
	</g>
	<g>
		<rect x="147.571" y="88.397" fill="#36A9E1" width="17.874" height="25.715"/>
		<polygon fill="#C3E5F0" points="165.445,92.207 165.445,96.586 147.651,105.145 147.571,105.008 147.571,100.7 165.4,92.133 		"/>
		<polygon fill="#C3E5F0" points="165.445,99.23 165.445,101.126 147.571,109.781 147.571,107.877 		"/>
	</g>
	<g>
		<rect x="174.829" y="88.397" fill="#36A9E1" width="17.875" height="25.715"/>
		<polygon fill="#C3E5F0" points="192.704,92.207 192.704,96.586 174.91,105.145 174.829,105.008 174.829,100.7 192.659,92.133 		
			"/>
		<polygon fill="#C3E5F0" points="192.704,99.23 192.704,101.126 174.829,109.781 174.829,107.877 		"/>
	</g>
	<g>
		<rect x="202.087" y="88.397" fill="#36A9E1" width="17.875" height="25.715"/>
		<polygon fill="#C3E5F0" points="219.962,92.207 219.962,96.586 202.167,105.145 202.087,105.008 202.087,100.7 219.917,92.133 		
			"/>
		<polygon fill="#C3E5F0" points="219.962,99.23 219.962,101.126 202.087,109.781 202.087,107.877 		"/>
	</g>
	<g>
		<rect x="229.346" y="88.397" fill="#36A9E1" width="17.875" height="25.715"/>
		<polygon fill="#C3E5F0" points="247.222,92.207 247.222,96.586 229.426,105.145 229.346,105.008 229.346,100.7 247.177,92.133 		
			"/>
		<polygon fill="#C3E5F0" points="247.222,99.23 247.222,101.126 229.346,109.781 229.346,107.877 		"/>
	</g>
	<g>
		<rect x="120.312" y="56.454" fill="#36A9E1" width="17.875" height="25.715"/>
		<polygon fill="#C3E5F0" points="138.186,60.263 138.186,64.642 120.392,73.201 120.312,73.064 120.312,68.757 138.142,60.19 		"/>
		<polygon fill="#C3E5F0" points="138.186,67.286 138.186,69.183 120.312,77.837 120.312,75.933 		"/>
	</g>
	<g>
		<rect x="147.571" y="56.454" fill="#36A9E1" width="17.874" height="25.715"/>
		<polygon fill="#C3E5F0" points="165.445,60.263 165.445,64.642 147.651,73.201 147.571,73.064 147.571,68.757 165.4,60.19 		"/>
		<polygon fill="#C3E5F0" points="165.445,67.286 165.445,69.183 147.571,77.837 147.571,75.933 		"/>
	</g>
	<g>
		<rect x="174.829" y="56.454" fill="#36A9E1" width="17.875" height="25.715"/>
		<polygon fill="#C3E5F0" points="192.704,60.263 192.704,64.642 174.91,73.201 174.829,73.064 174.829,68.757 192.659,60.19 		"/>
		<polygon fill="#C3E5F0" points="192.704,67.286 192.704,69.183 174.829,77.837 174.829,75.933 		"/>
	</g>
	<g>
		<rect x="202.087" y="56.454" fill="#36A9E1" width="17.875" height="25.715"/>
		<polygon fill="#C3E5F0" points="219.962,60.263 219.962,64.642 202.167,73.201 202.087,73.064 202.087,68.757 219.917,60.19 		"/>
		<polygon fill="#C3E5F0" points="219.962,67.286 219.962,69.183 202.087,77.837 202.087,75.933 		"/>
	</g>
	<g>
		<rect x="229.346" y="56.454" fill="#36A9E1" width="17.875" height="25.715"/>
		<polygon fill="#C3E5F0" points="247.222,60.263 247.222,64.642 229.426,73.201 229.346,73.064 229.346,68.757 247.177,60.19 		"/>
		<polygon fill="#C3E5F0" points="247.222,67.286 247.222,69.183 229.346,77.837 229.346,75.933 		"/>
	</g>
	<g>
		<rect x="120.312" y="24.309" fill="#36A9E1" width="17.875" height="25.715"/>
		<polygon fill="#C3E5F0" points="138.186,28.118 138.186,32.498 120.392,41.057 120.312,40.919 120.312,36.612 138.142,28.046 		
			"/>
		<polygon fill="#C3E5F0" points="138.186,35.142 138.186,37.039 120.312,45.693 120.312,43.789 		"/>
	</g>
	<g>
		<rect x="147.571" y="24.309" fill="#36A9E1" width="17.874" height="25.715"/>
		<polygon fill="#C3E5F0" points="165.445,28.118 165.445,32.498 147.651,41.057 147.571,40.919 147.571,36.612 165.4,28.046 		"/>
		<polygon fill="#C3E5F0" points="165.445,35.142 165.445,37.039 147.571,45.693 147.571,43.789 		"/>
	</g>
	<g>
		<rect x="174.829" y="24.309" fill="#36A9E1" width="17.875" height="25.715"/>
		<polygon fill="#C3E5F0" points="192.704,28.118 192.704,32.498 174.91,41.057 174.829,40.919 174.829,36.612 192.659,28.046 		"/>
		<polygon fill="#C3E5F0" points="192.704,35.142 192.704,37.039 174.829,45.693 174.829,43.789 		"/>
	</g>
	<g>
		<rect x="202.087" y="24.309" fill="#36A9E1" width="17.875" height="25.715"/>
		<polygon fill="#C3E5F0" points="219.962,28.118 219.962,32.498 202.167,41.057 202.087,40.919 202.087,36.612 219.917,28.046 		
			"/>
		<polygon fill="#C3E5F0" points="219.962,35.142 219.962,37.039 202.087,45.693 202.087,43.789 		"/>
	</g>
	<g>
		<rect x="229.346" y="24.309" fill="#36A9E1" width="17.875" height="25.715"/>
		<polygon fill="#C3E5F0" points="247.222,28.118 247.222,32.498 229.426,41.057 229.346,40.919 229.346,36.612 247.177,28.046 		
			"/>
		<polygon fill="#C3E5F0" points="247.222,35.142 247.222,37.039 229.346,45.693 229.346,43.789 		"/>
	</g>
	<g>
		<rect x="120.312" y="121.834" fill="#36A9E1" width="17.875" height="25.716"/>
		<polygon fill="#C3E5F0" points="138.186,125.644 138.186,130.023 120.392,138.583 120.312,138.445 120.312,134.138 
			138.142,125.572 		"/>
		<polygon fill="#C3E5F0" points="138.186,132.667 138.186,134.564 120.312,143.219 120.312,141.314 		"/>
	</g>
	<g>
		<rect x="147.571" y="121.834" fill="#36A9E1" width="17.874" height="25.716"/>
		<polygon fill="#C3E5F0" points="165.445,125.644 165.445,130.023 147.651,138.583 147.571,138.445 147.571,134.138 165.4,125.572 
					"/>
		<polygon fill="#C3E5F0" points="165.445,132.667 165.445,134.564 147.571,143.219 147.571,141.314 		"/>
	</g>
	<g>
		<rect x="174.829" y="121.834" fill="#36A9E1" width="17.875" height="25.716"/>
		<polygon fill="#C3E5F0" points="192.704,125.644 192.704,130.023 174.91,138.583 174.829,138.445 174.829,134.138 
			192.659,125.572 		"/>
		<polygon fill="#C3E5F0" points="192.704,132.667 192.704,134.564 174.829,143.219 174.829,141.314 		"/>
	</g>
	<g>
		<rect x="202.087" y="121.834" fill="#36A9E1" width="17.875" height="25.716"/>
		<polygon fill="#C3E5F0" points="219.962,125.644 219.962,130.023 202.167,138.583 202.087,138.445 202.087,134.138 
			219.917,125.572 		"/>
		<polygon fill="#C3E5F0" points="219.962,132.667 219.962,134.564 202.087,143.219 202.087,141.314 		"/>
	</g>
	<g>
		<rect x="229.346" y="121.834" fill="#36A9E1" width="17.875" height="25.716"/>
		<polygon fill="#C3E5F0" points="247.222,125.644 247.222,130.023 229.426,138.583 229.346,138.445 229.346,134.138 
			247.177,125.572 		"/>
		<polygon fill="#C3E5F0" points="247.222,132.667 247.222,134.564 229.346,143.219 229.346,141.314 		"/>
	</g>
	<g>
		<rect x="120.312" y="153.49" fill="#36A9E1" width="17.875" height="25.715"/>
		<polygon fill="#C3E5F0" points="138.186,157.298 138.186,161.677 120.392,170.236 120.312,170.1 120.312,165.792 138.142,157.226 
					"/>
		<polygon fill="#C3E5F0" points="138.186,164.322 138.186,166.218 120.312,174.873 120.312,172.969 		"/>
	</g>
	<g>
		<rect x="147.571" y="153.49" fill="#36A9E1" width="17.874" height="25.715"/>
		<polygon fill="#C3E5F0" points="165.445,157.298 165.445,161.677 147.651,170.236 147.571,170.1 147.571,165.792 165.4,157.226 		
			"/>
		<polygon fill="#C3E5F0" points="165.445,164.322 165.445,166.218 147.571,174.873 147.571,172.969 		"/>
	</g>
	<g>
		<rect x="174.829" y="153.49" fill="#36A9E1" width="17.875" height="25.715"/>
		<polygon fill="#C3E5F0" points="192.704,157.298 192.704,161.677 174.91,170.236 174.829,170.1 174.829,165.792 192.659,157.226 
					"/>
		<polygon fill="#C3E5F0" points="192.704,164.322 192.704,166.218 174.829,174.873 174.829,172.969 		"/>
	</g>
	<g>
		<rect x="202.087" y="153.49" fill="#36A9E1" width="17.875" height="25.715"/>
		<polygon fill="#C3E5F0" points="219.962,157.298 219.962,161.677 202.167,170.236 202.087,170.1 202.087,165.792 219.917,157.226 
					"/>
		<polygon fill="#C3E5F0" points="219.962,164.322 219.962,166.218 202.087,174.873 202.087,172.969 		"/>
	</g>
	<g>
		<rect x="229.346" y="153.49" fill="#36A9E1" width="17.875" height="25.715"/>
		<polygon fill="#C3E5F0" points="247.222,157.298 247.222,161.677 229.426,170.236 229.346,170.1 229.346,165.792 247.177,157.226 
					"/>
		<polygon fill="#C3E5F0" points="247.222,164.322 247.222,166.218 229.346,174.873 229.346,172.969 		"/>
	</g>
	<g>
		<rect x="229.346" y="186.437" fill="#36A9E1" width="17.875" height="25.716"/>
		<polygon fill="#C3E5F0" points="247.222,190.247 247.222,194.625 229.426,203.184 229.346,203.048 229.346,198.741 
			247.177,190.174 		"/>
		<polygon fill="#C3E5F0" points="247.222,197.27 247.222,199.166 229.346,207.821 229.346,205.917 		"/>
	</g>
	<g>
		<rect x="120.312" y="186.437" fill="#36A9E1" width="17.875" height="25.716"/>
		<polygon fill="#C3E5F0" points="138.186,190.247 138.186,194.625 120.392,203.184 120.312,203.048 120.312,198.741 
			138.142,190.174 		"/>
		<polygon fill="#C3E5F0" points="138.186,197.27 138.186,199.166 120.312,207.821 120.312,205.917 		"/>
	</g>
	<g>
		<rect x="156.507" y="186.437" fill="#36A9E1" width="54.518" height="54.646"/>
		<polygon fill="#C3E5F0" points="183.836,209.568 183.836,216.262 156.629,229.348 156.507,229.139 156.507,222.554 
			183.768,209.457 		"/>
		<polygon fill="#C3E5F0" points="183.836,220.306 183.836,223.206 156.507,236.437 156.507,233.527 		"/>
		<polygon fill="#C3E5F0" points="211.095,197.381 211.095,204.076 183.888,217.163 183.766,216.955 183.766,210.368 
			211.027,197.27 		"/>
		<polygon fill="#C3E5F0" points="211.095,208.12 211.095,211.019 183.766,224.251 183.766,221.34 		"/>
	</g>
</g>
<g id="XMLID_1_">
	<g>
		<path fill="#006633" d="M117.152,78.492c2.498-2.296,4.042-5.438,4.042-8.902c0-2.776-0.989-5.344-2.681-7.438
			c0.695-0.038,1.39-0.057,2.098-0.057c19.022,0,34.438,13.862,34.438,30.966c0,8.53-3.838,16.252-10.041,21.855l-6.764-0.252
			c0.007-0.378,0.014-0.757,0.014-1.136C138.258,98.858,129.859,85.956,117.152,78.492z"/>
		<path fill="#008D36" d="M118.513,62.151c1.691,2.095,2.681,4.663,2.681,7.438c0,3.464-1.544,6.606-4.042,8.902l-6.673,0.385
			c-1.642-2.978-4.077-5.653-7.255-7.754c-3.375-2.227-7.178-3.54-11.058-3.981l0.603-4.126c0.562,0.322,1.074,0.7,1.523,1.129
			c2.273-4.291,7.136-7.256,12.777-7.256c0.112,0,0.225,0,0.337,0.006C111.98,56.99,116.015,59.04,118.513,62.151z"/>
		<path fill="#936037" d="M88.229,180.096v60.613H67.031v-64.285c3.017,3.444,7.697,5.659,12.953,5.659
			C82.987,182.083,85.808,181.358,88.229,180.096z"/>
		<path fill="#3AAA35" d="M110.479,78.876c3.642,6.619,3.347,14.72-1.396,21.244c4.855,6.605,4.912,15.501-0.611,22.265
			c-1.691,2.076-3.761,3.761-6.063,5.035c2.758,3.931,2.723,9.136-0.519,13.104c-3.228,3.942-8.694,5.533-13.662,4.391
			c-1.565-0.354-3.073-0.984-4.456-1.893c-2.084-1.375-3.572-3.205-4.428-5.224c-3.024,0.965-6.512,0.605-9.297-1.23
			c-1.319-0.871-2.336-1.981-3.017-3.212c-0.189-0.328-0.351-0.669-0.491-1.016c-11.017,5.823-25.289,5.577-36.242-1.653
			c-0.435-0.283-0.856-0.58-1.27-0.883c-6.182-4.505-10.097-10.657-11.55-17.225c-1.031-4.65-0.821-9.514,0.702-14.151v-0.006
			c1.045-3.211,2.729-6.316,5.059-9.174c6.414-7.855,16.314-12.044,26.376-12.107c3.522-3.723,8.462-5.836,13.578-6.17
			c-0.435-2.373,0.147-4.896,1.853-6.984C68.413,59.86,74.861,58.971,79.45,62c2.133,1.407,3.495,3.413,3.986,5.583
			c2.842-0.625,5.803-0.776,8.729-0.442c3.88,0.442,7.683,1.754,11.058,3.981C106.402,73.224,108.837,75.898,110.479,78.876z"/>
		<path fill="#006633" d="M67.031,150.556c0.217-0.416,0.414-0.839,0.596-1.269c6.091,3.332,13.093,5.439,20.602,5.943
			c1.165,0.082,2.336,0.12,3.522,0.12c25.26,0,45.819-18.113,46.493-40.688l6.764,0.252c2.231,2.492,3.564,5.66,3.564,9.117
			c0,5.212-3.045,9.786-7.634,12.354c1.312,2.915,2.042,6.095,2.042,9.433c0,13.887-12.518,25.148-27.969,25.148
			c-7.263,0-13.879-2.492-18.854-6.574c0.204,0.922,0.309,1.887,0.309,2.865c0,5.488-3.312,10.277-8.238,12.839
			c-2.421,1.262-5.242,1.987-8.245,1.987c-5.256,0-9.936-2.215-12.953-5.659c-1.93-2.195-3.179-4.896-3.466-7.843
			c-0.674,0.171-1.39,0.266-2.126,0.266c-3.754,0-6.905-2.341-7.726-5.502c-1.277-0.246-2.463-0.72-3.501-1.363
			C57.698,160.935,63.95,156.543,67.031,150.556z"/>
		<path fill="#006633" d="M94.291,64.145c-0.449-0.429-0.961-0.808-1.523-1.129c-1.228-0.7-2.68-1.104-4.245-1.104
			c-1.158,0-2.252,0.221-3.242,0.618C85.021,53.091,76.419,45.5,65.852,45.5c-10.729,0-19.423,7.824-19.423,17.47v0.006
			c-2.792,0.063-5.347,0.997-7.333,2.511c0.695-16.846,16.09-30.31,35-30.31c15.549,0,28.727,9.11,33.309,21.716
			c-0.112-0.006-0.225-0.006-0.337-0.006C101.427,56.889,96.564,59.854,94.291,64.145z"/>
		<path fill="#008D36" d="M39.055,65.52c0.014-0.006,0.028-0.019,0.042-0.032v0.044C39.083,65.526,39.069,65.526,39.055,65.52z"/>
		<path fill="#008D36" d="M29.028,129.805c0.414,0.303,0.835,0.6,1.27,0.883c10.953,7.23,25.225,7.477,36.242,1.653
			c0.14,0.347,0.302,0.688,0.491,1.016c0.681,1.23,1.698,2.341,3.017,3.212c2.786,1.836,6.273,2.195,9.297,1.23
			c0.856,2.019,2.344,3.849,4.428,5.224c1.382,0.908,2.891,1.539,4.456,1.893c4.968,1.143,10.434-0.448,13.662-4.391
			c3.242-3.969,3.277-9.174,0.519-13.104c2.302-1.274,4.372-2.959,6.063-5.035c5.522-6.764,5.466-15.66,0.611-22.265
			c4.743-6.524,5.038-14.625,1.396-21.244l6.673-0.385c12.707,7.464,21.106,20.366,21.106,35.035c0,0.379-0.007,0.757-0.014,1.136
			c-0.674,22.575-21.233,40.688-46.493,40.688c-1.186,0-2.358-0.038-3.522-0.12c-7.508-0.504-14.511-2.611-20.602-5.943
			c-0.182,0.43-0.379,0.853-0.596,1.269c-3.081,5.987-9.333,10.379-16.819,11.426c-1.137,0.164-2.302,0.246-3.487,0.246
			c-7.543,0-14.216-3.356-18.272-8.498c-2.582-3.281-4.104-7.281-4.104-11.615C24.348,137.477,26.095,133.206,29.028,129.805z"/>
		<path fill="#008D36" d="M65.852,45.5c10.567,0,19.169,7.59,19.429,17.029c0.989-0.397,2.084-0.618,3.242-0.618
			c1.565,0,3.018,0.404,4.245,1.104l-0.603,4.126c-2.926-0.334-5.887-0.183-8.729,0.442c-0.491-2.17-1.853-4.177-3.986-5.583
			c-4.589-3.029-11.037-2.139-14.405,1.987c-1.705,2.088-2.288,4.612-1.853,6.984c-5.115,0.334-10.055,2.448-13.578,6.17
			c-10.062,0.063-19.962,4.252-26.376,12.107c-2.33,2.858-4.014,5.962-5.059,9.174c-0.589-1.937-0.898-3.969-0.898-6.07
			c0-10.492,7.718-19.363,18.321-22.278c0.688-1.779,1.895-3.344,3.452-4.555c0.014,0.006,0.028,0.006,0.042,0.012v-0.044
			c1.986-1.514,4.54-2.448,7.333-2.511v-0.006C46.429,53.324,55.123,45.5,65.852,45.5z"/>
		<path fill="#006633" d="M24.348,142.115c0,4.334,1.522,8.334,4.104,11.615c-6.462-3.13-11.016-9.048-11.676-15.963
			c-3.529-3.559-5.669-8.246-5.669-13.388c0-4.208,1.431-8.114,3.894-11.338l2.477-0.461c1.453,6.568,5.368,12.72,11.55,17.225
			C26.095,133.206,24.348,137.477,24.348,142.115z"/>
		<path fill="#006633" d="M15.001,113.042c-8.834-4.499-14.792-13.029-14.792-22.808c0-14.474,13.051-26.203,29.141-26.203
			c3.41,0,6.666,0.524,9.704,1.489c-1.558,1.211-2.765,2.776-3.452,4.555C25,72.99,17.282,81.861,17.282,92.353
			c0,2.101,0.309,4.133,0.898,6.07v0.006c-1.522,4.637-1.733,9.501-0.702,14.151L15.001,113.042z"/>
	</g>
	<g>
		<polyline fill="none" stroke="#936037" stroke-width="0.5707" stroke-miterlimit="10" points="88.229,180.096 88.229,240.709 
			67.031,240.709 67.031,176.424 		"/>
		<path fill="none" stroke="#006633" stroke-width="0.4187" stroke-miterlimit="10" d="M118.513,62.151
			c0.695-0.038,1.39-0.057,2.098-0.057c19.022,0,34.438,13.862,34.438,30.966c0,8.53-3.838,16.252-10.041,21.855
			c2.231,2.492,3.564,5.66,3.564,9.117c0,5.212-3.045,9.786-7.634,12.354c1.312,2.915,2.042,6.095,2.042,9.433
			c0,13.887-12.518,25.148-27.969,25.148c-7.263,0-13.879-2.492-18.854-6.574c0.204,0.922,0.309,1.887,0.309,2.865
			c0,5.488-3.312,10.277-8.238,12.839c-2.421,1.262-5.242,1.987-8.245,1.987c-5.256,0-9.936-2.215-12.953-5.659
			c-1.93-2.195-3.179-4.896-3.466-7.843c-0.674,0.171-1.39,0.266-2.126,0.266c-3.754,0-6.905-2.341-7.726-5.502
			c-1.277-0.246-2.463-0.72-3.501-1.363"/>
		<path fill="none" stroke="#006633" stroke-width="0.4187" stroke-miterlimit="10" d="M107.405,56.895
			c-4.582-12.606-17.759-21.716-33.309-21.716c-18.91,0-34.305,13.464-35,30.31"/>
		<path fill="none" stroke="#006633" stroke-width="0.4187" stroke-miterlimit="10" d="M39.055,65.52
			c-3.038-0.965-6.294-1.489-9.704-1.489c-16.09,0-29.141,11.729-29.141,26.203c0,9.779,5.958,18.31,14.792,22.808
			c-2.463,3.224-3.894,7.129-3.894,11.338c0,5.142,2.14,9.829,5.669,13.388c0.66,6.915,5.213,12.833,11.676,15.963"/>
		<path fill="none" stroke="#008D36" stroke-width="0.4187" stroke-miterlimit="10" d="M39.097,65.488
			c1.986-1.514,4.54-2.448,7.333-2.511v-0.006c0-9.646,8.694-17.47,19.423-17.47c10.567,0,19.169,7.59,19.429,17.029
			c0.989-0.397,2.084-0.618,3.242-0.618c1.565,0,3.018,0.404,4.245,1.104c0.562,0.322,1.074,0.7,1.523,1.129
			c2.273-4.291,7.136-7.256,12.777-7.256c0.112,0,0.225,0,0.337,0.006c4.575,0.095,8.61,2.145,11.107,5.256
			c1.691,2.095,2.681,4.663,2.681,7.438c0,3.464-1.544,6.606-4.042,8.902c12.707,7.464,21.106,20.366,21.106,35.035
			c0,0.379-0.007,0.757-0.014,1.136c-0.674,22.575-21.233,40.688-46.493,40.688c-1.186,0-2.358-0.038-3.522-0.12
			c-7.508-0.504-14.511-2.611-20.602-5.943c-0.182,0.43-0.379,0.853-0.596,1.269c-3.081,5.987-9.333,10.379-16.819,11.426
			c-1.137,0.164-2.302,0.246-3.487,0.246c-7.543,0-14.216-3.356-18.272-8.498c-2.582-3.281-4.104-7.281-4.104-11.615
			c0-4.638,1.747-8.909,4.68-12.31"/>
		<path fill="none" stroke="#008D36" stroke-width="0.4187" stroke-miterlimit="10" d="M18.18,98.423
			c-0.589-1.937-0.898-3.969-0.898-6.07c0-10.492,7.718-19.363,18.321-22.278c0.688-1.779,1.895-3.344,3.452-4.555"/>
		<path fill="none" stroke="#008D36" stroke-width="0.4187" stroke-miterlimit="10" d="M39.097,65.488v0.044
			c-0.014-0.006-0.028-0.006-0.042-0.012C39.069,65.514,39.083,65.501,39.097,65.488z"/>
		<path fill="none" stroke="#3AAA35" stroke-width="0.4187" stroke-miterlimit="10" d="M110.479,78.876
			c3.642,6.619,3.347,14.72-1.396,21.244c4.855,6.605,4.912,15.501-0.611,22.265c-1.691,2.076-3.761,3.761-6.063,5.035
			c2.758,3.931,2.723,9.136-0.519,13.104c-3.228,3.942-8.694,5.533-13.662,4.391c-1.565-0.354-3.073-0.984-4.456-1.893
			c-2.084-1.375-3.572-3.205-4.428-5.224c-3.024,0.965-6.512,0.605-9.297-1.23c-1.319-0.871-2.336-1.981-3.017-3.212
			c-0.189-0.328-0.351-0.669-0.491-1.016c-11.017,5.823-25.289,5.577-36.242-1.653c-0.435-0.283-0.856-0.58-1.27-0.883
			c-6.182-4.505-10.097-10.657-11.55-17.225c-1.031-4.65-0.821-9.514,0.702-14.151v-0.006c1.045-3.211,2.729-6.316,5.059-9.174
			c6.414-7.855,16.314-12.044,26.376-12.107c3.522-3.723,8.462-5.836,13.578-6.17c-0.435-2.373,0.147-4.896,1.853-6.984
			C68.413,59.86,74.861,58.971,79.45,62c2.133,1.407,3.495,3.413,3.986,5.583c2.842-0.625,5.803-0.776,8.729-0.442
			c3.88,0.442,7.683,1.754,11.058,3.981C106.402,73.224,108.837,75.898,110.479,78.876z"/>
	</g>
</g>
<g>
	<path fill="#106BB0" d="M171.434,176.374v0.415c0,2.738-2.163,4.961-4.833,4.961h-52.02v-10.338h52.02
		C169.271,171.412,171.434,173.635,171.434,176.374z"/>
	<path fill="#116BB0" d="M90.487,122.683v4.966h-4.16v-4.966c0-1.333,0.93-2.417,2.078-2.417c0.575,0,1.095,0.27,1.474,0.709
		C90.252,121.41,90.487,122.014,90.487,122.683z"/>
	<path fill="#B9C4CB" d="M69.794,176.076c-0.246-0.532-0.383-1.107-0.383-1.712v-3.817C69.412,172.64,69.548,174.464,69.794,176.076
		z"/>
	<path fill="#B9C4CB" d="M79.085,175.238c-0.182-0.607-0.278-1.265-0.278-1.949v-1.877C78.807,172.79,78.904,174.058,79.085,175.238
		z"/>
	<path fill="#CEDAE3" d="M107.268,133.56v0.669H78.807v-0.669c0-3.267,2.195-5.911,4.901-5.911h18.658
		C105.073,127.649,107.268,130.293,107.268,133.56z"/>
	<path fill="#CEDAE3" d="M166.412,185.443c-1.522,39.128-26.491,17.704-26.491,47.183v8.457H95.722v-27.485
		c0.068-1.49,0.064-2.884,0-4.192c-0.528-10.897-5.284-15.943-9.617-20.945c-2.4-2.774-4.672-5.529-6.021-9.263
		c-0.443-1.204-0.785-2.513-0.999-3.959c-0.182-1.18-0.278-2.448-0.278-3.826v-33.155h28.461v47.187H166.412z"/>
	<path fill="#CDDAE4" d="M79.085,175.238c-0.182-0.607-0.278-1.265-0.278-1.949v-1.877C78.807,172.79,78.904,174.058,79.085,175.238
		z"/>
	<path fill="#B9C5CC" d="M109.684,136.243c0,1.111-0.902,2.014-2.014,2.014H78.807v35.032c0,0.685,0.097,1.342,0.278,1.949
		c0.214,1.446,0.556,2.755,0.999,3.959c1.349,3.733,3.62,6.488,6.021,9.263c4.333,5.002,9.089,10.048,9.617,20.945v31.678h-9.617
		v-27.989c0-1.771-0.061-3.398-0.182-4.9c-1.623-20.857-13.797-16.991-16.125-32.113c0,0-0.004,0-0.004-0.004
		c-0.246-1.611-0.383-3.436-0.383-5.529v-32.29h-0.27c-1.111,0-2.014-0.902-2.014-2.014c0-0.557,0.226-1.06,0.588-1.422
		c0.366-0.367,0.87-0.592,1.426-0.592h0.27v-1.748c0-2.666,2.638-4.832,5.892-4.832h8.405c-2.706,0-4.901,2.645-4.901,5.911v0.669
		h28.863C108.782,134.229,109.684,135.131,109.684,136.243z"/>
	<rect x="107.268" y="171.412" fill="#425F73" width="7.313" height="10.338"/>
	<path fill="#B8C4CB" d="M95.722,213.597v-4.192C95.787,210.713,95.791,212.107,95.722,213.597z"/>
	<path fill="#CFDBE3" d="M95.722,213.597v-4.192C95.787,210.713,95.791,212.107,95.722,213.597z"/>
	<path fill="#B9C5CC" d="M166.468,181.75v1.845c-0.013,0.633-0.028,1.248-0.057,1.849h-59.144v-3.693H166.468z"/>
	<path fill="#B9C5CC" d="M166.468,183.594v1.849h-0.057C166.44,184.842,166.456,184.227,166.468,183.594z"/>
	
		<line fill="none" stroke="#CEDAE3" stroke-width="40.2722" stroke-miterlimit="10" x1="166.416" y1="185.443" x2="166.412" y2="185.443"/>
	<path fill="none" stroke="#010202" stroke-width="0.8054" stroke-miterlimit="10" d="M139.92,241.083H86.105v-12.081l-0.182-20.809
		c0.182-19.733-16.58-17.651-16.512-37.646c0,0,0-28.264,0-32.29c-2.938-0.019-2.938-3.996,0-4.027
		c-0.018-4.7,2.097-6.613,6.678-6.58c1.711,0,10.237-0.001,10.237-0.001s0-6.929,0-4.965c-0.019-3.272,4.16-3.122,4.16,0
		c0,3.12,0,4.966,0,4.966s14.95,0,11.88,0c5.487,0.018,4.901,6.58,4.901,6.58s0.971,0,0.687,0c2.265-0.019,2.315,3.959-0.001,4.005
		c-0.283,0.022-0.686,0.022-0.686,0.022v33.155c0,0,56.313,0,59.635,0c5.739,0,6.646,10.32-0.435,10.338v1.492
		c0,0,0.003,0.707-0.033,1.613C163.581,230.411,137.706,196.683,139.92,241.083z"/>
</g>
<g>
	
		<image overflow="visible" opacity="0.25" width="1491" height="776" xlink:href="B804099A.png"  transform="matrix(0.24 0 0 0.24 158.5078 29.2925)">
	</image>
	<g>
		<g>
			<g>
				<path d="M172.808,127.472c-2.312-6.35-4.38-11.397-6.3-16.034l8.092-2.945l3.503,8.352l0.205-0.075
					c1.488-7.385,6.021-13.094,14.112-16.039c11.983-4.361,24.687,2.497,30.166,17.554c6.486,17.822-1.164,30.581-12.84,34.831
					c-6.555,2.385-13.334,1.605-18.094-2.229l-0.205,0.074l9.805,26.937l-8.91,3.243L172.808,127.472z M186.527,137.441
					c0.484,1.332,1.137,2.486,1.752,3.539c3.912,5.65,10.906,7.977,17.359,5.627c9.524-3.467,12.223-13.264,8.084-24.632
					c-3.615-9.935-11.934-16.535-21.459-13.067c-6.145,2.237-10.277,8.728-9.559,16.122c0.104,1.237,0.28,2.681,0.728,3.911
					L186.527,137.441z"/>
				<path d="M343.55,65.327c-2.312-6.351-4.38-11.397-6.3-16.034l8.092-2.945l3.503,8.352l0.205-0.074
					c1.488-7.385,6.021-13.095,14.112-16.039c11.983-4.362,24.687,2.497,30.166,17.554c6.486,17.82-1.164,30.58-12.84,34.83
					c-6.555,2.386-13.334,1.604-18.094-2.229l-0.204,0.074l9.804,26.937l-8.91,3.243L343.55,65.327z M357.27,75.296
					c0.484,1.332,1.137,2.486,1.752,3.538c3.912,5.651,10.906,7.977,17.359,5.628c9.524-3.467,12.223-13.263,8.084-24.632
					c-3.615-9.935-11.934-16.534-21.459-13.067c-6.145,2.236-10.277,8.728-9.559,16.122c0.104,1.237,0.281,2.681,0.729,3.91
					L357.27,75.296z"/>
			</g>
			<g>
				<path d="M310.566,124.415v15.149H324.3v7.303h-13.733v28.448c0,6.539,1.853,10.244,7.194,10.244
					c2.506,0,4.359-0.326,5.559-0.652l0.436,7.193c-1.854,0.762-4.796,1.307-8.502,1.307c-4.469,0-8.065-1.416-10.354-4.031
					c-2.726-2.834-3.707-7.521-3.707-13.734v-28.774h-8.174v-7.303h8.174v-12.643L310.566,124.415z"/>
				<path d="M345.772,124.742c0.109,3.27-2.289,5.885-6.104,5.885c-3.379,0-5.776-2.615-5.776-5.885
					c0-3.379,2.507-5.995,5.995-5.995C343.483,118.747,345.772,121.363,345.772,124.742z M335.091,192.317v-52.753h9.592v52.753
					H335.091z"/>
				<path d="M360.597,153.842c0-5.449-0.109-9.918-0.436-14.278h8.393l0.436,8.502h0.326c2.943-5.014,7.848-9.7,16.568-9.7
					c7.193,0,12.643,4.359,14.932,10.572h0.218c1.635-2.942,3.706-5.231,5.886-6.866c3.16-2.398,6.648-3.706,11.662-3.706
					c6.976,0,17.33,4.577,17.33,22.889v31.063h-9.373v-29.863c0-10.137-3.706-16.241-11.444-16.241c-5.45,0-9.7,4.033-11.335,8.72
					c-0.437,1.309-0.764,3.053-0.764,4.797v32.588h-9.373v-31.607c0-8.393-3.706-14.497-11.009-14.497
					c-5.995,0-10.354,4.797-11.88,9.593c-0.545,1.416-0.764,3.051-0.764,4.686v31.826h-9.373V153.842z"/>
				<path d="M456.843,167.685c0.219,12.97,8.502,18.312,18.093,18.312c6.867,0,11.009-1.199,14.605-2.727l1.635,6.867
					c-3.379,1.525-9.155,3.27-17.548,3.27c-16.24,0-25.94-10.681-25.94-26.594s9.374-28.447,24.741-28.447
					c17.222,0,21.799,15.15,21.799,24.851c0,1.962-0.218,3.487-0.326,4.469H456.843z M484.964,160.819
					c0.108-6.104-2.507-15.587-13.298-15.587c-9.7,0-13.951,8.938-14.714,15.587H484.964z"/>
			</g>
			<g>
				<g>
					<path fill="#010202" d="M270.375,92.108c5.015,1.066,10.431,4.909,11.163,11.639c0.362,3.32-0.122,6.9-1.54,9.5
						c-1.462,2.679-3.918,3.864-6.014,5.677c-0.014,0.007-0.026,0.02-0.038,0.032l-0.72,0.368l-24.463,12.53
						c-0.098,0.129-0.232,0.225-0.404,0.283c-3.688,1.252-10.24,3.596-13.549-1.502c-2.019-3.114-1.923-7.661-0.992-10.778
						c0.943-3.154,2.785-5.663,5.117-7.34c-3.712-5.271-0.501-11.871,2.227-15.678c-0.631-1.707-0.48-3.744,0.023-5.434
						c0.788-2.646,2.224-4.687,3.563-6.876c0.573-0.939,1.265-2.013,1.42-3.25c0.172-1.379-0.374-2.362-1.317-3.325
						c-0.386-0.395-0.492-0.87-0.417-1.279c-0.122-0.574,0.017-1.194,0.559-1.432c3.427-1.499,8.03,2.146,11.063,4.616
						c1.975,1.61,3.816,3.893,4.746,6.533c3.182-0.786,7.349,0.775,9.184,4.73C270.141,91.453,270.268,91.781,270.375,92.108z
						 M279.449,104.128c-0.599-5.48-4.594-8.302-8.656-9.356c-0.028,2.782-1.479,5.245-3.064,7.09
						c-0.916,1.067-2.657-0.751-1.733-1.827c1.505-1.751,3.779-4.847,2.165-7.914c-1.515-2.875-4.579-3.837-6.919-3.103
						c-0.084,1.62-0.818,3-1.448,4.417c-0.61,1.369-2.616,0.082-2.003-1.298c0.804-1.804,1.86-3.315,0.824-5.629
						c-0.936-2.082-2.469-3.722-4.102-5.001c-1.936-1.515-4.852-3.898-7.277-3.996c1.093,1.734,1.434,3.767,0.77,5.749
						c-0.741,2.213-2.107,3.984-3.249,5.86c-0.655,1.076-1.218,2.277-1.569,3.583c-0.255,0.948-0.726,2.957,0.153,3.9
						c0.703,0.756,1.647,1.017,2.611,1.017c0.089,0.014,0.18,0.011,0.275-0.007c0.013-0.001,0.023-0.002,0.036-0.004
						c0.067,0.017,0.139,0.025,0.211,0.023c0.146,0.179,0.323,0.321,0.525,0.383c0.021,0.021,0.041,0.037,0.063,0.057
						c0.071,0.196,0.171,0.38,0.298,0.533c0.01,0.12,0.014,0.239,0.013,0.359c-0.014,0.578-0.252,0.958-0.602,1.214
						c-1.283,0.082-2.601-0.13-3.716-0.884c-0.14-0.095-0.27-0.196-0.395-0.299c-1.261,1.786-2.435,3.768-2.982,6.108
						c-0.453,1.942-0.423,5.324,1.501,6.689c1.507,1.07,3.254,0.708,4.706,0.276c0.092-0.029,0.181-0.059,0.272-0.087
						c0.066,0.033,0.14,0.062,0.218,0.083c1.042,0.275,0.956,1.759,0.257,2.251c-0.077,0.054-0.14,0.115-0.194,0.181
						c-0.068,0.009-0.137,0.021-0.208,0.045c-0.203,0.069-0.354,0.193-0.455,0.348c-1.706,0.41-3.441,0.458-4.965-0.493
						c-2.19,1.414-4.036,3.561-4.899,6.45c-0.465,1.556-0.682,3.281-0.478,5.041c0.133,1.149,0.342,2.605,1.122,3.531
						c1.47,1.746,3.604,1.786,5.352,1.608c1.742-0.176,3.411-0.665,5.055-1.214l25.74-13.186c1.78-1.498,3.942-2.505,5.245-4.66
						C279.187,109.923,279.745,106.853,279.449,104.128z"/>
					<path fill="#B27C4B" d="M270.793,94.771c4.063,1.054,8.058,3.876,8.656,9.356c0.296,2.725-0.263,5.795-1.5,7.839
						c-1.303,2.155-3.465,3.162-5.245,4.66l-25.74,13.186c-1.645,0.549-3.313,1.038-5.055,1.214
						c-1.748,0.178-3.882,0.138-5.352-1.608c-0.78-0.926-0.989-2.382-1.122-3.531c-0.204-1.76,0.013-3.484,0.478-5.041
						c0.863-2.89,2.709-5.036,4.899-6.45c1.523,0.951,3.259,0.903,4.965,0.493c0.102-0.155,0.252-0.278,0.455-0.348
						c0.071-0.024,0.14-0.037,0.208-0.045c0.055-0.066,0.117-0.127,0.194-0.181c0.699-0.492,0.785-1.976-0.257-2.251
						c-0.078-0.021-0.151-0.049-0.218-0.083c-0.092,0.028-0.181,0.059-0.272,0.087c-1.452,0.432-3.199,0.794-4.706-0.276
						c-1.924-1.365-1.955-4.747-1.501-6.689c0.547-2.34,1.721-4.322,2.982-6.108c0.125,0.103,0.255,0.204,0.395,0.299
						c1.115,0.753,2.433,0.965,3.716,0.884c0.35-0.256,0.588-0.636,0.602-1.214c0.001-0.121-0.003-0.24-0.013-0.359
						c-0.127-0.153-0.227-0.337-0.298-0.533c-0.022-0.021-0.043-0.036-0.063-0.057c-0.202-0.063-0.379-0.204-0.525-0.383
						c-0.072,0.002-0.144-0.007-0.211-0.023c-0.013,0.001-0.023,0.002-0.036,0.004c-0.096,0.019-0.187,0.021-0.275,0.007
						c-0.964,0-1.908-0.26-2.611-1.017c-0.879-0.943-0.408-2.952-0.153-3.9c0.352-1.306,0.914-2.507,1.569-3.583
						c1.142-1.876,2.508-3.647,3.249-5.86c0.664-1.982,0.323-4.015-0.77-5.749c2.426,0.098,5.342,2.481,7.277,3.996
						c1.633,1.279,3.166,2.92,4.102,5.001c1.036,2.313-0.021,3.825-0.824,5.629c-0.613,1.38,1.393,2.667,2.003,1.298
						c0.63-1.417,1.364-2.797,1.448-4.417c2.34-0.734,5.404,0.229,6.919,3.103c1.614,3.067-0.66,6.163-2.165,7.914
						c-0.924,1.075,0.817,2.894,1.733,1.827C269.313,100.016,270.765,97.553,270.793,94.771z"/>
					<path d="M273.984,118.924l0.005,0.009l-0.043,0.023C273.958,118.944,273.971,118.931,273.984,118.924z"/>
					<path d="M273.946,118.956c-0.059,0.048-0.114,0.098-0.172,0.148c-0.178,0.158-0.365,0.225-0.548,0.22L273.946,118.956z"/>
				</g>
			</g>
			<g>
				<g>
					<path fill="#B27C4B" d="M298.381,89.782c-1.848-1.256-1.837-4.426-1.372-6.255c0.562-2.199,1.725-4.072,2.97-5.762
						c0.12,0.095,0.242,0.189,0.378,0.276c1.073,0.692,2.348,0.875,3.595,0.782c0.34-0.244,0.576-0.604,0.597-1.146
						c0.004-0.114,0.003-0.226-0.006-0.338c-0.123-0.141-0.218-0.312-0.282-0.496c-0.021-0.019-0.042-0.033-0.062-0.053
						c-0.195-0.056-0.366-0.186-0.506-0.352c-0.068,0.002-0.138-0.005-0.203-0.02c-0.013,0-0.022,0.002-0.035,0.004
						c-0.094,0.019-0.181,0.022-0.267,0.01c-0.938,0.013-1.848-0.22-2.521-0.92c-0.843-0.873-0.36-2.765-0.103-3.654
						c0.358-1.229,0.918-2.361,1.568-3.381c1.13-1.771,2.478-3.449,3.226-5.533c0.669-1.867,0.364-3.768-0.676-5.383
						c2.351,0.062,5.149,2.263,7.01,3.656c1.566,1.18,3.035,2.7,3.917,4.64c0.977,2.156-0.067,3.586-0.872,5.289
						c-0.612,1.302,1.318,2.483,1.929,1.189c0.627-1.333,1.359-2.637,1.461-4.157c2.275-0.72,5.239,0.146,6.67,2.824
						c1.528,2.856-0.715,5.786-2.196,7.446c-0.91,1.02,0.757,2.703,1.659,1.691c1.56-1.75,2.996-4.077,3.061-6.686
						c3.928,0.938,7.768,3.534,8.279,8.663c0.254,2.553-0.326,5.439-1.554,7.371c-1.291,2.037-3.4,3.005-5.145,4.434l-25.134,12.684
						c-1.603,0.532-3.229,1.015-4.92,1.196c-1.698,0.194-3.766,0.182-5.172-1.436c-0.743-0.859-0.93-2.221-1.042-3.298
						c-0.176-1.647,0.055-3.269,0.525-4.734c0.874-2.717,2.691-4.753,4.831-6.105c1.466,0.872,3.151,0.805,4.813,0.399
						c0.099-0.146,0.247-0.265,0.443-0.331c0.071-0.024,0.139-0.037,0.204-0.046c0.054-0.063,0.113-0.122,0.188-0.171
						c0.687-0.471,0.789-1.863-0.22-2.11c-0.074-0.017-0.146-0.042-0.212-0.074c-0.089,0.028-0.175,0.06-0.265,0.087
						C301.528,90.403,299.828,90.764,298.381,89.782z"/>
					<path d="M330.113,96.056l0.004,0.012l-0.042,0.022C330.088,96.076,330.102,96.065,330.113,96.056z"/>
					<path d="M330.075,96.09c-0.058,0.045-0.112,0.093-0.168,0.138c-0.173,0.153-0.358,0.216-0.532,0.215L330.075,96.09z"/>
					<path fill="#010202" d="M301.978,56.815c-0.113-0.536,0.031-1.12,0.56-1.35c3.341-1.447,7.763,1.912,10.673,4.19
						c1.897,1.484,3.653,3.602,4.523,6.065c3.095-0.776,7.117,0.636,8.85,4.32c0.144,0.309,0.263,0.615,0.362,0.921
						c4.854,0.936,10.057,4.47,10.685,10.773c0.312,3.108-0.205,6.471-1.612,8.924c-1.452,2.533-3.848,3.672-5.904,5.397
						c-0.012,0.009-0.025,0.02-0.038,0.034l-0.7,0.353l-23.887,12.054c-0.1,0.12-0.229,0.213-0.398,0.271
						c-3.591,1.219-9.976,3.499-13.122-1.24c-1.92-2.897-1.77-7.159-0.829-10.092c0.956-2.97,2.771-5.345,5.055-6.946
						c-3.535-4.896-0.338-11.124,2.358-14.728c-0.592-1.592-0.419-3.505,0.091-5.096c0.797-2.49,2.213-4.421,3.54-6.491
						c0.568-0.888,1.252-1.904,1.418-3.064c0.187-1.296-0.331-2.211-1.236-3.102C301.995,57.645,301.897,57.2,301.978,56.815z
						 M297.009,83.526c-0.465,1.829-0.476,5,1.372,6.255c1.447,0.982,3.147,0.621,4.562,0.2c0.09-0.028,0.176-0.06,0.265-0.087
						c0.065,0.033,0.138,0.058,0.212,0.074c1.009,0.247,0.906,1.639,0.22,2.11c-0.075,0.049-0.135,0.108-0.188,0.171
						c-0.065,0.009-0.133,0.021-0.204,0.046c-0.196,0.066-0.345,0.185-0.443,0.331c-1.661,0.406-3.347,0.473-4.813-0.399
						c-2.14,1.353-3.957,3.388-4.831,6.105c-0.471,1.466-0.701,3.087-0.525,4.734c0.112,1.077,0.299,2.438,1.042,3.298
						c1.406,1.618,3.474,1.63,5.172,1.436c1.691-0.182,3.317-0.664,4.92-1.196l25.134-12.684c1.744-1.429,3.854-2.397,5.145-4.434
						c1.228-1.932,1.808-4.818,1.554-7.371c-0.512-5.128-4.352-7.725-8.279-8.663c-0.064,2.609-1.501,4.936-3.061,6.686
						c-0.902,1.012-2.569-0.671-1.659-1.691c1.481-1.66,3.725-4.59,2.196-7.446c-1.431-2.677-4.395-3.543-6.67-2.824
						c-0.102,1.52-0.834,2.824-1.461,4.157c-0.61,1.294-2.541,0.112-1.929-1.189c0.805-1.702,1.849-3.133,0.872-5.289
						c-0.882-1.94-2.351-3.46-3.917-4.64c-1.86-1.393-4.659-3.595-7.01-3.656c1.04,1.615,1.345,3.516,0.676,5.383
						c-0.748,2.084-2.096,3.763-3.226,5.533c-0.65,1.02-1.21,2.153-1.568,3.381c-0.258,0.89-0.74,2.782,0.103,3.654
						c0.673,0.701,1.583,0.934,2.521,0.92c0.086,0.013,0.173,0.009,0.267-0.01c0.013-0.002,0.022-0.005,0.035-0.004
						c0.065,0.015,0.135,0.022,0.203,0.02c0.14,0.166,0.311,0.296,0.506,0.352c0.02,0.02,0.04,0.034,0.062,0.053
						c0.064,0.184,0.159,0.355,0.282,0.496c0.009,0.112,0.01,0.224,0.006,0.338c-0.021,0.542-0.257,0.902-0.597,1.146
						c-1.247,0.093-2.521-0.09-3.595-0.782c-0.136-0.087-0.258-0.181-0.378-0.276C298.733,79.455,297.57,81.328,297.009,83.526z"/>
				</g>
			</g>
		</g>
	</g>
</g>
</svg>
