<?xml version="1.0" encoding="utf-8"?>
<!-- Generator: Adobe Illustrator 16.0.0, SVG Export Plug-In . SVG Version: 6.00 Build 0)  -->
<!DOCTYPE svg PUBLIC "-//W3C//DTD SVG 1.1//EN" "http://www.w3.org/Graphics/SVG/1.1/DTD/svg11.dtd">
<svg version="1.1" id="Calque_1" xmlns="http://www.w3.org/2000/svg" xmlns:xlink="http://www.w3.org/1999/xlink" x="0px" y="0px"
	 width="327.72px" height="156.115px" viewBox="0 0 327.72 156.115" enable-background="new 0 0 327.72 156.115"
	 xml:space="preserve">
<g>
	<path d="M6.3,90.18C3.988,83.83,1.92,78.783,0,74.146l8.092-2.945l3.503,8.352l0.205-0.075c1.488-7.385,6.021-13.094,14.112-16.039
		c11.983-4.361,24.687,2.497,30.166,17.554c6.486,17.821-1.164,30.581-12.84,34.831c-6.555,2.385-13.334,1.605-18.094-2.229
		l-0.205,0.075l9.805,26.936l-8.91,3.243L6.3,90.18z M20.02,100.149c0.484,1.331,1.137,2.485,1.752,3.538
		c3.912,5.651,10.906,7.977,17.359,5.628c9.524-3.467,12.223-13.264,8.084-24.632C43.6,74.749,35.281,68.148,25.756,71.616
		c-6.145,2.237-10.277,8.728-9.559,16.122c0.104,1.238,0.28,2.681,0.728,3.911L20.02,100.149z"/>
	<path d="M177.042,28.035c-2.312-6.351-4.38-11.397-6.3-16.034l8.092-2.945l3.503,8.352l0.205-0.074
		c1.488-7.385,6.021-13.095,14.112-16.039c11.983-4.362,24.687,2.497,30.166,17.554c6.486,17.82-1.164,30.58-12.84,34.83
		c-6.555,2.386-13.334,1.604-18.094-2.229l-0.204,0.074l9.804,26.937l-8.91,3.243L177.042,28.035z M190.762,38.004
		c0.484,1.332,1.137,2.486,1.752,3.538c3.912,5.651,10.906,7.977,17.359,5.628c9.524-3.467,12.223-13.263,8.084-24.632
		c-3.615-9.935-11.934-16.534-21.459-13.067c-6.145,2.236-10.277,8.728-9.559,16.122c0.104,1.237,0.281,2.681,0.729,3.91
		L190.762,38.004z"/>
</g>
<g>
	<path d="M144.059,87.123v15.15h13.733v7.303h-13.733v28.448c0,6.539,1.853,10.244,7.194,10.244c2.507,0,4.359-0.326,5.559-0.652
		l0.436,7.193c-1.853,0.762-4.796,1.307-8.501,1.307c-4.469,0-8.066-1.416-10.354-4.031c-2.725-2.834-3.706-7.521-3.706-13.734
		v-28.774h-8.174v-7.303h8.174V89.629L144.059,87.123z"/>
	<path d="M179.265,87.449c0.109,3.27-2.289,5.886-6.104,5.886c-3.379,0-5.776-2.616-5.776-5.886c0-3.378,2.507-5.995,5.995-5.995
		C176.976,81.455,179.265,84.071,179.265,87.449z M168.583,155.025v-52.752h9.591v52.752H168.583z"/>
	<path d="M194.089,116.55c0-5.449-0.109-9.918-0.436-14.278h8.393l0.436,8.501h0.327c2.943-5.014,7.848-9.7,16.568-9.7
		c7.193,0,12.643,4.359,14.932,10.572h0.218c1.635-2.943,3.706-5.232,5.886-6.867c3.16-2.398,6.648-3.706,11.662-3.706
		c6.976,0,17.33,4.578,17.33,22.889v31.063h-9.373v-29.863c0-10.137-3.706-16.241-11.444-16.241c-5.45,0-9.7,4.033-11.335,8.719
		c-0.437,1.309-0.764,3.053-0.764,4.797v32.588h-9.373v-31.607c0-8.393-3.706-14.497-11.009-14.497
		c-5.995,0-10.354,4.796-11.88,9.592c-0.545,1.416-0.763,3.051-0.763,4.686v31.826h-9.374V116.55z"/>
	<path d="M290.335,130.393c0.219,12.97,8.502,18.312,18.093,18.312c6.867,0,11.009-1.199,14.605-2.727l1.635,6.867
		c-3.379,1.525-9.155,3.27-17.548,3.27c-16.24,0-25.94-10.681-25.94-26.594s9.374-28.447,24.741-28.447
		c17.222,0,21.799,15.15,21.799,24.851c0,1.962-0.218,3.487-0.326,4.469H290.335z M318.456,123.527
		c0.108-6.104-2.507-15.586-13.298-15.586c-9.7,0-13.951,8.937-14.714,15.586H318.456z"/>
</g>
<g id="XMLID_1_">
	<g>
		<path fill="#010202" d="M103.867,54.817c5.015,1.065,10.432,4.909,11.164,11.639c0.362,3.32-0.123,6.9-1.541,9.5
			c-1.462,2.679-3.917,3.864-6.014,5.677c-0.013,0.007-0.026,0.02-0.038,0.032l-0.719,0.368l-24.464,12.53
			c-0.098,0.128-0.232,0.225-0.404,0.283c-3.688,1.252-10.24,3.596-13.549-1.502c-2.019-3.114-1.923-7.661-0.992-10.778
			c0.943-3.154,2.785-5.664,5.117-7.341c-3.712-5.271-0.501-11.871,2.227-15.677c-0.631-1.707-0.48-3.744,0.023-5.435
			c0.788-2.645,2.224-4.687,3.563-6.876c0.574-0.939,1.265-2.014,1.42-3.25c0.173-1.379-0.374-2.362-1.316-3.325
			c-0.386-0.395-0.493-0.871-0.417-1.279c-0.123-0.574,0.017-1.195,0.558-1.432c3.427-1.499,8.031,2.146,11.063,4.616
			c1.975,1.61,3.817,3.893,4.747,6.533c3.182-0.786,7.348,0.775,9.183,4.729C103.633,54.161,103.76,54.489,103.867,54.817z
			 M112.941,66.836c-0.599-5.48-4.594-8.302-8.656-9.356c-0.029,2.781-1.48,5.245-3.064,7.09c-0.917,1.067-2.658-0.752-1.733-1.827
			c1.504-1.751,3.779-4.847,2.164-7.914c-1.514-2.875-4.579-3.838-6.918-3.103c-0.084,1.62-0.819,3-1.448,4.417
			c-0.611,1.369-2.617,0.082-2.003-1.299c0.805-1.804,1.861-3.315,0.824-5.628c-0.935-2.082-2.468-3.722-4.101-5.001
			c-1.936-1.515-4.852-3.899-7.278-3.997c1.093,1.734,1.434,3.767,0.77,5.75c-0.74,2.212-2.107,3.984-3.249,5.86
			c-0.655,1.076-1.217,2.277-1.569,3.583c-0.255,0.948-0.726,2.957,0.153,3.9c0.703,0.757,1.647,1.017,2.611,1.017
			c0.089,0.015,0.181,0.011,0.276-0.007c0.013-0.001,0.023-0.002,0.036-0.004c0.067,0.016,0.139,0.025,0.211,0.023
			c0.147,0.179,0.323,0.321,0.525,0.383c0.021,0.021,0.042,0.036,0.063,0.057c0.071,0.197,0.172,0.381,0.298,0.534
			c0.01,0.12,0.013,0.239,0.012,0.359c-0.013,0.578-0.252,0.958-0.602,1.214c-1.282,0.081-2.601-0.13-3.715-0.884
			c-0.141-0.095-0.27-0.196-0.396-0.299c-1.261,1.785-2.435,3.768-2.981,6.108c-0.453,1.941-0.423,5.324,1.501,6.688
			c1.507,1.071,3.254,0.708,4.706,0.276c0.092-0.028,0.181-0.059,0.272-0.087c0.066,0.033,0.14,0.061,0.218,0.083
			c1.042,0.274,0.956,1.758,0.256,2.251c-0.077,0.054-0.14,0.115-0.194,0.181c-0.067,0.009-0.136,0.021-0.208,0.045
			c-0.204,0.069-0.353,0.193-0.455,0.348c-1.707,0.41-3.441,0.458-4.965-0.493c-2.19,1.414-4.036,3.561-4.899,6.45
			c-0.465,1.557-0.682,3.281-0.478,5.041c0.133,1.149,0.342,2.605,1.122,3.531c1.47,1.746,3.603,1.787,5.351,1.609
			c1.742-0.176,3.411-0.666,5.055-1.214l25.741-13.186c1.78-1.498,3.943-2.505,5.245-4.66
			C112.679,72.632,113.237,69.561,112.941,66.836z"/>
		<path fill="#B27C4B" d="M104.286,57.48c4.062,1.054,8.057,3.876,8.656,9.356c0.296,2.724-0.263,5.795-1.5,7.838
			c-1.302,2.155-3.465,3.162-5.245,4.66L80.456,92.521c-1.644,0.548-3.313,1.038-5.055,1.214c-1.748,0.178-3.881,0.137-5.351-1.609
			c-0.78-0.926-0.989-2.382-1.122-3.531c-0.204-1.76,0.012-3.484,0.478-5.041c0.863-2.889,2.709-5.036,4.899-6.45
			c1.523,0.95,3.258,0.902,4.965,0.493c0.102-0.155,0.251-0.279,0.455-0.348c0.071-0.024,0.14-0.036,0.208-0.045
			c0.055-0.066,0.118-0.127,0.194-0.181c0.699-0.493,0.786-1.977-0.256-2.251c-0.078-0.021-0.151-0.049-0.218-0.083
			c-0.092,0.028-0.181,0.059-0.272,0.087c-1.452,0.433-3.199,0.795-4.706-0.276c-1.924-1.365-1.955-4.747-1.501-6.688
			c0.547-2.34,1.721-4.323,2.981-6.108c0.125,0.103,0.255,0.204,0.396,0.299c1.114,0.754,2.433,0.965,3.715,0.884
			c0.35-0.256,0.589-0.637,0.602-1.214c0.001-0.121-0.002-0.24-0.012-0.359c-0.126-0.153-0.227-0.337-0.298-0.534
			c-0.022-0.021-0.043-0.036-0.063-0.057c-0.202-0.063-0.378-0.204-0.525-0.383c-0.072,0.002-0.144-0.007-0.211-0.023
			c-0.013,0.001-0.023,0.002-0.036,0.004c-0.095,0.018-0.187,0.021-0.276,0.007c-0.963,0-1.908-0.26-2.611-1.017
			c-0.879-0.943-0.409-2.952-0.153-3.9c0.352-1.306,0.914-2.506,1.569-3.583c1.142-1.876,2.509-3.648,3.249-5.86
			c0.664-1.983,0.324-4.015-0.77-5.75c2.426,0.098,5.342,2.482,7.278,3.997c1.633,1.279,3.166,2.92,4.101,5.001
			c1.037,2.313-0.02,3.825-0.824,5.628c-0.613,1.381,1.393,2.667,2.003,1.299c0.629-1.417,1.364-2.797,1.448-4.417
			c2.34-0.735,5.405,0.228,6.918,3.103c1.615,3.067-0.66,6.163-2.164,7.914c-0.924,1.075,0.817,2.894,1.733,1.827
			C102.805,62.725,104.257,60.261,104.286,57.48z"/>
		<path d="M107.476,81.632l0.005,0.009l-0.043,0.023C107.45,81.652,107.463,81.639,107.476,81.632z"/>
		<path d="M107.438,81.665c-0.059,0.048-0.114,0.098-0.172,0.148c-0.178,0.159-0.364,0.225-0.547,0.22L107.438,81.665z"/>
	</g>
	<g>
	</g>
</g>
<g id="XMLID_2_">
	<g>
		<path d="M163.61,58.775l-0.042,0.022c0.011-0.014,0.024-0.024,0.036-0.033L163.61,58.775z"/>
		<path d="M162.866,59.151l0.702-0.354c-0.057,0.046-0.112,0.093-0.169,0.139C163.225,59.089,163.042,59.151,162.866,59.151z"/>
		<path fill="#B27C4B" d="M126.65,61.041c0.874-2.717,2.691-4.753,4.833-6.106c1.465,0.872,3.149,0.806,4.81,0.4
			c0.101-0.146,0.248-0.265,0.446-0.332c0.069-0.023,0.136-0.036,0.202-0.045c0.054-0.063,0.115-0.123,0.19-0.172
			c0.685-0.471,0.787-1.863-0.221-2.11c-0.074-0.017-0.146-0.042-0.21-0.075c-0.089,0.028-0.175,0.06-0.265,0.087
			c-1.415,0.421-3.114,0.783-4.561-0.2c-1.85-1.256-1.837-4.427-1.374-6.255c0.561-2.199,1.724-4.072,2.969-5.762
			c0.121,0.095,0.245,0.188,0.379,0.275c1.072,0.693,2.348,0.875,3.593,0.783c0.343-0.245,0.579-0.604,0.599-1.146
			c0.002-0.113,0.001-0.225-0.007-0.337c-0.122-0.141-0.216-0.313-0.283-0.496c-0.021-0.019-0.041-0.033-0.061-0.053
			c-0.195-0.056-0.364-0.187-0.505-0.353c-0.07,0.003-0.139-0.005-0.204-0.019c-0.013-0.001-0.023,0.002-0.035,0.004
			c-0.093,0.019-0.182,0.023-0.268,0.01c-0.935,0.013-1.848-0.22-2.52-0.92c-0.841-0.873-0.36-2.765-0.1-3.655
			c0.357-1.229,0.917-2.362,1.566-3.381c1.131-1.771,2.479-3.449,3.226-5.533c0.669-1.867,0.364-3.768-0.675-5.383
			c2.352,0.061,5.151,2.262,7.009,3.656c1.568,1.179,3.036,2.701,3.917,4.641c0.976,2.156-0.067,3.586-0.87,5.288
			c-0.612,1.302,1.318,2.483,1.927,1.19c0.629-1.334,1.359-2.637,1.46-4.157c2.278-0.72,5.24,0.146,6.673,2.823
			c1.528,2.855-0.718,5.786-2.198,7.447c-0.91,1.02,0.756,2.703,1.658,1.691c1.56-1.75,2.999-4.078,3.061-6.686
			c3.927,0.938,7.768,3.534,8.279,8.663c0.254,2.553-0.326,5.439-1.552,7.37c-1.291,2.037-3.402,3.006-5.146,4.435l-25.134,12.684
			c-1.603,0.532-3.227,1.014-4.92,1.196c-1.696,0.193-3.765,0.182-5.169-1.437c-0.746-0.858-0.93-2.221-1.044-3.297
			C125.949,64.128,126.18,62.506,126.65,61.041z"/>
		<path fill="#010202" d="M160.439,33.669c4.851,0.937,10.057,4.471,10.684,10.773c0.31,3.108-0.205,6.471-1.614,8.924
			c-1.451,2.533-3.848,3.672-5.904,5.397c-0.012,0.009-0.025,0.02-0.036,0.033l-0.702,0.354l-23.887,12.054
			c-0.097,0.119-0.228,0.213-0.396,0.271c-3.593,1.22-9.978,3.499-13.124-1.239c-1.92-2.897-1.77-7.159-0.828-10.093
			c0.954-2.969,2.772-5.345,5.055-6.946c-3.535-4.896-0.337-11.124,2.356-14.727c-0.591-1.593-0.419-3.505,0.09-5.096
			c0.797-2.49,2.216-4.422,3.542-6.492c0.568-0.888,1.252-1.903,1.418-3.064c0.185-1.295-0.333-2.21-1.236-3.101
			c-0.369-0.365-0.467-0.81-0.389-1.194c-0.112-0.537,0.031-1.121,0.56-1.35c3.343-1.448,7.763,1.912,10.674,4.189
			c1.896,1.485,3.654,3.603,4.522,6.066c3.097-0.777,7.118,0.635,8.849,4.32C160.22,33.058,160.339,33.364,160.439,33.669z
			 M145.184,23.924c-1.858-1.394-4.657-3.595-7.009-3.656c1.039,1.615,1.344,3.516,0.675,5.383
			c-0.746,2.084-2.094,3.762-3.226,5.533c-0.648,1.019-1.208,2.152-1.566,3.381c-0.26,0.89-0.741,2.782,0.1,3.655
			c0.672,0.701,1.585,0.933,2.52,0.92c0.086,0.013,0.175,0.008,0.268-0.01c0.012-0.001,0.022-0.005,0.035-0.004
			c0.065,0.014,0.134,0.022,0.204,0.019c0.141,0.167,0.31,0.297,0.505,0.353c0.02,0.02,0.04,0.034,0.061,0.053
			c0.067,0.184,0.162,0.355,0.283,0.496c0.008,0.112,0.009,0.224,0.007,0.337c-0.02,0.542-0.256,0.902-0.599,1.146
			c-1.245,0.092-2.521-0.09-3.593-0.783c-0.135-0.087-0.259-0.181-0.379-0.275c-1.245,1.689-2.409,3.563-2.969,5.762
			c-0.463,1.828-0.476,4.999,1.374,6.255c1.447,0.982,3.146,0.621,4.561,0.2c0.089-0.028,0.175-0.06,0.265-0.087
			c0.065,0.033,0.136,0.058,0.21,0.075c1.008,0.247,0.906,1.639,0.221,2.11c-0.076,0.049-0.137,0.109-0.19,0.172
			c-0.066,0.009-0.132,0.021-0.202,0.045c-0.199,0.067-0.346,0.186-0.446,0.332c-1.66,0.406-3.344,0.472-4.81-0.4
			c-2.142,1.353-3.959,3.389-4.833,6.106c-0.471,1.465-0.701,3.087-0.525,4.734c0.115,1.076,0.299,2.438,1.044,3.297
			c1.404,1.619,3.473,1.63,5.169,1.437c1.694-0.182,3.318-0.664,4.92-1.196l25.134-12.684c1.744-1.429,3.855-2.398,5.146-4.435
			c1.226-1.931,1.806-4.817,1.552-7.37c-0.511-5.128-4.352-7.725-8.279-8.663c-0.062,2.608-1.501,4.936-3.061,6.686
			c-0.902,1.012-2.568-0.672-1.658-1.691c1.48-1.661,3.726-4.591,2.198-7.447c-1.433-2.677-4.395-3.543-6.673-2.823
			c-0.102,1.52-0.832,2.823-1.46,4.157c-0.609,1.293-2.539,0.112-1.927-1.19c0.803-1.701,1.846-3.132,0.87-5.288
			C148.219,26.625,146.751,25.104,145.184,23.924z"/>
	</g>
	<g>
	</g>
</g>
</svg>
